<?xml version="1.0" encoding="UTF-8"?>
<svg version="1.1" xmlns="http://www.w3.org/2000/svg" width="1920" height="1440">
<path d="M0 0 C633.6 0 1267.2 0 1920 0 C1920 475.2 1920 950.4 1920 1440 C1286.4 1440 652.8 1440 0 1440 C0 964.8 0 489.6 0 0 Z " fill="#FEFEFE" transform="translate(0,0)"/>
<path d="M0 0 C0.33 0 0.66 0 1 0 C1 16.83 1 33.66 1 51 C124.42 51 247.84 51 375 51 C375.33 51.99 375.66 52.98 376 54 C377.299375 54.144375 378.59875 54.28875 379.9375 54.4375 C383.875 54.875 383.875 54.875 385 56 C385 59.63 385 63.26 385 67 C365.2 67 345.4 67 325 67 C325.3074865 72.83222205 325.3074865 72.83222205 328.26220703 74.9152832 C329.25075684 75.45499756 330.23930664 75.99471191 331.2578125 76.55078125 C332.35230713 77.1629248 333.44680176 77.77506836 334.57446289 78.40576172 C335.75784804 79.04157798 336.9413627 79.67715326 338.125 80.3125 C339.31690661 80.97189767 340.50758147 81.63352664 341.69702148 82.29736328 C344.0466238 83.60710231 346.40060864 84.90733505 348.75830078 86.20263672 C352.91382683 88.50667217 356.99890034 90.91338642 361.0625 93.375 C361.97056396 93.91894409 361.97056396 93.91894409 362.89697266 94.47387695 C366.86436217 96.86436217 366.86436217 96.86436217 368 98 C368.09496873 100.4035246 368.12557554 102.77807093 368.11352539 105.18188477 C368.11370619 106.32692301 368.11370619 106.32692301 368.11389065 107.49509335 C368.11314155 109.97722683 368.1055135 112.45928612 368.09765625 114.94140625 C368.09618682 116.46935998 368.09516612 117.99731422 368.09460449 119.52526855 C368.08935173 125.20435336 368.07539065 130.8834274 368.0625 136.5625 C368.041875 149.246875 368.02125 161.93125 368 175 C405.95 175 443.9 175 483 175 C483 169.72 483 164.44 483 159 C484.98 159 486.96 159 489 159 C490.75439163 160.75439163 490.11982963 163.05497456 490.12442017 165.39170837 C490.12082489 166.1642244 490.11722961 166.93674042 490.11352539 167.73266602 C490.11367142 168.5423584 490.11381744 169.35205078 490.1139679 170.1862793 C490.11326854 172.87551508 490.1054751 175.56468249 490.09765625 178.25390625 C490.09579215 180.11335716 490.09436821 181.97280856 490.09336853 183.83226013 C490.08954271 188.73629096 490.07971188 193.64029236 490.06866455 198.54431152 C490.05845181 203.54451092 490.05387121 208.54471506 490.04882812 213.54492188 C490.03808967 223.36329421 490.02101248 233.18164466 490 243 C487.69 243 485.38 243 483 243 C483 238.05 483 233.1 483 228 C445.05 228 407.1 228 368 228 C368 388.71 368 549.42 368 715 C405.95 715 443.9 715 483 715 C483 709.72 483 704.44 483 699 C484.98 699 486.96 699 489 699 C490.75439163 700.75439163 490.11982963 703.05497456 490.12442017 705.39170837 C490.12082489 706.1642244 490.11722961 706.93674042 490.11352539 707.73266602 C490.11367142 708.5423584 490.11381744 709.35205078 490.1139679 710.1862793 C490.11326854 712.87551508 490.1054751 715.56468249 490.09765625 718.25390625 C490.09579215 720.11335716 490.09436821 721.97280856 490.09336853 723.83226013 C490.08954271 728.73629096 490.07971188 733.64029236 490.06866455 738.54431152 C490.05845181 743.54451092 490.05387121 748.54471506 490.04882812 753.54492188 C490.03808967 763.36329421 490.02101248 773.18164466 490 783 C487.69 783 485.38 783 483 783 C483 778.05 483 773.1 483 768 C445.05 768 407.1 768 368 768 C368 778.56 368 789.12 368 800 C434 800 500 800 568 800 C568.33 800.66 568.66 801.32 569 802 C510.26 802.33 451.52 802.66 391 803 C403.21 815.21 415.42 827.42 428 840 C428 846.6 428 853.2 428 860 C433.22063275 859.96042843 433.22063275 859.96042843 438.44116211 859.90991211 C440.29433759 859.90276055 442.14749308 859.9497148 444 860 C445 861 445 861 445.09765625 863.06640625 C445.08605469 863.89011719 445.07445312 864.71382812 445.0625 865.5625 C445.05347656 866.38878906 445.04445313 867.21507812 445.03515625 868.06640625 C445.02355469 868.70449219 445.01195312 869.34257813 445 870 C442.36 870 439.72 870 437 870 C437.12761719 871.29292969 437.25523438 872.58585937 437.38671875 873.91796875 C438.44963816 889.41091484 438.44963816 889.41091484 433.47143555 895.54858398 C431.5163104 897.64319873 429.5074761 899.65950501 427.41894531 901.62109375 C425.35557088 903.62624495 423.63093722 905.85010158 421.875 908.125 C414.75621342 917.09524519 407.43609574 925.90292904 400.15380859 934.74047852 C396.23521766 939.49680436 392.32769294 944.26193827 388.4296875 949.03515625 C386.43958394 951.46359451 384.44410879 953.88731747 382.4453125 956.30859375 C381.81560547 957.07171875 381.18589844 957.83484375 380.53710938 958.62109375 C379.28657044 960.13604694 378.03529814 961.65039514 376.78320312 963.1640625 C375.91985352 964.21013672 375.91985352 964.21013672 375.0390625 965.27734375 C374.26876709 966.20921509 374.26876709 966.20921509 373.48291016 967.15991211 C372.9935498 967.76714111 372.50418945 968.37437012 372 969 C371.43982178 969.67732178 370.87964355 970.35464355 370.30249023 971.05249023 C368.43940378 973.83821482 369.11691358 975.83997864 369.4375 979.125 C369.29296875 982.60546875 369.29296875 982.60546875 368 986 C363.99716219 989.45064389 359.15054557 991.48834608 354.390625 993.68359375 C351.26648371 995.15808085 349.32117625 996.47373394 347.21875 999.21875 C345 1002 345 1002 342.640625 1002.84765625 C341.45726562 1002.95400391 341.45726562 1002.95400391 340.25 1003.0625 C334.90171779 1003.91245189 329.8845505 1004.99185016 326 1009 C324.95622938 1012.7053857 324.83223695 1016.16829183 325 1020 C324.01 1020 323.02 1020 322 1020 C321.67 1020.66 321.34 1021.32 321 1022 C215.4 1022 109.8 1022 1 1022 C1 1022.99 1 1023.98 1 1025 C106.6 1025 212.2 1025 321 1025 C321 1025.66 321 1026.32 321 1027 C215.4 1027 109.8 1027 1 1027 C1 1048.45 1 1069.9 1 1092 C0.67 1092 0.34 1092 0 1092 C0 1070.55 0 1049.1 0 1027 C-67.32 1027 -134.64 1027 -204 1027 C-203.01 1031.95 -202.02 1036.9 -201 1042 C-201 1043.32 -201 1044.64 -201 1046 C-201.66 1046 -202.32 1046 -203 1046 C-203 1062.17 -203 1078.34 -203 1095 C-182.87 1095 -162.74 1095 -142 1095 C-141.67 1095.66 -141.34 1096.32 -141 1097 C-162.12 1097 -183.24 1097 -205 1097 C-205 1080.17 -205 1063.34 -205 1046 C-206.32 1046 -207.64 1046 -209 1046 C-208.69127671 1043.39533457 -208.37818277 1040.79132309 -208.0625 1038.1875 C-207.97548828 1037.44951172 -207.88847656 1036.71152344 -207.79882812 1035.95117188 C-207.41783454 1032.83266879 -206.99630626 1029.98891878 -206 1027 C-235.37 1027 -264.74 1027 -295 1027 C-295 1025.35 -295 1023.7 -295 1022 C-395.98 1022 -496.96 1022 -601 1022 C-601 1021.34 -601 1020.68 -601 1020 C-496.06 1020 -391.12 1020 -283 1020 C-283 1016.37 -283 1012.74 -283 1009 C-283.845625 1008.7525 -284.69125 1008.505 -285.5625 1008.25 C-288.22732709 1007.28097197 -290.08807079 1006.39924895 -292.4375 1004.9375 C-295.16675305 1003.28304129 -296.33267466 1002.96053012 -299.6875 1002.5625 C-303 1002 -303 1002 -304.7734375 999.72265625 C-307.40273941 996.50752743 -310.33605621 994.79526402 -313.9375 992.875 C-315.15516473 992.20612372 -316.37261644 991.53685948 -317.58984375 990.8671875 C-319.67280002 989.7266914 -321.78332063 988.63285105 -323.93359375 987.625 C-324.61550781 987.08875 -325.29742188 986.5525 -326 986 C-326.3203125 983.3203125 -326.3203125 983.3203125 -326.125 980.125 C-326.44032289 971.53484002 -330.92866134 967.38422846 -336.59716797 961.49169922 C-338.57464054 959.38895689 -340.34767994 957.14781535 -342.125 954.875 C-349.24378658 945.90475481 -356.56390426 937.09707096 -363.84619141 928.25952148 C-367.76478234 923.50319564 -371.67230706 918.73806173 -375.5703125 913.96484375 C-377.56041606 911.53640549 -379.55589121 909.11268253 -381.5546875 906.69140625 C-382.18439453 905.92828125 -382.81410156 905.16515625 -383.46289062 904.37890625 C-384.71342956 902.86395306 -385.96470186 901.34960486 -387.21679688 899.8359375 C-387.79236328 899.13855469 -388.36792969 898.44117188 -388.9609375 897.72265625 C-389.47446777 897.10140869 -389.98799805 896.48016113 -390.51708984 895.84008789 C-391.0064502 895.23285889 -391.49581055 894.62562988 -392 894 C-392.55163818 893.36151123 -393.10327637 892.72302246 -393.67163086 892.06518555 C-395.27417757 889.57374231 -395.34948362 888.17314806 -395.29296875 885.234375 C-395.28330078 884.34492187 -395.27363281 883.45546875 -395.26367188 882.5390625 C-395.23853516 881.61867188 -395.21339844 880.69828125 -395.1875 879.75 C-395.17396484 878.81414063 -395.16042969 877.87828125 -395.14648438 876.9140625 C-395.11119954 874.60878673 -395.06190281 872.3046894 -395 870 C-397.64 870 -400.28 870 -403 870 C-403 866.7 -403 863.4 -403 860 C-397.72 860 -392.44 860 -387 860 C-387.16822266 858.73897461 -387.33644531 857.47794922 -387.50976562 856.17871094 C-388.18718481 848.84838852 -388.81504258 841.82573976 -384.28125 835.63085938 C-380.66412073 831.47102269 -376.63801021 827.89035679 -372.5 824.25 C-367.715 819.8775 -362.93 815.505 -358 811 C-372.19 810.67 -386.38 810.34 -401 810 C-401 825.18 -401 840.36 -401 856 C-401.66 856 -402.32 856 -403 856 C-403 840.82 -403 825.64 -403 810 C-408.94 810.99 -414.88 811.98 -421 813 C-422.98 813 -424.96 813 -427 813 C-427 812.01 -427 811.02 -427 810 C-434.92 810 -442.84 810 -451 810 C-451 809.34 -451 808.68 -451 808 C-443.08 808 -435.16 808 -427 808 C-427 807.34 -427 806.68 -427 806 C-418.89963866 806.54576903 -410.98651182 807.54147036 -403 809 C-403 806.69 -403 804.38 -403 802 C-402.34 802.33 -401.68 802.66 -401 803 C-401 804.65 -401 806.3 -401 808 C-394.43401041 808.034546 -387.86978107 808.01454529 -381.30395508 807.95727539 C-379.07222265 807.94416564 -376.84038152 807.94337383 -374.60864258 807.95532227 C-371.39296167 807.97037225 -368.18027937 807.94059197 -364.96484375 807.90234375 C-363.97290512 807.91659897 -362.98096649 807.93085419 -361.95896912 807.94554138 C-356.5756204 807.87441541 -356.5756204 807.87441541 -351.94947815 805.40565491 C-350.77225178 804.15382745 -349.62106431 802.87683606 -348.50144958 801.57322693 C-347 800 -347 800 -344.27758789 799.20532227 C-343.43446045 799.24197998 -342.59133301 799.2786377 -341.72265625 799.31640625 C-340.88742432 799.33388916 -340.05219238 799.35137207 -339.19165039 799.36938477 C-338.15903076 799.43311279 -337.12641113 799.49684082 -336.0625 799.5625 C-332.741875 799.706875 -329.42125 799.85125 -326 800 C-326 789.44 -326 778.88 -326 768 C-363.95 768 -401.9 768 -441 768 C-441 772.95 -441 777.9 -441 783 C-443.31 783 -445.62 783 -448 783 C-448 755.28 -448 727.56 -448 699 C-446.02 699 -444.04 699 -442 699 C-438.22140532 702.77859468 -441 709.65626015 -441 715 C-403.05 715 -365.1 715 -326 715 C-326.1053856 678.32750602 -326.21431307 641.65503051 -326.33111694 604.98257149 C-326.3448873 600.65773332 -326.35861428 596.33289503 -326.37231445 592.00805664 C-326.37504276 591.1470219 -326.37777106 590.28598715 -326.38058204 589.39886045 C-326.42471433 575.43831287 -326.46532818 561.47775715 -326.50465261 547.51719529 C-326.5450502 533.20331087 -326.58920362 518.88944163 -326.63687855 504.57557958 C-326.66620139 495.73586907 -326.69255855 486.89615975 -326.71517897 478.0564295 C-326.73094905 472.00314043 -326.75035152 465.94986996 -326.77266841 459.89660151 C-326.78545469 456.39884328 -326.79658397 452.90109947 -326.80341911 449.40332413 C-326.81085359 445.6201393 -326.82590866 441.83700764 -326.84178162 438.05384827 C-326.84324878 436.37732787 -326.84324878 436.37732787 -326.84474558 434.66693836 C-326.85022002 433.66172939 -326.85569446 432.65652042 -326.8613348 431.62085056 C-326.86399284 430.74635464 -326.86665089 429.87185872 -326.86938947 428.97086293 C-326.78280807 426.99759152 -326.78280807 426.99759152 -328 426 C-328.10037731 423.44948526 -328.13617487 420.92602821 -328.12939453 418.375 C-328.13202301 417.17750122 -328.13202301 417.17750122 -328.13470459 415.95581055 C-328.13912367 413.3038519 -328.13618492 410.65195938 -328.1328125 408 C-328.13348552 406.16536445 -328.13445553 404.33072899 -328.13571167 402.49609375 C-328.13718872 398.64582472 -328.13503386 394.79557884 -328.13037109 390.9453125 C-328.1246738 385.99843503 -328.12795277 381.05161181 -328.13394356 376.10473633 C-328.13754898 372.31477445 -328.13641067 368.52482554 -328.13381577 364.73486328 C-328.13314644 362.91031895 -328.1339751 361.08577345 -328.13629532 359.26123047 C-328.13882154 356.71578839 -328.1349817 354.17043541 -328.12939453 351.625 C-328.13141876 350.86340576 -328.13344299 350.10181152 -328.13552856 349.31713867 C-328.11426258 344.11426258 -328.11426258 344.11426258 -327 343 C-326.87588418 340.76142644 -326.82196977 338.51894516 -326.79467773 336.27709961 C-326.78477814 335.5746965 -326.77487854 334.8722934 -326.76467896 334.14860535 C-326.73297878 331.81655296 -326.70827312 329.48448016 -326.68359375 327.15234375 C-326.66303156 325.53950965 -326.64203529 323.92668104 -326.62062073 322.31385803 C-326.56532408 318.06090725 -326.51594844 313.80790723 -326.46777344 309.55487061 C-326.40880065 304.45622093 -326.34253108 299.35766158 -326.27747345 294.25908661 C-326.17936845 286.50611273 -326.09057789 278.75308195 -326 271 C-344.15 271 -362.3 271 -381 271 C-381 274.3 -381 277.6 -381 281 C-383.31 281 -385.62 281 -388 281 C-388 265.49 -388 249.98 -388 234 C-389.32 234 -390.64 234 -392 234 C-392 232.02 -392 230.04 -392 228 C-408.17 228 -424.34 228 -441 228 C-441 232.95 -441 237.9 -441 243 C-443.31 243 -445.62 243 -448 243 C-448 215.28 -448 187.56 -448 159 C-446.02 159 -444.04 159 -442 159 C-438.22140532 162.77859468 -441 169.65626015 -441 175 C-424.83 175 -408.66 175 -392 175 C-392 169.39 -392 163.78 -392 158 C-390.68 158 -389.36 158 -388 158 C-388 142.49 -388 126.98 -388 111 C-386.02 111 -384.04 111 -382 111 C-381 112 -381 112 -381 121 C-362.85 121 -344.7 121 -326 121 C-326 113.08 -326 105.16 -326 97 C-321.77124938 92.40553879 -320.43944989 91.25567169 -315.0625 89.125 C-312.86278393 88.06353 -310.6635683 87.00102232 -308.46484375 85.9375 C-307.37155762 85.45023437 -306.27827148 84.96296875 -305.15185547 84.4609375 C-300.59678838 82.34958805 -296.38669988 79.76667821 -292.125 77.125 C-285.31506556 73 -285.31506556 73 -283 73 C-283 71.02 -283 69.04 -283 67 C-296.53 67 -310.06 67 -324 67 C-324 66.34 -324 65.68 -324 65 C-217.08 65 -110.16 65 0 65 C0 62.36 0 59.72 0 57 C-92.73 57 -185.46 57 -281 57 C-281 56.34 -281 55.68 -281 55 C-188.27 55 -95.54 55 0 55 C0 54.34 0 53.68 0 53 C-92.73 53 -185.46 53 -281 53 C-281 52.34 -281 51.68 -281 51 C-188.27 51 -95.54 51 0 51 C0 34.17 0 17.34 0 0 Z M-278 67 C-278 311.86 -278 556.72 -278 809 C-271.73 808.01 -265.46 807.02 -259 806 C-259 806.66 -259 807.32 -259 808 C-227.815 808.495 -227.815 808.495 -196 809 C-216.79 809.33 -237.58 809.66 -259 810 C-259 810.99 -259 811.98 -259 813 C-268.405 811.515 -268.405 811.515 -278 810 C-278 879.3 -278 948.6 -278 1020 C-253.91 1020 -229.82 1020 -205 1020 C-205 1014.06 -205 1008.12 -205 1002 C-228.76 1002 -252.52 1002 -277 1002 C-277 1001.34 -277 1000.68 -277 1000 C-250.93 1000.33 -224.86 1000.66 -198 1001 C-199.65 1001.33 -201.3 1001.66 -203 1002 C-203 1007.94 -203 1013.88 -203 1020 C-30.41 1020 142.18 1020 320 1020 C320 705.51 320 391.02 320 67 C122.66 67 -74.68 67 -278 67 Z " fill="#090B0D" transform="translate(921,171)"/>
<path d="M0 0 C0.33 0 0.66 0 1 0 C1 244.86 1 489.72 1 742 C5.95 741.01 10.9 740.02 16 739 C17.98 739 19.96 739 22 739 C22 739.66 22 740.32 22 741 C42.79 741 63.58 741 85 741 C85.33 741.66 85.66 742.32 86 743 C64.88 743 43.76 743 22 743 C22 743.99 22 744.98 22 746 C20.18693869 745.88342415 18.374561 745.75621041 16.5625 745.625 C15.04849609 745.52058594 15.04849609 745.52058594 13.50390625 745.4140625 C9.28830225 744.91589748 5.14385203 743.92085601 1 743 C1.495 847.445 1.495 847.445 2 954 C94.07 954.33 186.14 954.66 281 955 C281 955.99 281 956.98 281 958 C213.68 958 146.36 958 77 958 C77.99 963.61 78.98 969.22 80 975 C80 976.32 80 977.64 80 979 C79.34 979 78.68 979 78 979 C78 995.17 78 1011.34 78 1028 C98.13 1028 118.26 1028 139 1028 C139.33 1028.66 139.66 1029.32 140 1030 C118.88 1030 97.76 1030 76 1030 C76 1013.17 76 996.34 76 979 C74.68 979 73.36 979 72 979 C72.30872329 976.39533457 72.62181723 973.79132309 72.9375 971.1875 C73.02451172 970.44951172 73.11152344 969.71152344 73.20117188 968.95117188 C73.58216546 965.83266879 74.00369374 962.98891878 75 960 C45.63 960 16.26 960 -14 960 C-14 958.35 -14 956.7 -14 955 C-114.98 955 -215.96 955 -320 955 C-320 954.34 -320 953.68 -320 953 C-215.06 953 -110.12 953 -2 953 C-2 949.37 -2 945.74 -2 942 C-2.845625 941.7525 -3.69125 941.505 -4.5625 941.25 C-7.22732709 940.28097197 -9.08807079 939.39924895 -11.4375 937.9375 C-14.16675305 936.28304129 -15.33267466 935.96053012 -18.6875 935.5625 C-22 935 -22 935 -23.7734375 932.72265625 C-26.40273941 929.50752743 -29.33605621 927.79526402 -32.9375 925.875 C-34.15516473 925.20612372 -35.37261644 924.53685948 -36.58984375 923.8671875 C-38.67280002 922.7266914 -40.78332063 921.63285105 -42.93359375 920.625 C-43.61550781 920.08875 -44.29742188 919.5525 -45 919 C-45.3203125 916.3203125 -45.3203125 916.3203125 -45.125 913.125 C-45.44032289 904.53484002 -49.92866134 900.38422846 -55.59716797 894.49169922 C-57.57464054 892.38895689 -59.34767994 890.14781535 -61.125 887.875 C-68.24378658 878.90475481 -75.56390426 870.09707096 -82.84619141 861.25952148 C-86.76478234 856.50319564 -90.67230706 851.73806173 -94.5703125 846.96484375 C-96.56041606 844.53640549 -98.55589121 842.11268253 -100.5546875 839.69140625 C-101.18439453 838.92828125 -101.81410156 838.16515625 -102.46289062 837.37890625 C-103.71342956 835.86395306 -104.96470186 834.34960486 -106.21679688 832.8359375 C-106.79236328 832.13855469 -107.36792969 831.44117188 -107.9609375 830.72265625 C-108.47446777 830.10140869 -108.98799805 829.48016113 -109.51708984 828.84008789 C-110.0064502 828.23285889 -110.49581055 827.62562988 -111 827 C-111.55163818 826.36151123 -112.10327637 825.72302246 -112.67163086 825.06518555 C-114.27417757 822.57374231 -114.34948362 821.17314806 -114.29296875 818.234375 C-114.28330078 817.34492187 -114.27363281 816.45546875 -114.26367188 815.5390625 C-114.23853516 814.61867188 -114.21339844 813.69828125 -114.1875 812.75 C-114.17396484 811.81414063 -114.16042969 810.87828125 -114.14648438 809.9140625 C-114.11119954 807.60878673 -114.06190281 805.3046894 -114 803 C-116.64 803 -119.28 803 -122 803 C-122 799.7 -122 796.4 -122 793 C-116.72 793 -111.44 793 -106 793 C-106.16822266 791.73897461 -106.33644531 790.47794922 -106.50976562 789.17871094 C-107.18718481 781.84838852 -107.81504258 774.82573976 -103.28125 768.63085938 C-99.66412073 764.47102269 -95.63801021 760.89035679 -91.5 757.25 C-86.715 752.8775 -81.93 748.505 -77 744 C-91.19 743.67 -105.38 743.34 -120 743 C-120 758.18 -120 773.36 -120 789 C-120.66 789 -121.32 789 -122 789 C-122 773.82 -122 758.64 -122 743 C-127.94 743.99 -133.88 744.98 -140 746 C-141.98 746 -143.96 746 -146 746 C-146 745.01 -146 744.02 -146 743 C-153.92 743 -161.84 743 -170 743 C-170 742.34 -170 741.68 -170 741 C-162.08 741 -154.16 741 -146 741 C-146 740.34 -146 739.68 -146 739 C-137.89963866 739.54576903 -129.98651182 740.54147036 -122 742 C-122 739.69 -122 737.38 -122 735 C-121.34 735.33 -120.68 735.66 -120 736 C-120 737.65 -120 739.3 -120 741 C-112.97028123 740.98371938 -105.94161663 740.9289178 -98.91235352 740.84741211 C-96.52147253 740.82422486 -94.1304893 740.80983472 -91.73950195 740.80444336 C-88.3009463 740.79515962 -84.86400056 740.75417832 -81.42578125 740.70703125 C-79.82395744 740.71293022 -79.82395744 740.71293022 -78.18977356 740.71894836 C-72.09022518 740.68949868 -72.09022518 740.68949868 -67.07617188 737.48632812 C-66.39103516 736.66583984 -65.70589844 735.84535156 -65 735 C-62.68823242 734.43237305 -62.68823242 734.43237305 -60.35546875 734.51171875 C-59.51435547 734.52783203 -58.67324219 734.54394531 -57.80664062 734.56054688 C-56.51016602 734.62338867 -56.51016602 734.62338867 -55.1875 734.6875 C-54.30384766 734.71005859 -53.42019531 734.73261719 -52.50976562 734.75585938 C-50.3391109 734.81452572 -48.1693331 734.90420021 -46 735 C-46 736.98 -46 738.96 -46 741 C-45.01 741 -44.02 741 -43 741 C-43 727.8 -43 714.6 -43 701 C-29.47 701 -15.94 701 -2 701 C-1.67 712.22 -1.34 723.44 -1 735 C-0.67 492.45 -0.34 249.9 0 0 Z " fill="#ACD5FF" transform="translate(640,238)"/>
<path d="M0 0 C13.53 0 27.06 0 41 0 C41 160.71 41 321.42 41 487 C27.47 487 13.94 487 0 487 C0 326.29 0 165.58 0 0 Z " fill="#FFFFFF" transform="translate(1246,399)"/>
<path d="M0 0 C13.53 0 27.06 0 41 0 C41 160.71 41 321.42 41 487 C27.47 487 13.94 487 0 487 C0 326.29 0 165.58 0 0 Z " fill="#FFFFFF" transform="translate(597,399)"/>
<path d="M0 0 C36.3 0 72.6 0 110 0 C110 42.9 110 85.8 110 130 C103.4 130 96.8 130 90 130 C83.31674208 123.17750754 83.31674208 123.17750754 81.5 119.9921875 C79.04569513 115.94415271 76.14817057 112.52119079 73 109 C68.5382084 103.87810381 64.30334285 98.61930143 60.14453125 93.25 C56.88018754 89.05966768 53.48227535 85.01043537 50 81 C45.5462293 75.87072166 41.30374782 70.61982428 37.14453125 65.25 C33.88018336 61.05966231 30.48219389 57.01051132 27 53 C22.50756717 47.82421935 18.16610993 42.56106615 14.02807617 37.09619141 C11.85880537 34.25216843 9.68628872 31.621614 7.08984375 29.15625 C-2.8356612 19.21678513 0 16.5794363 0 0 Z " fill="#FFFFFF" transform="translate(528,1041)"/>
<path d="M0 0 C36.3 0 72.6 0 110 0 C110 22.11221228 110 22.11221228 101.9453125 30.1875 C101.44161133 30.66058594 100.93791016 31.13367187 100.41894531 31.62109375 C98.35557088 33.62624495 96.63093722 35.85010158 94.875 38.125 C87.75621342 47.09524519 80.43609574 55.90292904 73.15380859 64.74047852 C69.23638214 69.49539094 65.3296316 74.25878776 61.43359375 79.03125 C59.43150151 81.47360971 57.42275352 83.91005706 55.41015625 86.34375 C54.7759375 87.11138672 54.14171875 87.87902344 53.48828125 88.66992188 C52.22514142 90.1982442 50.96085716 91.72562155 49.6953125 93.25195312 C48.82712891 94.30286133 48.82712891 94.30286133 47.94140625 95.375 C47.42263916 96.00148438 46.90387207 96.62796875 46.36938477 97.2734375 C45.16705035 98.78937778 44.07326719 100.39009922 43 102 C42.34 102 41.68 102 41 102 C40.7525 102.7321875 40.505 103.464375 40.25 104.21875 C38.43147124 108.26497648 35.56696231 110.90893064 32.51953125 114.0859375 C30.24741858 116.71383836 28.62773247 119.14622924 27.01049805 122.18603516 C25.03822673 125.07656456 22.43392514 127.48583557 20 130 C13.4 130 6.8 130 0 130 C0 87.1 0 44.2 0 0 Z " fill="#FFFFFF" transform="translate(1246,1041)"/>
<path d="M0 0 C52.14 0 104.28 0 158 0 C158 16.17 158 32.34 158 49 C105.86 49 53.72 49 0 49 C0 32.83 0 16.66 0 0 Z " fill="#FFFFFF" transform="translate(1246,888)"/>
<path d="M0 0 C52.14 0 104.28 0 158 0 C158 16.17 158 32.34 158 49 C105.86 49 53.72 49 0 49 C0 32.83 0 16.66 0 0 Z " fill="#FFFFFF" transform="translate(480,888)"/>
<path d="M0 0 C52.14 0 104.28 0 158 0 C158 16.17 158 32.34 158 49 C105.86 49 53.72 49 0 49 C0 32.83 0 16.66 0 0 Z " fill="#FFFFFF" transform="translate(1246,348)"/>
<path d="M0 0 C52.14 0 104.28 0 158 0 C158 16.17 158 32.34 158 49 C105.86 49 53.72 49 0 49 C0 32.83 0 16.66 0 0 Z " fill="#FFFFFF" transform="translate(480,348)"/>
<path d="M0 0 C13.53 0 27.06 0 41 0 C41 30.36 41 60.72 41 92 C27.47 92 13.94 92 0 92 C0 61.64 0 31.28 0 0 Z " fill="#FFFFFF" transform="translate(1246,939)"/>
<path d="M0 0 C0 33 0 66 0 100 C-13.53 100 -27.06 100 -41 100 C-42.08293785 81.42516474 -42.08293785 81.42516474 -42.31835938 73.41015625 C-42.4789843 67.96773457 -42.66714845 62.53773236 -43.03686523 57.10498047 C-44.92454093 28.62750562 -44.92454093 28.62750562 -39.83716583 21.33258057 C-33.86434103 14.86194612 -25.55179134 11.53218978 -17.48648071 8.44116211 C-12.81084534 6.50845429 -8.61757581 3.97876635 -4.32304382 1.32141113 C-2 0 -2 0 0 0 Z " fill="#FFFFFF" transform="translate(638,246)"/>
<path d="M0 0 C12.36494456 6.74451522 12.36494456 6.74451522 18.12890625 10.05078125 C18.73008774 10.39505661 19.33126923 10.73933197 19.95066833 11.09403992 C21.82188892 12.16579986 23.69225692 13.23903537 25.5625 14.3125 C27.46500065 15.40360111 29.3676898 16.49437033 31.27073669 17.58451843 C32.9733019 18.55994054 34.67526707 19.53640978 36.37719727 20.51293945 C37.89934975 21.3759601 39.43494337 22.21747169 41 23 C41 48.41 41 73.82 41 100 C27.47 100 13.94 100 0 100 C0 67 0 34 0 0 Z " fill="#FFFFFF" transform="translate(1246,246)"/>
<path d="M0 0 C0.33 0 0.66 0 1 0 C1 314.49 1 628.98 1 953 C64.36 953 127.72 953 193 953 C193.33 953.66 193.66 954.32 194 955 C192.02 955 190.04 955 188 955 C188 955.99 188 956.98 188 958 C189.65 958 191.3 958 193 958 C193.33 958.66 193.66 959.32 194 960 C129.65 960 65.3 960 -1 960 C-1 959.34 -1 958.68 -1 958 C-106.6 958 -212.2 958 -321 958 C-321 957.01 -321 956.02 -321 955 C-215.4 955 -109.8 955 -1 955 C-0.67 639.85 -0.34 324.7 0 0 Z " fill="#8BC4FE" transform="translate(1243,238)"/>
<path d="M0 0 C126.06 0 252.12 0 382 0 C382 2.64 382 5.28 382 8 C255.94 8 129.88 8 0 8 C0 5.36 0 2.72 0 0 Z " fill="#FFFFFF" transform="translate(922,228)"/>
<path d="M0 0 C18.15 0 36.3 0 55 0 C55 17.16 55 34.32 55 52 C36.85 52 18.7 52 0 52 C0 34.84 0 17.68 0 0 Z " fill="#FFFFFF" transform="translate(540,294)"/>
<path d="M0 0 C21.18558259 0 21.18558259 0 27.09880066 5.45881653 C27.85381363 6.25228989 28.6088266 7.04576324 29.38671875 7.86328125 C30.2254805 8.6838652 31.06424225 9.50444916 31.92842102 10.34989929 C33.67432462 12.08297762 35.39688385 13.83987333 37.09594727 15.61889648 C39.68627426 18.311226 42.36288107 20.88664932 45.06445312 23.46679688 C46.76133278 25.17623392 48.45230778 26.89155676 50.13671875 28.61328125 C50.93019211 29.36829422 51.72366547 30.12330719 52.54118347 30.90119934 C60.76938399 39.81432981 58 43.96184682 58 58 C38.86 58 19.72 58 0 58 C0 38.86 0 19.72 0 0 Z " fill="#FFFFFF" transform="translate(1289,973)"/>
<path d="M0 0 C0 16.5 0 33 0 50 C-19.14 50 -38.28 50 -58 50 C-58 28.79731289 -58 28.79731289 -53.96328735 24.12139893 C-53.37083221 23.54122009 -52.77837708 22.96104126 -52.16796875 22.36328125 C-51.24448135 21.36938385 -51.24448135 21.36938385 -50.30233765 20.35540771 C-48.31888736 18.27666552 -46.26828136 16.29346138 -44.1875 14.3125 C-43.49703583 13.62598358 -42.80657166 12.93946716 -42.09518433 12.23214722 C-28.28785836 -1.33383874 -19.54864295 -3.27571855 0 0 Z " fill="#FFFFFF" transform="translate(594,981)"/>
<path d="M0 0 C0.99 0.33 1.98 0.66 3 1 C2.09644775 1.80928955 1.19289551 2.6185791 0.26196289 3.45239258 C-3.12618973 6.51103716 -6.45133266 9.63197795 -9.76245117 12.77368164 C-11.19466122 14.11618766 -12.64271898 15.44201527 -14.10717773 16.74926758 C-16.23025495 18.65008628 -18.28599224 20.60690405 -20.33984375 22.58203125 C-20.99089584 23.14018021 -21.64194794 23.69832916 -22.31272888 24.27339172 C-29.9813521 31.9246542 -27.36145839 37.86770937 -28 50 C-8.86 50 10.28 50 30 50 C30 33.5 30 17 30 0 C30.99 0 31.98 0 33 0 C33 16.5 33 33 33 50 C46.53 50 60.06 50 74 50 C74 48.68 74 47.36 74 46 C74.66 46 75.32 46 76 46 C76 100.12 76 154.24 76 210 C75.34 210 74.68 210 74 210 C74 206.37 74 202.74 74 199 C72.7315625 198.62875 72.7315625 198.62875 71.4375 198.25 C68.77267291 197.28097197 66.91192921 196.39924895 64.5625 194.9375 C61.83324695 193.28304129 60.66732534 192.96053012 57.3125 192.5625 C54 192 54 192 52.2265625 189.72265625 C49.59726059 186.50752743 46.66394379 184.79526402 43.0625 182.875 C41.84483527 182.20612372 40.62738356 181.53685948 39.41015625 180.8671875 C37.32719998 179.7266914 35.21667937 178.63285105 33.06640625 177.625 C32.38449219 177.08875 31.70257812 176.5525 31 176 C30.6796875 173.3203125 30.6796875 173.3203125 30.875 170.125 C30.55967711 161.53484002 26.07133866 157.38422846 20.40283203 151.49169922 C18.42535946 149.38895689 16.65232006 147.14781535 14.875 144.875 C7.75621342 135.90475481 0.43609574 127.09707096 -6.84619141 118.25952148 C-10.76478234 113.50319564 -14.67230706 108.73806173 -18.5703125 103.96484375 C-20.56041606 101.53640549 -22.55589121 99.11268253 -24.5546875 96.69140625 C-25.49924805 95.54671875 -25.49924805 95.54671875 -26.46289062 94.37890625 C-27.71342956 92.86395306 -28.96470186 91.34960486 -30.21679688 89.8359375 C-30.79236328 89.13855469 -31.36792969 88.44117188 -31.9609375 87.72265625 C-32.73123291 86.79078491 -32.73123291 86.79078491 -33.51708984 85.84008789 C-34.0064502 85.23285889 -34.49581055 84.62562988 -35 84 C-35.55163818 83.36151123 -36.10327637 82.72302246 -36.67163086 82.06518555 C-38.27417757 79.57374231 -38.34948362 78.17314806 -38.29296875 75.234375 C-38.28330078 74.34492187 -38.27363281 73.45546875 -38.26367188 72.5390625 C-38.23853516 71.61867188 -38.21339844 70.69828125 -38.1875 69.75 C-38.17396484 68.81414062 -38.16042969 67.87828125 -38.14648438 66.9140625 C-38.11119954 64.60878673 -38.06190281 62.3046894 -38 60 C-40.64 60 -43.28 60 -46 60 C-46 56.7 -46 53.4 -46 50 C-40.72 50 -35.44 50 -30 50 C-30.17402344 48.74477539 -30.34804688 47.48955078 -30.52734375 46.19628906 C-31.23966383 38.7689824 -31.80611805 31.79148798 -27.1875 25.53710938 C-23.4558081 21.25074082 -19.25684797 17.50212103 -15 13.75 C-13.55014685 12.40069595 -12.10478507 11.04654895 -10.6640625 9.6875 C-7.1586197 6.40024894 -3.59910007 3.18431017 0 0 Z M-36 60 C-37.25877684 78.4836717 -37.25877684 78.4836717 -27.9453125 90.1875 C-27.44161133 90.66058594 -26.93791016 91.13367187 -26.41894531 91.62109375 C-24.35557088 93.62624495 -22.63093722 95.85010158 -20.875 98.125 C-13.75621342 107.09524519 -6.43609574 115.90292904 0.84619141 124.74047852 C4.77241274 129.50606602 8.68691613 134.28100183 12.59375 139.0625 C15.72176153 142.88111148 18.86084917 146.69054423 22 150.5 C26.5333344 156.00134026 31.05838196 161.50913329 35.56640625 167.03125 C37.56849849 169.47360971 39.57724648 171.91005706 41.58984375 174.34375 C42.2240625 175.11138672 42.85828125 175.87902344 43.51171875 176.66992188 C44.77485858 178.1982442 46.03914284 179.72562155 47.3046875 181.25195312 C47.88347656 181.95255859 48.46226562 182.65316406 49.05859375 183.375 C49.57736084 184.00148438 50.09612793 184.62796875 50.63061523 185.2734375 C51.83294965 186.78937778 52.92673281 188.39009922 54 190 C60.6 190 67.2 190 74 190 C74 147.1 74 104.2 74 60 C37.7 60 1.4 60 -36 60 Z " fill="#000000" transform="translate(564,981)"/>
<path d="M0 0 C18.15 0 36.3 0 55 0 C55 13.53 55 27.06 55 41 C36.85 41 18.7 41 0 41 C0 27.47 0 13.94 0 0 Z " fill="#FFFFFF" transform="translate(540,399)"/>
<path d="M0 0 C13.53 0 27.06 0 41 0 C41 16.5 41 33 41 50 C27.47 50 13.94 50 0 50 C0 33.5 0 17 0 0 Z " fill="#FFFFFF" transform="translate(597,981)"/>
<path d="M0 0 C40.87647972 -0.02286471 81.7529586 -0.04049738 122.62944343 -0.05106533 C127.44998378 -0.05231611 132.27052412 -0.05361042 137.09106445 -0.05493164 C138.05078948 -0.05519395 139.01051452 -0.05545626 139.99932212 -0.05572652 C155.56034443 -0.06008357 171.12136305 -0.06797131 186.68238317 -0.0771528 C202.63703285 -0.08648836 218.5916806 -0.0920554 234.5463329 -0.09408849 C244.39946648 -0.09546393 254.25258967 -0.09981559 264.10572005 -0.10791647 C270.85281507 -0.11318273 277.59990468 -0.11480457 284.3470016 -0.11350138 C288.24577063 -0.11285781 292.14452145 -0.11387762 296.04328728 -0.11920547 C300.25998501 -0.12492606 304.47664343 -0.12300128 308.69334412 -0.12025452 C309.93942568 -0.12316736 311.18550724 -0.1260802 312.46934885 -0.12908131 C313.58950988 -0.12709026 314.7096709 -0.12509921 315.86377621 -0.12304783 C316.83851829 -0.12342755 317.81326038 -0.12380727 318.81754011 -0.1241985 C321 0 321 0 322 1 C323.49067672 1.10176808 324.98615506 1.13397718 326.48029423 1.1386652 C327.45415264 1.14413964 328.42801106 1.14961409 329.43138033 1.15525442 C330.51404206 1.15623253 331.5967038 1.15721064 332.71217346 1.15821838 C333.852339 1.16315636 334.99250453 1.16809434 336.16722053 1.17318195 C339.34600221 1.18593865 342.52476007 1.19419609 345.70355976 1.20060861 C349.12621826 1.20859025 352.54885423 1.22229566 355.97149658 1.23532104 C361.90612142 1.25711565 367.8407485 1.27524918 373.77539253 1.29092598 C382.35598794 1.31359751 390.93655843 1.34174404 399.51713275 1.37124526 C413.43711073 1.41895457 427.35709886 1.46220967 441.27709961 1.50268555 C454.80249828 1.54202351 468.32788792 1.58344563 481.85327148 1.62768555 C482.68638053 1.63040982 483.51948957 1.63313409 484.37784434 1.63594092 C488.5571297 1.64962011 492.73641492 1.66334044 496.91570008 1.67708123 C531.610448 1.79109844 566.30521505 1.89789616 601 2 C601 2.99 601 3.98 601 5 C533.68 5 466.36 5 397 5 C397.99 10.61 398.98 16.22 400 22 C400 23.32 400 24.64 400 26 C399.34 26 398.68 26 398 26 C398 42.17 398 58.34 398 75 C418.13 75 438.26 75 459 75 C459.33 75.66 459.66 76.32 460 77 C438.88 77 417.76 77 396 77 C396 60.17 396 43.34 396 26 C394.68 26 393.36 26 392 26 C392.30872329 23.39533457 392.62181723 20.79132309 392.9375 18.1875 C393.02451172 17.44951172 393.11152344 16.71152344 393.20117188 15.95117188 C393.58216546 12.83266879 394.00369374 9.98891878 395 7 C365.63 7 336.26 7 306 7 C306 5.35 306 3.7 306 2 C205.02 2 104.04 2 0 2 C0 1.34 0 0.68 0 0 Z " fill="#0080FF" transform="translate(320,1191)"/>
<path d="M0 0 C0.66 0.33 1.32 0.66 2 1 C2 2.65 2 4.3 2 6 C15.53 6 29.06 6 43 6 C43 4.02 43 2.04 43 0 C43.99 0.495 43.99 0.495 45 1 C45 2.98 45 4.96 45 7 C46.62808594 6.67515625 46.62808594 6.67515625 48.2890625 6.34375 C49.7343179 6.06220674 51.17963365 5.78097314 52.625 5.5 C53.33785156 5.35691406 54.05070313 5.21382812 54.78515625 5.06640625 C58.92144935 4.26950574 62.76433679 3.83965944 67 4 C67 4.66 67 5.32 67 6 C82.18 6 97.36 6 113 6 C113.33 6.66 113.66 7.32 114 8 C98.49 8 82.98 8 67 8 C67 8.99 67 9.98 67 11 C65.20779424 10.88298313 63.41624915 10.75584692 61.625 10.625 C60.12839844 10.52058594 60.12839844 10.52058594 58.6015625 10.4140625 C54.02698538 9.88813498 49.51528979 8.90305796 45 8 C45 32.75 45 57.5 45 83 C137.73 83 230.46 83 326 83 C326 83.66 326 84.32 326 85 C233.27 85 140.54 85 45 85 C45 86.98 45 88.96 45 91 C44.34 91 43.68 91 43 91 C43 89.68 43 88.36 43 87 C29.47 87 15.94 87 2 87 C2 98.88 2 110.76 2 123 C1.34 123 0.68 123 0 123 C0 114.42 0 105.84 0 97 C-5.94 97 -11.88 97 -18 97 C-18 93.04 -18 89.08 -18 85 C-15.36 85 -12.72 85 -10 85 C-9.34 83.68 -8.68 82.36 -8 81 C-5.36 81 -2.72 81 0 81 C0 56.91 0 32.82 0 8 C-8.91 9.485 -8.91 9.485 -18 11 C-19.98 11 -21.96 11 -24 11 C-24 10.01 -24 9.02 -24 8 C-31.92 8 -39.84 8 -48 8 C-48 7.34 -48 6.68 -48 6 C-40.08 6 -32.16 6 -24 6 C-24 5.34 -24 4.68 -24 4 C-15.89963866 4.54576903 -7.98651182 5.54147036 0 7 C0 4.69 0 2.38 0 0 Z M2 8 C2 32.09 2 56.18 2 81 C15.53 81 29.06 81 43 81 C43 56.91 43 32.82 43 8 C29.47 8 15.94 8 2 8 Z " fill="#7DAEDF" transform="translate(595,141)"/>
<path d="M0 0 C13.53 0 27.06 0 41 0 C41 13.2 41 26.4 41 40 C27.47 40 13.94 40 0 40 C0 26.8 0 13.6 0 0 Z " fill="#FFFFFF" transform="translate(597,939)"/>
<path d="M0 0 C2.77003192 0.0097097 5.54006394 0.01939028 8.31009597 0.0290677 C55.71064213 0.1948643 103.11112408 0.37559641 150.51155251 0.57217997 C150.51155251 1.23217997 150.51155251 1.89217997 150.51155251 2.57217997 C44.91155251 2.57217997 -60.68844749 2.57217997 -169.48844749 2.57217997 C-169.48844749 24.02217997 -169.48844749 45.47217997 -169.48844749 67.57217997 C-169.81844749 67.57217997 -170.14844749 67.57217997 -170.48844749 67.57217997 C-170.48844749 46.12217997 -170.48844749 24.67217997 -170.48844749 2.57217997 C-237.80844749 2.57217997 -305.12844749 2.57217997 -374.48844749 2.57217997 C-374.48844749 1.91217997 -374.48844749 1.25217997 -374.48844749 0.57217997 C-347.1761529 0.35253201 -319.86364533 0.17111349 -292.55094749 0.00967997 C-291.47685693 0.00329713 -290.40276637 -0.00308571 -289.29612762 -0.00966197 C-198.36914038 -0.54725835 -107.44734778 -0.36953542 0 0 Z " fill="#000000" transform="translate(1091.4884474873543,1195.4278200268745)"/>
<path d="M0 0 C110.22 0 220.44 0 334 0 C334 0.99 334 1.98 334 3 C223.78 3 113.56 3 0 3 C0 2.01 0 1.02 0 0 Z " fill="#FFFFFF" transform="translate(922,1193)"/>
<path d="M0 0 C96.69 0 193.38 0 293 0 C293 0.99 293 1.98 293 3 C196.31 3 99.62 3 0 3 C0 2.01 0 1.02 0 0 Z " fill="#FFFFFF" transform="translate(628,1193)"/>
<path d="M0 0 C38.94 0 77.88 0 118 0 C118 1.98 118 3.96 118 6 C79.06 6 40.12 6 0 6 C0 4.02 0 2.04 0 0 Z " fill="#FFFFFF" transform="translate(1246,1033)"/>
<path d="M0 0 C38.94 0 77.88 0 118 0 C118 1.98 118 3.96 118 6 C79.06 6 40.12 6 0 6 C0 4.02 0 2.04 0 0 Z " fill="#FFFFFF" transform="translate(520,1033)"/>
<path d="M0 0 C53.46 0 106.92 0 162 0 C162.33 0.66 162.66 1.32 163 2 C161.02 2 159.04 2 157 2 C157 4.64 157 7.28 157 10 C158.65 10 160.3 10 162 10 C162.33 10.66 162.66 11.32 163 12 C109.21 12 55.42 12 0 12 C0 11.34 0 10.68 0 10 C51.15 10 102.3 10 155 10 C155 7.36 155 4.72 155 2 C103.85 2 52.7 2 0 2 C0 1.34 0 0.68 0 0 Z " fill="#0080FF" transform="translate(1310,226)"/>
<path d="M0 0 C56.43 0 112.86 0 171 0 C171 0.99 171 1.98 171 3 C114.57 3 58.14 3 0 3 C0 2.01 0 1.02 0 0 Z " fill="#FFFFFF" transform="translate(1258,1193)"/>
<path d="M0 0 C0 7.26 0 14.52 0 22 C1.32 22 2.64 22 4 22 C4 22.66 4 23.32 4 24 C5.65 24 7.3 24 9 24 C9.09410156 23.25363281 9.18820312 22.50726562 9.28515625 21.73828125 C10.10620652 18.59316519 11.15033249 17.44613735 13.4375 15.1875 C17.09962473 11.24771417 18.15320399 8.26895295 19 3 C15.4780279 2.91995518 12.38018531 2.95994298 9 4 C9.33 2.68 9.66 1.36 10 0 C13.37938363 -0.28531381 16.62847568 -0.42211701 20 0 C22.25 2.0625 22.25 2.0625 23 5 C22.24214215 11.69441098 18.54112475 15.20659054 14 20 C17.3 20.33 20.6 20.66 24 21 C24 21.99 24 22.98 24 24 C25.32 24.33 26.64 24.66 28 25 C28 25.33 28 25.66 28 26 C8.2 26 -11.6 26 -32 26 C-32 33.92 -32 41.84 -32 50 C-31.34 50 -30.68 50 -30 50 C-30.99 56.6 -31.98 63.2 -33 70 C-33.66 70 -34.32 70 -35 70 C-35.99 63.4 -36.98 56.8 -38 50 C-36.68 50 -35.36 50 -34 50 C-34 41.42 -34 32.84 -34 24 C-25.09 24 -16.18 24 -7 24 C-7 23.34 -7 22.68 -7 22 C-5.68 22 -4.36 22 -3 22 C-3 16.39 -3 10.78 -3 5 C-4.32 5 -5.64 5 -7 5 C-7 4.34 -7 3.68 -7 3 C-2.61538462 0 -2.61538462 0 0 0 Z " fill="#0080FF" transform="translate(1463,1119)"/>
<path d="M0 0 C0.66 0 1.32 0 2 0 C2 69.3 2 138.6 2 210 C4.97 210 7.94 210 11 210 C11 210.66 11 211.32 11 212 C9.35425434 212.02688151 7.70838587 212.04634123 6.0625 212.0625 C5.14597656 212.07410156 4.22945312 212.08570313 3.28515625 212.09765625 C1 212 1 212 0 211 C-0.09785825 208.28146243 -0.12993566 205.58833853 -0.12025452 202.86936951 C-0.12110894 202.00688553 -0.12196337 201.14440156 -0.12284368 200.25578171 C-0.12450114 197.34294519 -0.1189728 194.43016527 -0.11352539 191.51733398 C-0.11324355 189.4383952 -0.11340119 187.35945631 -0.1139679 185.28051758 C-0.11425599 179.61752561 -0.10835731 173.95455463 -0.10139394 168.29156756 C-0.09516241 162.38050107 -0.09455676 156.46943414 -0.09336853 150.55836487 C-0.09025462 139.35632305 -0.08204043 128.15429094 -0.07201904 116.9522534 C-0.06085975 104.20277637 -0.05534792 91.45329889 -0.05032361 78.7038182 C-0.03985786 52.46920674 -0.02225727 26.23460391 0 0 Z " fill="#000000" transform="translate(641,981)"/>
<path d="M0 0 C20.46 0 40.92 0 62 0 C62.495 0.99 62.495 0.99 63 2 C42.87 2 22.74 2 2 2 C2 24.44 2 46.88 2 70 C2.66 70 3.32 70 4 70 C3.01 76.6 2.02 83.2 1 90 C0.34 90 -0.32 90 -1 90 C-1.99 83.4 -2.98 76.8 -4 70 C-2.68 70 -1.36 70 0 70 C0 46.9 0 23.8 0 0 Z " fill="#0080FF" transform="translate(1465,134)"/>
<path d="M0 0 C26.07 0 52.14 0 79 0 C79.495 0.99 79.495 0.99 80 2 C78.02 2 76.04 2 74 2 C74 7.94 74 13.88 74 20 C75.65 20 77.3 20 79 20 C79.495 20.99 79.495 20.99 80 22 C56.24 22 32.48 22 8 22 C8 21.34 8 20.68 8 20 C29.12 20 50.24 20 72 20 C72 14.06 72 8.12 72 2 C48.24 2 24.48 2 0 2 C0 1.34 0 0.68 0 0 Z " fill="#0080FF" transform="translate(644,1171)"/>
<path d="M0 0 C0.66 0 1.32 0 2 0 C2.50400451 2.91602609 3.00334666 5.83272092 3.5 8.75 C3.64308594 9.575 3.78617188 10.4 3.93359375 11.25 C4.06894531 12.04921875 4.20429687 12.8484375 4.34375 13.671875 C4.46943359 14.4050293 4.59511719 15.13818359 4.72460938 15.89355469 C5 18 5 18 5 22 C4.34 22 3.68 22 3 22 C3 38.17 3 54.34 3 71 C23.13 71 43.26 71 64 71 C64.33 71.66 64.66 72.32 65 73 C43.88 73 22.76 73 1 73 C1 56.17 1 39.34 1 22 C-0.32 22 -1.64 22 -3 22 C-2.68905914 19.45813394 -2.37629464 16.91651402 -2.0625 14.375 C-1.97548828 13.66214844 -1.88847656 12.94929688 -1.79882812 12.21484375 C-1.29217395 8.12408039 -0.7110957 4.06157365 0 0 Z " fill="#0080FF" transform="translate(715,1195)"/>
<path d="M0 0 C3.83214691 0.04798753 3.83214691 0.04798753 6.0625 2.0625 C8.6267413 7.49265804 8.82074335 12.72831043 7.25 18.5625 C6.125 21.3125 6.125 21.3125 4.125 24.3125 C1.11905881 24.64649347 -0.9775013 24.84687476 -3.875 24.3125 C-7.69902028 20.98190169 -7.76842346 16.75128323 -8.125 11.9375 C-7.71135358 5.93962692 -6.5737672 0.53014252 0 0 Z " fill="#0080FF" transform="translate(766.875,1240.6875)"/>
<path d="M0 0 C3.83214691 0.04798753 3.83214691 0.04798753 6.0625 2.0625 C8.6267413 7.49265804 8.82074335 12.72831043 7.25 18.5625 C6.125 21.3125 6.125 21.3125 4.125 24.3125 C1.11905881 24.64649347 -0.9775013 24.84687476 -3.875 24.3125 C-7.69902028 20.98190169 -7.76842346 16.75128323 -8.125 11.9375 C-7.71135358 5.93962692 -6.5737672 0.53014252 0 0 Z " fill="#0080FF" transform="translate(343.875,1104.6875)"/>
<path d="M0 0 C3.83214691 0.04798753 3.83214691 0.04798753 6.0625 2.0625 C8.6267413 7.49265804 8.82074335 12.72831043 7.25 18.5625 C6.125 21.3125 6.125 21.3125 4.125 24.3125 C1.11905881 24.64649347 -0.9775013 24.84687476 -3.875 24.3125 C-7.69902028 20.98190169 -7.76842346 16.75128323 -8.125 11.9375 C-7.71135358 5.93962692 -6.5737672 0.53014252 0 0 Z " fill="#0080FF" transform="translate(768.875,968.6875)"/>
<path d="M0 0 C3.83214691 0.04798753 3.83214691 0.04798753 6.0625 2.0625 C8.6267413 7.49265804 8.82074335 12.72831043 7.25 18.5625 C6.125 21.3125 6.125 21.3125 4.125 24.3125 C1.11905881 24.64649347 -0.9775013 24.84687476 -3.875 24.3125 C-7.69902028 20.98190169 -7.76842346 16.75128323 -8.125 11.9375 C-7.71135358 5.93962692 -6.5737672 0.53014252 0 0 Z " fill="#0080FF" transform="translate(750.875,968.6875)"/>
<path d="M0 0 C3.83214691 0.04798753 3.83214691 0.04798753 6.0625 2.0625 C8.6267413 7.49265804 8.82074335 12.72831043 7.25 18.5625 C6.125 21.3125 6.125 21.3125 4.125 24.3125 C1.11905881 24.64649347 -0.9775013 24.84687476 -3.875 24.3125 C-7.69902028 20.98190169 -7.76842346 16.75128323 -8.125 11.9375 C-7.71135358 5.93962692 -6.5737672 0.53014252 0 0 Z " fill="#0080FF" transform="translate(1525.875,897.6875)"/>
<path d="M0 0 C3.83214691 0.04798753 3.83214691 0.04798753 6.0625 2.0625 C8.6267413 7.49265804 8.82074335 12.72831043 7.25 18.5625 C6.125 21.3125 6.125 21.3125 4.125 24.3125 C1.11905881 24.64649347 -0.9775013 24.84687476 -3.875 24.3125 C-7.69902028 20.98190169 -7.76842346 16.75128323 -8.125 11.9375 C-7.71135358 5.93962692 -6.5737672 0.53014252 0 0 Z " fill="#0080FF" transform="translate(732.875,136.6875)"/>
<path d="M0 0 C1.25 6.625 1.25 6.625 -1 10 C-0.484375 10.53625 0.03125 11.0725 0.5625 11.625 C2 14 2 14 1.875 17.0625 C0.97811095 20.07348467 0.56724042 21.257944 -2 23 C-4.9842702 24.02093454 -6.62051343 24.09707796 -9.6875 23.3125 C-12.41767393 21.76294182 -13.16261583 21.01458301 -14 18 C-13.625 14.75 -13.625 14.75 -13 12 C-12.01 11.67 -11.02 11.34 -10 11 C-10.515625 10.484375 -11.03125 9.96875 -11.5625 9.4375 C-13.57265701 6.0289729 -12.79727396 3.76893143 -12 0 C-7.44729118 -2.48329572 -4.775353 -1.68541871 0 0 Z " fill="#0080FF" transform="translate(332,1106)"/>
<path d="M0 0 C1.25 6.625 1.25 6.625 -1 10 C-0.484375 10.53625 0.03125 11.0725 0.5625 11.625 C2 14 2 14 1.875 17.0625 C0.97811095 20.07348467 0.56724042 21.257944 -2 23 C-4.9842702 24.02093454 -6.62051343 24.09707796 -9.6875 23.3125 C-12.41767393 21.76294182 -13.16261583 21.01458301 -14 18 C-13.625 14.75 -13.625 14.75 -13 12 C-12.01 11.67 -11.02 11.34 -10 11 C-10.515625 10.484375 -11.03125 9.96875 -11.5625 9.4375 C-13.57265701 6.0289729 -12.79727396 3.76893143 -12 0 C-7.44729118 -2.48329572 -4.775353 -1.68541871 0 0 Z " fill="#0080FF" transform="translate(757,138)"/>
<path d="M0 0 C17.49 0 34.98 0 53 0 C53.495 0.99 53.495 0.99 54 2 C36.84 2 19.68 2 2 2 C2 9.92 2 17.84 2 26 C2.66 26 3.32 26 4 26 C3.01 32.6 2.02 39.2 1 46 C0.34 46 -0.32 46 -1 46 C-1.99 39.4 -2.98 32.8 -4 26 C-2.68 26 -1.36 26 0 26 C0 17.42 0 8.84 0 0 Z " fill="#0080FF" transform="translate(1482,923)"/>
<path d="M0 0 C0.99 0 1.98 0 3 0 C3 26.4 3 52.8 3 80 C2.01 80 1.02 80 0 80 C0 53.6 0 27.2 0 0 Z " fill="#FFFFFF" transform="translate(1406,872)"/>
<path d="M0 0 C0.99 0 1.98 0 3 0 C3 26.4 3 52.8 3 80 C2.01 80 1.02 80 0 80 C0 53.6 0 27.2 0 0 Z " fill="#FFFFFF" transform="translate(475,872)"/>
<path d="M0 0 C0.99 0 1.98 0 3 0 C3 26.4 3 52.8 3 80 C2.01 80 1.02 80 0 80 C0 53.6 0 27.2 0 0 Z " fill="#FFFFFF" transform="translate(1406,332)"/>
<path d="M0 0 C0.99 0 1.98 0 3 0 C3 26.4 3 52.8 3 80 C2.01 80 1.02 80 0 80 C0 53.6 0 27.2 0 0 Z " fill="#FFFFFF" transform="translate(475,332)"/>
<path d="M0 0 C0 0.66 0 1.32 0 2 C20.79 2 41.58 2 63 2 C63.495 2.99 63.495 2.99 64 4 C42.88 4 21.76 4 0 4 C0 4.99 0 5.98 0 7 C-12.66970387 6.03644647 -12.66970387 6.03644647 -18 5 C-17.67 4.01 -17.34 3.02 -17 2 C-5.47835991 -0.29612756 -5.47835991 -0.29612756 0 0 Z " fill="#0080FF" transform="translate(662,977)"/>
<path d="M0 0 C0.99 0 1.98 0 3 0 C3 20.46 3 40.92 3 62 C2.01 62 1.02 62 0 62 C0 41.54 0 21.08 0 0 Z " fill="#FFFFFF" transform="translate(535,284)"/>
<path d="M0 0 C0.66 0 1.32 0 2 0 C2 0.99 2 1.98 2 3 C30.71 3 59.42 3 89 3 C89 3.66 89 4.32 89 5 C59.63 5 30.26 5 0 5 C0 3.35 0 1.7 0 0 Z " fill="#000000" transform="translate(626,1193)"/>
<path d="M0 0 C0 0.66 0 1.32 0 2 C15.18 2 30.36 2 46 2 C46.495 2.99 46.495 2.99 47 4 C31.49 4 15.98 4 0 4 C0 4.99 0 5.98 0 7 C-12.66970387 6.03644647 -12.66970387 6.03644647 -18 5 C-17.67 4.01 -17.34 3.02 -17 2 C-5.47835991 -0.29612756 -5.47835991 -0.29612756 0 0 Z " fill="#0080FF" transform="translate(662,145)"/>
<path d="M0 0 C0.66 0 1.32 0 2 0 C2.50400451 2.91602609 3.00334666 5.83272092 3.5 8.75 C3.64308594 9.575 3.78617187 10.4 3.93359375 11.25 C4.06894531 12.04921875 4.20429688 12.8484375 4.34375 13.671875 C4.46943359 14.4050293 4.59511719 15.13818359 4.72460938 15.89355469 C5 18 5 18 5 22 C4.34 22 3.68 22 3 22 C3 34.54 3 47.08 3 60 C2.34 60 1.68 60 1 60 C1 47.46 1 34.92 1 22 C-0.32 22 -1.64 22 -3 22 C-2.68905914 19.45813394 -2.37629464 16.91651402 -2.0625 14.375 C-1.97548828 13.66214844 -1.88847656 12.94929688 -1.79882812 12.21484375 C-1.29217395 8.12408039 -0.7110957 4.06157365 0 0 Z " fill="#0080FF" transform="translate(325,1043)"/>
<path d="M0 0 C0.66 0.33 1.32 0.66 2 1 C2 13.54 2 26.08 2 39 C2.66 39 3.32 39 4 39 C3.01 45.6 2.02 52.2 1 59 C0.34 59 -0.32 59 -1 59 C-1.99 52.4 -2.98 45.8 -4 39 C-2.68 39 -1.36 39 0 39 C0 26.13 0 13.26 0 0 Z " fill="#0080FF" transform="translate(326,1130)"/>
<path d="M0 0 C4.29 0 8.58 0 13 0 C13 0.99 13 1.98 13 3 C9.7 3 6.4 3 3 3 C3 4.98 3 6.96 3 9 C3.9075 8.938125 4.815 8.87625 5.75 8.8125 C9 9 9 9 11.375 10 C13.48274889 12.59415247 13.57081614 14.77225255 13.37109375 18.05859375 C13 20 13 20 11.5625 22.5 C7.78106272 24.71352426 4.2792407 24.32917236 0 24 C-0.33 22.68 -0.66 21.36 -1 20 C1.01822917 20.32552083 3.03645833 20.65104167 5.0546875 20.9765625 C6.01761719 20.98816406 6.01761719 20.98816406 7 21 C9.26839983 19.16734675 9.26839983 19.16734675 9.1875 16.4375 C9.27003323 14.05310277 9.27003323 14.05310277 8 13 C6.65252916 12.76924918 5.29622435 12.58846937 3.9375 12.4375 C2.638125 12.293125 1.33875 12.14875 0 12 C0 8.04 0 4.08 0 0 Z " fill="#0080FF" transform="translate(743,1241)"/>
<path d="M0 0 C4.29 0 8.58 0 13 0 C13 0.99 13 1.98 13 3 C9.7 3 6.4 3 3 3 C3 4.98 3 6.96 3 9 C3.9075 8.938125 4.815 8.87625 5.75 8.8125 C9 9 9 9 11.375 10 C13.48274889 12.59415247 13.57081614 14.77225255 13.37109375 18.05859375 C13 20 13 20 11.5625 22.5 C7.78106272 24.71352426 4.2792407 24.32917236 0 24 C-0.33 22.68 -0.66 21.36 -1 20 C1.01822917 20.32552083 3.03645833 20.65104167 5.0546875 20.9765625 C6.01761719 20.98816406 6.01761719 20.98816406 7 21 C9.26839983 19.16734675 9.26839983 19.16734675 9.1875 16.4375 C9.27003323 14.05310277 9.27003323 14.05310277 8 13 C6.65252916 12.76924918 5.29622435 12.58846937 3.9375 12.4375 C2.638125 12.293125 1.33875 12.14875 0 12 C0 8.04 0 4.08 0 0 Z " fill="#0080FF" transform="translate(1502,898)"/>
<path d="M0 0 C0.99 0 1.98 0 3 0 C3 16.83 3 33.66 3 51 C2.01 51 1.02 51 0 51 C0 34.17 0 17.34 0 0 Z " fill="#FFFFFF" transform="translate(535,399)"/>
<path d="M0 0 C4.29 0 8.58 0 13 0 C13 0.99 13 1.98 13 3 C9.7 3 6.4 3 3 3 C3 4.98 3 6.96 3 9 C3.9075 8.938125 4.815 8.87625 5.75 8.8125 C9 9 9 9 11.375 10 C13.48274889 12.59415247 13.57081614 14.77225255 13.37109375 18.05859375 C13 20 13 20 11.5625 22.5 C7.78106272 24.71352426 4.2792407 24.32917236 0 24 C-0.33 22.68 -0.66 21.36 -1 20 C1.01822917 20.32552083 3.03645833 20.65104167 5.0546875 20.9765625 C6.01761719 20.98816406 6.01761719 20.98816406 7 21 C9.26839983 19.16734675 9.26839983 19.16734675 9.1875 16.4375 C9.27003323 14.05310277 9.27003323 14.05310277 8 13 C6.65252916 12.76924918 5.29622435 12.58846937 3.9375 12.4375 C2.638125 12.293125 1.33875 12.14875 0 12 C0 8.04 0 4.08 0 0 Z " fill="#0080FF" transform="translate(1511,109)"/>
<path d="M0 0 C0.66 0 1.32 0 2 0 C2.50400451 2.91602609 3.00334666 5.83272092 3.5 8.75 C3.64308594 9.575 3.78617188 10.4 3.93359375 11.25 C4.06894531 12.04921875 4.20429687 12.8484375 4.34375 13.671875 C4.46943359 14.4050293 4.59511719 15.13818359 4.72460938 15.89355469 C5 18 5 18 5 22 C4.34 22 3.68 22 3 22 C3 29.92 3 37.84 3 46 C2.34 46 1.68 46 1 46 C1 38.08 1 30.16 1 22 C-0.32 22 -1.64 22 -3 22 C-2.68905914 19.45813394 -2.37629464 16.91651402 -2.0625 14.375 C-1.97548828 13.66214844 -1.88847656 12.94929688 -1.79882812 12.21484375 C-1.29217395 8.12408039 -0.7110957 4.06157365 0 0 Z " fill="#0080FF" transform="translate(1428,1200)"/>
<path d="M0 0 C0.66 0 1.32 0 2 0 C2.50400451 2.91602609 3.00334666 5.83272092 3.5 8.75 C3.64308594 9.575 3.78617188 10.4 3.93359375 11.25 C4.06894531 12.04921875 4.20429687 12.8484375 4.34375 13.671875 C4.46943359 14.4050293 4.59511719 15.13818359 4.72460938 15.89355469 C5 18 5 18 5 22 C4.34 22 3.68 22 3 22 C3 29.92 3 37.84 3 46 C2.34 46 1.68 46 1 46 C1 38.08 1 30.16 1 22 C-0.32 22 -1.64 22 -3 22 C-2.68905914 19.45813394 -2.37629464 16.91651402 -2.0625 14.375 C-1.97548828 13.66214844 -1.88847656 12.94929688 -1.79882812 12.21484375 C-1.29217395 8.12408039 -0.7110957 4.06157365 0 0 Z " fill="#0080FF" transform="translate(1481,1035)"/>
<path d="M0 0 C0.66 0 1.32 0 2 0 C2.50400451 2.91602609 3.00334666 5.83272092 3.5 8.75 C3.64308594 9.575 3.78617188 10.4 3.93359375 11.25 C4.06894531 12.04921875 4.20429687 12.8484375 4.34375 13.671875 C4.46943359 14.4050293 4.59511719 15.13818359 4.72460938 15.89355469 C5 18 5 18 5 22 C4.34 22 3.68 22 3 22 C3 29.92 3 37.84 3 46 C2.34 46 1.68 46 1 46 C1 38.08 1 30.16 1 22 C-0.32 22 -1.64 22 -3 22 C-2.68905914 19.45813394 -2.37629464 16.91651402 -2.0625 14.375 C-1.97548828 13.66214844 -1.88847656 12.94929687 -1.79882812 12.21484375 C-1.29217395 8.12408039 -0.7110957 4.06157365 0 0 Z " fill="#0080FF" transform="translate(1464,240)"/>
<path d="M0 0 C4.55555556 0.55555556 4.55555556 0.55555556 6 2 C6.15349136 4.47357237 6.23159885 6.90004519 6.25 9.375 C6.270625 10.06078125 6.29125 10.7465625 6.3125 11.453125 C6.35173065 16.494263 6.35173065 16.494263 4.6171875 18.98828125 C3 20 3 20 0.875 19.8125 C-1 19 -1 19 -2 17 C-2.12393466 14.4867203 -2.18515112 12.01329886 -2.1875 9.5 C-2.19974609 8.81035156 -2.21199219 8.12070313 -2.22460938 7.41015625 C-2.22988695 5.60522506 -2.12184458 3.80082158 -2 2 C-1.34 1.34 -0.68 0.68 0 0 Z " fill="#FFFFFF" transform="translate(765,1243)"/>
<path d="M0 0 C4.55555556 0.55555556 4.55555556 0.55555556 6 2 C6.15349136 4.47357237 6.23159885 6.90004519 6.25 9.375 C6.270625 10.06078125 6.29125 10.7465625 6.3125 11.453125 C6.35173065 16.494263 6.35173065 16.494263 4.6171875 18.98828125 C3 20 3 20 0.875 19.8125 C-1 19 -1 19 -2 17 C-2.12393466 14.4867203 -2.18515112 12.01329886 -2.1875 9.5 C-2.19974609 8.81035156 -2.21199219 8.12070313 -2.22460938 7.41015625 C-2.22988695 5.60522506 -2.12184458 3.80082158 -2 2 C-1.34 1.34 -0.68 0.68 0 0 Z " fill="#FFFFFF" transform="translate(342,1107)"/>
<path d="M0 0 C4.55555556 0.55555556 4.55555556 0.55555556 6 2 C6.15349136 4.47357237 6.23159885 6.90004519 6.25 9.375 C6.270625 10.06078125 6.29125 10.7465625 6.3125 11.453125 C6.35173065 16.494263 6.35173065 16.494263 4.6171875 18.98828125 C3 20 3 20 0.875 19.8125 C-1 19 -1 19 -2 17 C-2.12393466 14.4867203 -2.18515112 12.01329886 -2.1875 9.5 C-2.19974609 8.81035156 -2.21199219 8.12070312 -2.22460938 7.41015625 C-2.22988695 5.60522506 -2.12184458 3.80082158 -2 2 C-1.34 1.34 -0.68 0.68 0 0 Z " fill="#FFFFFF" transform="translate(767,971)"/>
<path d="M0 0 C4.55555556 0.55555556 4.55555556 0.55555556 6 2 C6.15349136 4.47357237 6.23159885 6.90004519 6.25 9.375 C6.270625 10.06078125 6.29125 10.7465625 6.3125 11.453125 C6.35173065 16.494263 6.35173065 16.494263 4.6171875 18.98828125 C3 20 3 20 0.875 19.8125 C-1 19 -1 19 -2 17 C-2.12393466 14.4867203 -2.18515112 12.01329886 -2.1875 9.5 C-2.19974609 8.81035156 -2.21199219 8.12070312 -2.22460938 7.41015625 C-2.22988695 5.60522506 -2.12184458 3.80082158 -2 2 C-1.34 1.34 -0.68 0.68 0 0 Z " fill="#FFFFFF" transform="translate(749,971)"/>
<path d="M0 0 C4.55555556 0.55555556 4.55555556 0.55555556 6 2 C6.15349136 4.47357237 6.23159885 6.90004519 6.25 9.375 C6.270625 10.06078125 6.29125 10.7465625 6.3125 11.453125 C6.35173065 16.494263 6.35173065 16.494263 4.6171875 18.98828125 C3 20 3 20 0.875 19.8125 C-1 19 -1 19 -2 17 C-2.12393466 14.4867203 -2.18515112 12.01329886 -2.1875 9.5 C-2.19974609 8.81035156 -2.21199219 8.12070312 -2.22460938 7.41015625 C-2.22988695 5.60522506 -2.12184458 3.80082158 -2 2 C-1.34 1.34 -0.68 0.68 0 0 Z " fill="#FFFFFF" transform="translate(1524,900)"/>
<path d="M0 0 C4.55555556 0.55555556 4.55555556 0.55555556 6 2 C6.15349136 4.47357237 6.23159885 6.90004519 6.25 9.375 C6.270625 10.06078125 6.29125 10.7465625 6.3125 11.453125 C6.35173065 16.494263 6.35173065 16.494263 4.6171875 18.98828125 C3 20 3 20 0.875 19.8125 C-1 19 -1 19 -2 17 C-2.12393466 14.4867203 -2.18515112 12.01329886 -2.1875 9.5 C-2.19974609 8.81035156 -2.21199219 8.12070313 -2.22460938 7.41015625 C-2.22988695 5.60522506 -2.12184458 3.80082158 -2 2 C-1.34 1.34 -0.68 0.68 0 0 Z " fill="#FFFFFF" transform="translate(731,139)"/>
<path d="M0 0 C7.47834967 0.48827713 14.68925318 1.33405548 22 3 C18.75972157 4.84494322 15.79552055 5.53659594 12.125 6.125 C11.11695313 6.29257812 10.10890625 6.46015625 9.0703125 6.6328125 C6.01438252 6.99827995 3.07442109 7.06424163 0 7 C0 6.01 0 5.02 0 4 C-7.92 4 -15.84 4 -24 4 C-24 3.34 -24 2.68 -24 2 C-16.08 2 -8.16 2 0 2 C0 1.34 0 0.68 0 0 Z " fill="#0080FF" transform="translate(494,977)"/>
<path d="M0 0 C7.47834967 0.48827713 14.68925318 1.33405548 22 3 C18.75972157 4.84494322 15.79552055 5.53659594 12.125 6.125 C11.11695313 6.29257813 10.10890625 6.46015625 9.0703125 6.6328125 C6.01438252 6.99827995 3.07442109 7.06424163 0 7 C0 6.01 0 5.02 0 4 C-7.92 4 -15.84 4 -24 4 C-24 3.34 -24 2.68 -24 2 C-16.08 2 -8.16 2 0 2 C0 1.34 0 0.68 0 0 Z " fill="#0080FF" transform="translate(571,145)"/>
<path d="M0 0 C0.66 0.33 1.32 0.66 2 1 C2 9.25 2 17.5 2 26 C2.66 26 3.32 26 4 26 C3.01 32.6 2.02 39.2 1 46 C0.34 46 -0.32 46 -1 46 C-1.99 39.4 -2.98 32.8 -4 26 C-2.68 26 -1.36 26 0 26 C0 17.42 0 8.84 0 0 Z " fill="#0080FF" transform="translate(716,1123)"/>
<path d="M0 0 C3.37938363 -0.28531381 6.62847568 -0.42211701 10 0 C12.25 2.0625 12.25 2.0625 13 5 C12.24214215 11.69441098 8.54112475 15.20659054 4 20 C7.3 20.33 10.6 20.66 14 21 C14 21.99 14 22.98 14 24 C9.05 24 4.1 24 -1 24 C-0.01282076 19.06410379 0.17072108 18.41352908 3.4375 15.1875 C7.09962473 11.24771417 8.15320399 8.26895295 9 3 C5.4780279 2.91995518 2.38018531 2.95994298 -1 4 C-0.67 2.68 -0.34 1.36 0 0 Z " fill="#0080FF" transform="translate(1493,109)"/>
<path d="M0 0 C1.60332791 -0.08121924 3.20784026 -0.13929134 4.8125 -0.1875 C6.15248047 -0.23970703 6.15248047 -0.23970703 7.51953125 -0.29296875 C10 0 10 0 11.8359375 1.35546875 C13 3 13 3 12.8125 5.5 C12 8 12 8 10 11 C10.99 11.66 11.98 12.32 13 13 C13.49337903 16.80606683 13.53195425 19.09799061 11.5625 22.4375 C7.78993176 24.73784649 4.30933841 24.33148757 0 24 C-0.33 22.68 -0.66 21.36 -1 20 C0.6396875 20.309375 0.6396875 20.309375 2.3125 20.625 C6.0838401 21.40346525 6.0838401 21.40346525 9 19 C9.25030977 16.41619823 9.25030977 16.41619823 9 14 C7.02 13.34 5.04 12.68 3 12 C3 11.34 3 10.68 3 10 C4.65 9.34 6.3 8.68 8 8 C8 6.35 8 4.7 8 3 C3.545 3.495 3.545 3.495 -1 4 C-0.67 2.68 -0.34 1.36 0 0 Z " fill="#0080FF" transform="translate(302,1105)"/>
<path d="M0 0 C1.60332791 -0.08121924 3.20784026 -0.13929134 4.8125 -0.1875 C6.15248047 -0.23970703 6.15248047 -0.23970703 7.51953125 -0.29296875 C10 0 10 0 11.8359375 1.35546875 C13 3 13 3 12.8125 5.5 C12 8 12 8 10 11 C10.99 11.66 11.98 12.32 13 13 C13.49337903 16.80606683 13.53195425 19.09799061 11.5625 22.4375 C7.78993176 24.73784649 4.30933841 24.33148757 0 24 C-0.33 22.68 -0.66 21.36 -1 20 C0.6396875 20.309375 0.6396875 20.309375 2.3125 20.625 C6.0838401 21.40346525 6.0838401 21.40346525 9 19 C9.25030977 16.41619823 9.25030977 16.41619823 9 14 C7.02 13.34 5.04 12.68 3 12 C3 11.34 3 10.68 3 10 C4.65 9.34 6.3 8.68 8 8 C8 6.35 8 4.7 8 3 C3.545 3.495 3.545 3.495 -1 4 C-0.67 2.68 -0.34 1.36 0 0 Z " fill="#0080FF" transform="translate(727,969)"/>
<path d="M0 0 C1.15471802 0.04713135 1.15471802 0.04713135 2.33276367 0.09521484 C3.59443359 0.12421875 3.59443359 0.12421875 4.8815918 0.15380859 C5.7459082 0.20408203 6.61022461 0.25435547 7.50073242 0.30615234 C8.38438477 0.33322266 9.26803711 0.36029297 10.1784668 0.38818359 C12.34944356 0.45859365 14.51915771 0.56620628 16.68823242 0.68115234 C16.68823242 2.66115234 16.68823242 4.64115234 16.68823242 6.68115234 C8.76823242 6.68115234 0.84823242 6.68115234 -7.31176758 6.68115234 C-2.31176758 0.68115234 -2.31176758 0.68115234 0 0 Z " fill="#FFFFFF" transform="translate(577.311767578125,972.31884765625)"/>
<path d="M0 0 C5.28 0 10.56 0 16 0 C16 2.64 16 5.28 16 8 C10.72 8 5.44 8 0 8 C0 5.36 0 2.72 0 0 Z " fill="#FFFFFF" transform="translate(579,228)"/>
<path d="M0 0 C2.64 0 5.28 0 8 0 C8 0.66 8 1.32 8 2 C5.69 2 3.38 2 1 2 C1 2.66 1 3.32 1 4 C3.31 4 5.62 4 8 4 C8 4.66 8 5.32 8 6 C2.72 6 -2.56 6 -8 6 C-8 8.64 -8 11.28 -8 14 C-2.72 14 2.56 14 8 14 C8 14.66 8 15.32 8 16 C2.06 16 -3.88 16 -10 16 C-10 12.04 -10 8.08 -10 4 C-7.36 4 -4.72 4 -2 4 C-1.34 2.68 -0.68 1.36 0 0 Z " fill="#000000" transform="translate(587,222)"/>
<path d="M0 0 C0 7.26 0 14.52 0 22 C1.32 22 2.64 22 4 22 C4 22.66 4 23.32 4 24 C0.37 24 -3.26 24 -7 24 C-7 23.34 -7 22.68 -7 22 C-5.68 22 -4.36 22 -3 22 C-3 16.39 -3 10.78 -3 5 C-4.32 5 -5.64 5 -7 5 C-7 4.34 -7 3.68 -7 3 C-2.61538462 0 -2.61538462 0 0 0 Z " fill="#0080FF" transform="translate(1492,898)"/>
<path d="M0 0 C0 7.26 0 14.52 0 22 C1.32 22 2.64 22 4 22 C4 22.66 4 23.32 4 24 C0.37 24 -3.26 24 -7 24 C-7 23.34 -7 22.68 -7 22 C-5.68 22 -4.36 22 -3 22 C-3 16.39 -3 10.78 -3 5 C-4.32 5 -5.64 5 -7 5 C-7 4.34 -7 3.68 -7 3 C-2.61538462 0 -2.61538462 0 0 0 Z " fill="#0080FF" transform="translate(717,137)"/>
<path d="M0 0 C4.75 0.875 4.75 0.875 7 2 C7.75 3.8125 7.75 3.8125 8 6 C7.0625 8.25 7.0625 8.25 6 10 C3.6875 10.25 3.6875 10.25 1 10 C-0.9375 8.375 -0.9375 8.375 -2 6 C-1.1875 2.75 -1.1875 2.75 0 0 Z " fill="#FFFFFF" transform="translate(323,1117)"/>
<path d="M0 0 C4.75 0.875 4.75 0.875 7 2 C7.75 3.8125 7.75 3.8125 8 6 C7.0625 8.25 7.0625 8.25 6 10 C3.6875 10.25 3.6875 10.25 1 10 C-0.9375 8.375 -0.9375 8.375 -2 6 C-1.1875 2.75 -1.1875 2.75 0 0 Z " fill="#FFFFFF" transform="translate(748,149)"/>
<path d="M0 0 C3.68000434 2.75839204 6.49505889 5.62075382 9.3125 9.25 C10.00988281 10.14203125 10.70726562 11.0340625 11.42578125 11.953125 C11.94527344 12.62859375 12.46476563 13.3040625 13 14 C7.91922776 14 3.75908933 11.30910626 0 8 C-0.91640128 4.93801249 -0.55619948 3.225957 0 0 Z " fill="#FFFFFF" transform="translate(597,1148)"/>
<path d="M0 0 C0.33 0 0.66 0 1 0 C1 2.64 1 5.28 1 8 C-0.45264038 8.8638129 -1.9123163 9.71580454 -3.375 10.5625 C-4.59316406 11.27599609 -4.59316406 11.27599609 -5.8359375 12.00390625 C-6.55007813 12.33261719 -7.26421875 12.66132812 -8 13 C-8.66 12.67 -9.32 12.34 -10 12 C-8.52149287 10.18696196 -7.04217625 8.37458402 -5.5625 6.5625 C-4.32693359 5.04849609 -4.32693359 5.04849609 -3.06640625 3.50390625 C-1 1 -1 1 0 0 Z " fill="#FFFFFF" transform="translate(1286,1148)"/>
<path d="M0 0 C1.99954746 -0.04254356 4.00041636 -0.04080783 6 0 C7 1 7 1 7.0625 3.5625 C7.041875 4.366875 7.02125 5.17125 7 6 C5.02 6.99 5.02 6.99 3 8 C1.68 7.01 0.36 6.02 -1 5 C-0.67 3.35 -0.34 1.7 0 0 Z " fill="#FFFFFF" transform="translate(323,1107)"/>
<path d="M0 0 C1.99954746 -0.04254356 4.00041636 -0.04080783 6 0 C7 1 7 1 7.0625 3.5625 C7.041875 4.366875 7.02125 5.17125 7 6 C5.02 6.99 5.02 6.99 3 8 C1.68 7.01 0.36 6.02 -1 5 C-0.67 3.35 -0.34 1.7 0 0 Z " fill="#FFFFFF" transform="translate(748,139)"/>
<path d="M0 0 C2.97 0 5.94 0 9 0 C9 1.65 9 3.3 9 5 C4.89198233 3.81323934 3.10551666 3.10551666 0 0 Z " fill="#FFFFFF" transform="translate(629,1173)"/>
<path d="M0 0 C2.64 0 5.28 0 8 0 C5.31158141 2.25245881 3.35358125 3.88213958 0 5 C0 3.35 0 1.7 0 0 Z " fill="#FFFFFF" transform="translate(1246,1173)"/>
</svg>
