<?xml version="1.0" encoding="UTF-8"?>
<svg version="1.1" xmlns="http://www.w3.org/2000/svg" width="1920" height="1440">
<path d="M0 0 C633.6 0 1267.2 0 1920 0 C1920 475.2 1920 950.4 1920 1440 C1286.4 1440 652.8 1440 0 1440 C0 964.8 0 489.6 0 0 Z " fill="#FEFEFE" transform="translate(0,0)"/>
<path d="M0 0 C71.65944755 -12.60297751 156.65708943 -23.0226732 219.67990597 20.30994761 C237.7634751 33.05721129 254.585076 47.24753116 271.06225586 61.98681641 C271.96400547 62.79198692 272.86575509 63.59715743 273.79483045 64.42672705 C297.8604724 85.96102216 320.9927468 108.41960699 343.81468394 131.25887064 C356.98135803 144.43321042 370.2799529 157.45822005 383.69360021 170.38098675 C386.2304016 172.82524695 388.76591246 175.27084506 391.30147721 177.71638798 C391.80533511 178.20234927 392.30919301 178.68831056 392.82831932 179.18899795 C393.84798275 180.17247008 394.86762962 181.15595938 395.88725999 182.13946578 C396.90923306 183.12522344 397.93124068 184.1109453 398.95328271 185.09663146 C427.81562379 212.93418662 456.48552128 240.95772942 484.74404049 269.40873146 C485.2630547 269.93117263 485.78206892 270.4536138 486.31681083 270.99188652 C492.09809625 276.81137242 497.87712322 282.63309905 503.65559762 288.45537598 C505.2356387 290.04731668 506.81568611 291.6392511 508.39573958 293.2311795 C509.44997664 294.29339947 510.50416261 295.35567014 511.55829756 296.41799144 C543.67324799 328.78156953 576.32400134 360.46367859 609.63353306 391.59598414 C661.48031541 440.05652542 712.56906085 489.1932222 762.08984375 540.0390625 C762.8195298 540.78782791 762.8195298 540.78782791 763.56395699 541.5517199 C906.81203621 688.56583212 906.81203621 688.56583212 940.11367882 881.82143398 C939.28406821 944.25332523 930.60872604 1006.36097558 916 1067 C896.58865472 1067.23436889 877.17759945 1067.4103161 857.76512909 1067.51812172 C848.74999993 1067.56952514 839.73575359 1067.63951062 830.72119141 1067.75439453 C822.85725185 1067.8545662 814.99395205 1067.91869873 807.12939215 1067.94088495 C802.97087663 1067.95383987 798.81419006 1067.9839313 794.65626526 1068.05730057 C761.97542171 1068.61204923 761.97542171 1068.61204923 749 1057 C747.55250761 1056.02945118 746.09048472 1055.07894408 744.59765625 1054.1796875 C743.41853981 1053.41258081 742.24014775 1052.64435949 741.0625 1051.875 C734.0605156 1047.32453976 727.03501331 1042.81171843 720 1038.3125 C718.94433838 1037.63727295 717.88867676 1036.9620459 716.80102539 1036.26635742 C713.53423199 1034.17723504 710.26716507 1032.08854109 707 1030 C682.62340465 1014.417218 682.62340465 1014.417218 671.51171875 1007.21044922 C661.03923078 1000.42485771 650.51395421 993.72106396 640 987 C615.42217593 971.28858218 615.42217593 971.28858218 604.52929688 964.22143555 C597.11584698 959.41678509 589.66874672 954.66479045 582.2253418 949.90673828 C576.24265914 946.08069387 570.26907619 942.24154946 564.3125 938.375 C557.89875084 934.21235104 551.45416835 930.09967184 545 926 C538.54583038 921.90032735 532.10131863 917.78754316 525.6875 913.625 C514.49387659 906.36131176 503.24291228 899.1870517 492 892 C467.62340465 876.417218 467.62340465 876.417218 456.51171875 869.21044922 C446.03923078 862.42485771 435.51395421 855.72106396 425 849 C400.62340465 833.417218 400.62340465 833.417218 389.51171875 826.21044922 C379.03923078 819.42485771 368.51395421 812.72106396 358 806 C333.62340465 790.417218 333.62340465 790.417218 322.51171875 783.21044922 C312.03923078 776.42485771 301.51395421 769.72106396 291 763 C266.62340465 747.417218 266.62340465 747.417218 255.51171875 740.21044922 C245.03923078 733.42485771 234.51395421 726.72106396 224 720 C199.42217593 704.28858218 199.42217593 704.28858218 188.52929688 697.22143555 C181.11584698 692.41678509 173.66874672 687.66479045 166.2253418 682.90673828 C160.24265914 679.08069387 154.26907619 675.24154946 148.3125 671.375 C141.89875084 667.21235104 135.45416835 663.09967184 129 659 C122.54583038 654.90032735 116.10131863 650.78754316 109.6875 646.625 C98.49387659 639.36131176 87.24291228 632.1870517 76 625 C51.22624269 609.16333151 51.22624269 609.16333151 40.546875 602.23242188 C32.99361357 597.33597624 25.40423146 592.49583888 17.81445312 587.65625 C16.80318359 587.01042969 15.79191406 586.36460937 14.75 585.69921875 C13.85796875 585.13033936 12.9659375 584.56145996 12.046875 583.9753418 C11.04140625 583.323479 10.0359375 582.67161621 9 582 C7.89745517 581.42421733 7.89745517 581.42421733 6.77263672 580.83680268 C0.51557762 577.30321912 0.51557762 577.30321912 -0.83321453 573.89389403 C-1.14796402 571.31413835 -1.17506159 568.86441604 -1.10743046 566.26610756 C-1.11781506 565.28668125 -1.12819966 564.30725494 -1.13889894 563.29814905 C-1.16280979 560.00115412 -1.12229076 556.70807968 -1.08229065 553.4112854 C-1.0862139 551.03021262 -1.09409151 548.64914361 -1.10559314 546.26809537 C-1.12154699 541.08391504 -1.10947745 535.90057294 -1.07284927 530.71652985 C-1.01853674 523.00817968 -1.01582641 515.30041588 -1.02372717 507.59190925 C-1.03555368 494.62535127 -1.00547507 481.65920597 -0.95157051 468.6927681 C-0.8983298 455.85312484 -0.86367963 443.01365344 -0.85389519 430.1739006 C-0.85327653 429.3757773 -0.85265787 428.57765399 -0.85202047 427.75534513 C-0.8489755 423.70213316 -0.84626304 419.64892105 -0.84367859 415.59570877 C-0.82477135 386.88155992 -0.76412549 358.16763563 -0.67895508 329.45361328 C-0.59630511 301.55714106 -0.53254781 273.66073027 -0.49438477 245.76416016 C-0.49320103 244.90437311 -0.49201729 244.04458606 -0.49079769 243.15874486 C-0.47893108 234.52446468 -0.46744874 225.89018402 -0.45624795 217.25590295 C-0.43342161 199.66664157 -0.40803034 182.0773842 -0.38108826 164.48812866 C-0.37985265 163.67939078 -0.37861704 162.8706529 -0.37734399 162.03740781 C-0.29452823 108.02484424 -0.15173319 54.01240853 0 0 Z " fill="#000000" transform="translate(490,208)"/>
<path d="M0 0 C6.34122387 5.23323092 12.11918473 10.9806409 17.91892147 16.79587364 C19.02516311 17.9013749 20.13162419 19.0066566 21.23828378 20.11173946 C24.28000788 23.15040005 27.31860933 26.19216653 30.35671275 29.23444655 C33.66191017 32.54308228 36.97001375 35.84881018 40.27775055 39.15490687 C46.07487879 44.949962 51.87014687 50.74687216 57.66420364 56.54499817 C66.27976958 65.1665981 74.89819994 73.78533036 83.51722225 82.40347478 C98.01557018 96.90050861 112.51158871 111.39986957 127.00628471 125.90055466 C141.35949199 140.25967736 155.71373141 154.61776697 170.0693531 168.97447586 C170.96167925 169.86687075 171.8540054 170.75926564 172.77337174 171.67870279 C177.30498326 176.21065265 181.83661326 180.74258404 186.36825038 185.27450831 C218.47235415 217.38071293 250.57413871 249.48923531 282.67456055 281.59912109 C290.45455281 289.38140503 298.23455323 297.16368082 306.0145874 304.94592285 C306.49710975 305.42858215 306.9796321 305.91124144 307.47677633 306.40852678 C329.91054144 328.84863667 352.34561644 351.28743678 374.78102915 373.7258994 C376.23765982 375.18272813 377.69428992 376.63955742 379.15091991 378.09638683 C388.80413204 387.75091875 398.45736673 397.40542809 408.11061655 407.05992233 C427.77569648 426.72753774 447.44063313 446.39529643 467.10548401 466.06314087 C468.00965785 466.967452 468.91383168 467.87176312 469.84540473 468.80347762 C530.23265698 529.19993176 590.61658717 589.59970729 651 650 C647.61102415 650.9443575 645.45631318 650.90704867 641.98994446 650.18321228 C640.97430672 649.97559265 639.95866898 649.76797302 638.91225433 649.55406189 C637.24119503 649.19846947 637.24119503 649.19846947 635.53637695 648.83569336 C634.35115196 648.59074127 633.16592697 648.34578918 631.94478607 648.09341431 C628.65351591 647.41140022 625.36406298 646.72155398 622.07512498 646.02843547 C618.53609293 645.28463749 614.99494515 644.55104725 611.45402527 643.81629944 C605.31193119 642.54039913 599.17117015 641.25824307 593.03125 639.97192383 C584.03786161 638.08790169 575.04238699 636.21400229 566.04629636 634.34293056 C561.84415261 633.46893033 557.64208323 632.59457283 553.44003296 631.72012329 C552.60025827 631.54536646 551.76048358 631.37060962 550.89526117 631.19055712 C544.86512959 629.93547051 538.8353797 628.6785607 532.80581665 627.42074585 C510.27430448 622.72060261 487.73908346 618.03883026 465.19921875 613.37890625 C464.45969412 613.22600655 463.72016949 613.07310686 462.95823503 612.91557384 C456.26136735 611.53098789 449.56444432 610.14666987 442.86744022 608.76274395 C432.38114338 606.59575952 421.8951677 604.42722694 411.40942383 602.25756836 C410.66074142 602.10265525 409.91205901 601.94774214 409.14068925 601.78813469 C405.35716348 601.00526106 401.573643 600.22236186 397.79012489 599.43945122 C390.99013668 598.03236528 384.19010166 596.62550557 377.39007032 595.21862805 C373.61421164 594.43742789 369.83835597 593.65621321 366.0625 592.875 C364.55208335 592.56249993 363.04166668 592.24999993 361.53125 591.9375 C207.46876825 560.06250378 207.46876825 560.06250378 205.20313054 559.59375113 C203.69269541 559.28124732 202.18226026 558.96874355 200.67182511 558.65623981 C196.89606597 557.87504843 193.12030696 557.09385641 189.34454823 556.31266308 C182.54429968 554.90571238 175.74405019 553.49876619 168.94379574 552.09184402 C165.16329481 551.3096863 161.38279466 550.52752481 157.60229492 549.74536133 C156.85393257 549.59052957 156.10557023 549.43569782 155.33453023 549.27617419 C144.8289662 547.10262722 134.3234456 544.92887043 123.81795299 542.7549783 C117.08307235 541.36134375 110.34817869 539.96777211 103.61328125 538.57421875 C102.8714567 538.42072267 102.12963215 538.2672266 101.36532807 538.10907912 C79.22486656 533.52787078 57.083731 528.94993163 34.94214642 524.37415445 C29.15862417 523.17890928 23.37514894 521.98343683 17.59170532 520.78781128 C16.78056223 520.62012179 15.96941914 520.45243229 15.13369596 520.2796613 C11.07131467 519.43982642 7.00893976 518.59996068 2.94656944 517.76007271 C-4.83886643 516.15048982 -12.62439238 514.54134526 -20.41015625 512.93334961 C-48.49030667 507.13372503 -76.56988428 501.33063695 -104.62895775 495.42972374 C-106.92730243 494.946782 -109.2259043 494.46506241 -111.52477455 493.98462868 C-114.64124884 493.33287905 -117.75667326 492.67634246 -120.87182617 492.01831055 C-122.25220723 491.73100476 -122.25220723 491.73100476 -123.66047478 491.43789482 C-129.8855347 490.1144653 -129.8855347 490.1144653 -131 489 C-132.18040103 477.57130131 -129.48894128 467.64200654 -126.375 456.78515625 C-125.87922549 455.00578512 -125.38509458 453.22595536 -124.89247131 451.44570923 C-123.8355144 447.63928376 -122.76742445 443.83623546 -121.69021606 440.03549194 C-119.96647232 433.95344259 -118.26756363 427.86462025 -116.57202148 421.7746582 C-114.51109969 414.37889775 -112.44412188 406.98488323 -110.36886883 399.59313107 C-106.84830236 387.05322533 -103.3648933 374.50350418 -99.91015625 361.9453125 C-99.66753429 361.06355032 -99.42491234 360.18178814 -99.1749382 359.27330589 C-98.19985639 355.72926021 -97.22497119 352.18516057 -96.2504673 348.64095592 C-93.53985087 338.78344783 -90.81917402 328.92872174 -88.09765625 319.07421875 C-87.72567549 317.72712798 -87.72567549 317.72712798 -87.34617996 316.35282326 C-80.69063742 292.2509471 -74.02280867 268.15246712 -67.35476685 244.05404663 C-59.0683258 214.10657227 -50.79770147 184.15477225 -42.53863525 154.19973755 C-36.67744659 132.9420127 -30.80939117 111.68620574 -24.9296875 90.43359375 C-24.63386024 89.36427738 -24.33803299 88.29496101 -24.03324127 87.19324112 C-21.14441613 76.75136632 -18.2549757 66.30966208 -15.36429977 55.86829948 C-7.63135113 27.94809933 -7.63135113 27.94809933 0 0 Z " fill="#FFFFFF" transform="translate(668,270)"/>
<path d="M0 0 C8.30353117 1.32273195 16.53744739 2.87051526 24.76855469 4.58422852 C26.60754774 4.96419527 26.60754774 4.96419527 28.48369217 5.35183811 C31.8418442 6.04576734 35.19939483 6.74256646 38.55683899 7.43991137 C42.16369123 8.18854622 45.77109159 8.9345315 49.37841797 9.68087769 C56.39209023 11.13244595 63.40523052 12.5865686 70.4181819 14.04161525 C76.15412419 15.23164695 81.89028525 16.4206191 87.62658691 17.60891724 C141.69830048 28.81026574 195.76010716 40.05893682 249.81675339 51.3327713 C281.42887796 57.92552837 313.04394703 64.50412681 344.65929031 71.08142853 C348.58970351 71.89911837 352.52010816 72.71684931 356.4505102 73.53459275 C392.51677102 81.03837439 428.58384676 88.53822401 464.65234375 96.03125 C465.85015303 96.28008961 465.85015303 96.28008961 467.07216048 96.53395629 C475.94166261 98.37655365 484.81117726 100.21909076 493.68069458 102.06161499 C496.09061011 102.56224385 498.50052557 103.06287308 500.91044092 103.56350279 C502.50929577 103.89564454 504.10815079 104.22778547 505.70700598 104.55992556 C556.49365791 115.11017488 607.27733716 125.6746234 658.05787992 136.25423956 C660.4282424 136.74807131 662.79861005 137.24187825 665.16897964 137.73567581 C674.09855452 139.59589557 683.02807966 141.45635373 691.95751572 143.31723976 C694.64123945 143.87652466 697.32497841 144.43573642 700.00873184 144.99487877 C705.93181159 146.22899809 711.85471398 147.46394577 717.77706909 148.70153809 C721.80916098 149.54402251 725.84229857 150.38115728 729.87649536 151.21350098 C731.62478132 151.57622862 733.3730625 151.93897924 735.12133789 152.30175781 C735.90407546 152.46189739 736.68681303 152.62203697 737.49326992 152.78702927 C742.77378007 153.88689003 742.77378007 153.88689003 745 155 C745 242.45 745 329.9 745 420 C653.2075 420 653.2075 420 629.875 404.75 C623.27593954 400.45873951 616.64514176 396.2195191 610 392 C603.54576017 387.9004392 597.10131751 383.78754244 590.6875 379.625 C580.57379424 373.06208441 570.4119167 366.57461033 560.25390625 360.08056641 C553.96599996 356.06004289 547.68047221 352.03580226 541.39453125 348.01220703 C536.08675506 344.61493058 530.77834256 341.21865583 525.46875 337.82421875 C515.73596615 331.60079241 506.00885484 325.36990414 496.31835938 319.08081055 C489.62282325 314.74216147 482.88636825 310.46832851 476.15161133 306.19091797 C469.90436218 302.22018575 463.68098332 298.21481961 457.47265625 294.18359375 C451.67020297 290.42132253 445.83752983 286.70755945 440 283 C433.54580699 278.90036461 427.10131826 274.78754292 420.6875 270.625 C410.57379424 264.06208441 400.4119167 257.57461033 390.25390625 251.08056641 C383.96599996 247.06004289 377.68047221 243.03580226 371.39453125 239.01220703 C366.08675506 235.61493058 360.77834256 232.21865583 355.46875 228.82421875 C345.73596615 222.60079241 336.00885484 216.36990414 326.31835938 210.08081055 C320.56673459 206.3538078 314.78514106 202.67470736 309 199 C302.54583038 194.90032735 296.10131863 190.78754316 289.6875 186.625 C279.57379424 180.06208441 269.4119167 173.57461033 259.25390625 167.08056641 C252.96599996 163.06004289 246.68047221 159.03580226 240.39453125 155.01220703 C235.08675506 151.61493058 229.77834256 148.21865583 224.46875 144.82421875 C214.73596615 138.60079241 205.00885484 132.36990414 195.31835938 126.08081055 C189.56673459 122.3538078 183.78514106 118.67470736 178 115 C171.54583038 110.90032735 165.10131863 106.78754316 158.6875 102.625 C148.57379424 96.06208441 138.4119167 89.57461033 128.25390625 83.08056641 C121.96599996 79.06004289 115.68047221 75.03580226 109.39453125 71.01220703 C104.08675506 67.61493058 98.77834256 64.21865583 93.46875 60.82421875 C83.73596615 54.60079241 74.00885484 48.36990414 64.31835938 42.08081055 C57.6250401 37.74359797 50.89095383 33.47095624 44.15820312 29.1953125 C37.84942431 25.18583077 31.56457668 21.14165981 25.29907227 17.06494141 C21.46123013 14.57360505 17.6042266 12.1164744 13.7265625 9.6875 C12.84572998 9.13529785 11.96489746 8.5830957 11.05737305 8.01416016 C9.33688196 6.93771088 7.61444387 5.86436604 5.88989258 4.79443359 C5.12056396 4.31312988 4.35123535 3.83182617 3.55859375 3.3359375 C2.87079834 2.90845215 2.18300293 2.4809668 1.47436523 2.04052734 C0.98782471 1.69715332 0.50128418 1.3537793 0 1 C0 0.67 0 0.34 0 0 Z " fill="#FFFFFF" transform="translate(614,808)"/>
<path d="M0 0 C6.81156356 5.58746378 12.95380803 11.81602119 19.16831112 18.04526329 C20.41098688 19.28719888 21.65388208 20.52891492 22.89697614 21.77043182 C26.31751627 25.18790519 29.73493007 28.60848999 33.15184932 32.02958312 C36.86768971 35.74885911 40.58643337 39.46523031 44.30481201 43.18196833 C50.82293107 49.69801343 57.33918868 56.21591542 63.8542366 62.73503113 C73.54190395 72.42873036 83.23243369 82.11956431 92.92355641 91.80980895 C109.22501775 108.10995592 125.52415242 124.41242699 141.82195854 140.71622849 C157.96145762 156.86165051 174.10199164 173.00603677 190.24391365 189.14903641 C190.99594061 189.90111498 190.99594061 189.90111498 191.76316003 190.66838707 C196.34224917 195.2477894 200.92135105 199.82717898 205.50046825 204.40655326 C216.88351451 215.79023891 228.2664008 227.17408452 239.6491785 238.55803871 C240.42668869 239.33562887 240.42668869 239.33562887 241.21990614 240.12892792 C266.43263272 265.34427585 291.64351595 290.56146658 316.85424805 315.77880859 C325.60266479 324.52951701 334.35108969 333.28021727 343.09954834 342.03088379 C343.64213044 342.57360284 344.18471253 343.11632188 344.74373651 343.67548696 C369.96823025 368.90632508 395.19403354 394.13585375 420.4201746 419.36504485 C422.05792608 421.00299438 423.69567699 422.64094449 425.33342778 424.27889471 C436.1869119 435.13369861 447.0404186 445.98847995 457.8939404 456.84324618 C479.48965369 478.44143596 501.08523437 500.03975833 522.68072395 521.63817178 C523.70915158 522.66673865 524.73757929 523.69530542 525.7660071 524.7238721 C585.76175013 584.72771833 645.75487069 644.73418642 731 730 C728.95751862 732.04248138 727.73648383 732.65158188 725.10107422 733.69580078 C724.3003952 734.01598175 723.49971619 734.33616272 722.67477417 734.66604614 C721.81014557 735.00570404 720.94551697 735.34536194 720.0546875 735.6953125 C719.1696756 736.04761932 718.2846637 736.39992615 717.37283325 736.76290894 C714.54212467 737.88846842 711.70862465 739.0068048 708.875 740.125 C706.95684325 740.88624521 705.03887204 741.64795811 703.12109375 742.41015625 C698.41619932 744.27887396 693.70878867 746.14111803 689 748 C682.33724512 742.52403123 676.30611058 736.44411283 670.22212315 730.34517097 C669.02208305 729.14587112 667.82182351 727.9467908 666.62136522 726.74790955 C663.31920507 723.44881522 660.02017019 720.14661105 656.72163086 716.84389705 C653.13411637 713.25294619 649.54369777 709.66490097 645.95364469 706.07648838 C639.66083526 699.78575265 633.3698869 693.49316058 627.0801487 687.19935417 C617.72751302 677.840686 608.37201435 668.48488379 599.01592302 659.12967048 C583.2779347 643.39299647 567.5422725 627.65399822 551.80793953 611.91366959 C536.22665791 596.32646482 520.6443412 580.74029603 505.06063652 565.15551376 C504.57660539 564.67144822 504.09257425 564.18738267 503.59387551 563.68864847 C499.17297369 559.26743346 494.75205912 554.84623119 490.33112924 550.42504423 C479.34136263 539.43463824 468.351756 528.44407229 457.36225796 517.45339775 C456.86182921 516.95291568 456.36140046 516.45243362 455.8458072 515.93678543 C431.50489359 491.59325052 407.16582336 467.24787281 382.8269043 442.90234375 C374.3811202 434.45426799 365.93532795 426.00620037 357.48950195 417.5581665 C356.96568853 417.03421613 356.4418751 416.51026575 355.90218854 415.9704381 C331.5497975 391.61170255 307.1960968 367.25427655 282.84205835 342.89718811 C281.26090713 341.31583882 279.67975647 339.73448897 278.09860593 338.153139 C267.6202068 327.67342009 257.14178511 317.19372375 246.6633483 306.71404252 C225.81399525 285.86221299 204.96477481 265.01025087 184.11564548 244.15819765 C183.12276347 243.1651764 182.12988137 242.17215525 181.13699918 241.17913419 C119.91151501 179.94508467 58.68892381 118.70814282 -17 43 C-15.42099176 38.87694298 -13.83960058 34.75480376 -12.2578125 30.6328125 C-11.81542236 29.4775708 -11.37303223 28.3223291 -10.91723633 27.13208008 C-7.42109192 18.02666625 -3.78142187 8.99026789 0 0 Z " fill="#FFFFFF" transform="translate(672,211)"/>
<path d="M0 0 C0.88574707 0.55655273 1.77149414 1.11310547 2.68408203 1.68652344 C5.41448183 3.42757498 8.11521817 5.20811602 10.8125 7 C12.83133686 8.32918029 14.85088651 9.65727847 16.87109375 10.984375 C17.88800293 11.65275391 18.90491211 12.32113281 19.95263672 13.00976562 C24.73335231 16.1320532 29.55215947 19.1933298 34.375 22.25 C40.70502294 26.26516378 47.02492064 30.29365592 53.3125 34.375 C63.42614585 40.93800673 73.58808421 47.42539025 83.74609375 53.91943359 C90.03400004 57.93995711 96.31952779 61.96419774 102.60546875 65.98779297 C107.91324494 69.38506942 113.22165744 72.78134417 118.53125 76.17578125 C128.26403385 82.39920759 137.99114516 88.63009586 147.68164062 94.91918945 C154.37717675 99.25783853 161.11363175 103.53167149 167.84838867 107.80908203 C174.09563782 111.77981425 180.31901668 115.78518039 186.52734375 119.81640625 C192.32979703 123.57867747 198.16247017 127.29244055 204 131 C210.45419301 135.09963539 216.89868174 139.21245708 223.3125 143.375 C233.42620576 149.93791559 243.5880833 156.42538967 253.74609375 162.91943359 C260.03400004 166.93995711 266.31952779 170.96419774 272.60546875 174.98779297 C277.91324494 178.38506942 283.22165744 181.78134417 288.53125 185.17578125 C298.26403385 191.39920759 307.99114516 197.63009586 317.68164062 203.91918945 C323.43326541 207.6461922 329.21485894 211.32529264 335 215 C341.45416962 219.09967265 347.89868137 223.21245684 354.3125 227.375 C364.42620576 233.93791559 374.5880833 240.42538967 384.74609375 246.91943359 C391.03400004 250.93995711 397.31952779 254.96419774 403.60546875 258.98779297 C408.91324494 262.38506942 414.22165744 265.78134417 419.53125 269.17578125 C429.26403385 275.39920759 438.99114516 281.63009586 448.68164062 287.91918945 C454.43326541 291.6461922 460.21485894 295.32529264 466 299 C472.45416962 303.09967265 478.89868137 307.21245684 485.3125 311.375 C495.42620576 317.93791559 505.5880833 324.42538967 515.74609375 330.91943359 C522.03400004 334.93995711 528.31952779 338.96419774 534.60546875 342.98779297 C539.91324494 346.38506942 545.22165744 349.78134417 550.53125 353.17578125 C560.26403385 359.39920759 569.99114516 365.63009586 579.68164062 371.91918945 C586.37717675 376.25783853 593.11363175 380.53167149 599.84838867 384.80908203 C606.09563782 388.77981425 612.31901668 392.78518039 618.52734375 396.81640625 C624.32979703 400.57867747 630.16247017 404.29244055 636 408 C642.45419301 412.09963539 648.89868174 416.21245708 655.3125 420.375 C665.40132928 426.92177291 675.53827194 433.39316526 685.67138672 439.87109375 C689.07490308 442.04790633 692.47712041 444.22673477 695.87890625 446.40625 C697.00975893 447.13062569 698.14061823 447.85499104 699.27148438 448.5793457 C701.40709388 449.94737153 703.54252144 451.31568146 705.67773438 452.68432617 C711.09854824 456.15574577 716.53370104 459.60062502 722 463 C718.50548148 477.80572322 714.23088378 492.39205776 710 507 C702.52889596 503.06434515 695.40660755 498.79589843 688.375 494.125 C686.34958366 492.7920181 684.32351925 491.46002051 682.296875 490.12890625 C681.25982422 489.44715332 680.22277344 488.76540039 679.15429688 488.06298828 C674.00131193 484.6928085 668.81437181 481.37627875 663.625 478.0625 C662.59294434 477.40306396 661.56088867 476.74362793 660.49755859 476.06420898 C658.3960361 474.72185048 656.29430998 473.3798107 654.19238281 472.03808594 C648.79295077 468.59097224 643.39616841 465.13971985 638 461.6875 C636.94828613 461.01468994 635.89657227 460.34187988 634.81298828 459.64868164 C628.36647438 455.52207857 621.93347198 451.37544192 615.51171875 447.21044922 C605.03923078 440.42485771 594.51395421 433.72106396 584 427 C559.42217593 411.28858218 559.42217593 411.28858218 548.52929688 404.22143555 C541.11584698 399.41678509 533.66874672 394.66479045 526.2253418 389.90673828 C520.24265914 386.08069387 514.26907619 382.24154946 508.3125 378.375 C501.89875084 374.21235104 495.45416835 370.09967184 489 366 C482.54583038 361.90032735 476.10131863 357.78754316 469.6875 353.625 C458.49387659 346.36131176 447.24291228 339.1870517 436 332 C411.62340465 316.417218 411.62340465 316.417218 400.51171875 309.21044922 C390.03923078 302.42485771 379.51395421 295.72106396 369 289 C344.62340465 273.417218 344.62340465 273.417218 333.51171875 266.21044922 C323.03923078 259.42485771 312.51395421 252.72106396 302 246 C277.62340465 230.417218 277.62340465 230.417218 266.51171875 223.21044922 C256.03923078 216.42485771 245.51395421 209.72106396 235 203 C210.62340465 187.417218 210.62340465 187.417218 199.51171875 180.21044922 C189.03923078 173.42485771 178.51395421 166.72106396 168 160 C143.42217593 144.28858218 143.42217593 144.28858218 132.52929688 137.22143555 C125.11584698 132.41678509 117.66874672 127.66479045 110.2253418 122.90673828 C104.24265914 119.08069387 98.26907619 115.24154946 92.3125 111.375 C85.89875084 107.21235104 79.45416835 103.09967184 73 99 C66.54583038 94.90032735 60.10131863 90.78754316 53.6875 86.625 C42.49387659 79.36131176 31.24291228 72.1870517 20 65 C-4.71987177 49.19777793 -4.71987177 49.19777793 -15.4465332 42.23681641 C-23.09078327 37.28174575 -30.77054112 32.38194801 -38.44921875 27.48046875 C-40.44618861 26.2046269 -42.44158708 24.92632057 -44.43505859 23.64501953 C-45.97403008 22.65800355 -47.51729178 21.67756252 -49.06884766 20.71044922 C-50.41322376 19.85836878 -51.71478416 18.93894007 -53 18 C-53 17.34 -53 16.68 -53 16 C-52.26064209 15.61779297 -51.52128418 15.23558594 -50.75952148 14.84179688 C-48.55917359 13.70388067 -46.3594371 12.56478181 -44.16015625 11.42480469 C-41.6730844 10.13663323 -39.18186887 8.85698723 -36.6875 7.58300781 C-28.84001567 3.56560051 -28.84001567 3.56560051 -21.25390625 -0.921875 C-20.27369507 -1.52418945 -20.27369507 -1.52418945 -19.27368164 -2.13867188 C-17.62991449 -3.16860003 -16.01647611 -4.24650847 -14.40625 -5.328125 C-8.65351525 -6.46283874 -4.73365286 -3.05556852 0 0 Z " fill="#FFFFFF" transform="translate(546,766)"/>
<path d="M0 0 C2.31 1.98 4.62 3.96 7 6 C8.33679419 7.0718849 9.68018566 8.13568255 11.03450942 9.18533158 C26.87069071 21.72077538 43.77213014 35.30238034 46.70598218 56.3213788 C47.79192186 67.14657999 47.52831018 78.01640206 47.17836237 88.87257218 C47.02036408 95.04362736 47.07567745 101.21367126 47.10284424 107.38618469 C47.12157001 118.03801019 47.01158991 128.680985 46.80628204 139.33022308 C46.59195368 150.47637206 46.45445537 161.61929945 46.41558075 172.7674942 C46.41310612 173.4651247 46.4106315 174.1627552 46.40808188 174.88152601 C46.39589891 178.42562333 46.3850502 181.96972339 46.37471434 185.51382652 C46.2994495 210.50309007 46.05791485 235.4881796 45.71582031 260.47509766 C45.38423659 284.722596 45.12970013 308.9689448 44.97753906 333.21826172 C44.97043665 334.34290666 44.97043665 334.34290666 44.96319075 335.4902717 C44.91571683 343.02091397 44.8697886 350.55156501 44.82499182 358.08222365 C44.73373135 373.41785242 44.63216639 388.75340722 44.52435303 404.08892822 C44.51941059 404.79375769 44.51446815 405.49858716 44.50937594 406.22477509 C44.17913378 453.15161984 43.60806791 500.07601755 43 547 C39.12697982 549.00936658 35.25324283 551.01734319 31.37890625 553.02416992 C30.06784794 553.70349875 28.75696825 554.38317242 27.44628906 555.06323242 C25.53500431 556.05483983 23.62302537 557.04509852 21.7109375 558.03515625 C19.99849854 558.92279663 19.99849854 558.92279663 18.25146484 559.82836914 C12.1879209 562.92560259 6.08995371 565.95502315 0 569 C0 381.23 0 193.46 0 0 Z " fill="#FFFFFF" transform="translate(492,212)"/>
<path d="M0 0 C8.09727613 1.29544582 16.13365399 2.78339632 24.16333008 4.44482422 C25.90821244 4.80304276 25.90821244 4.80304276 27.68834496 5.16849804 C30.87816943 5.82385661 34.0675729 6.48121832 37.25679183 7.13951612 C40.69799597 7.84933949 44.13972334 8.55661785 47.58137512 9.26426697 C54.30665052 10.64753186 61.03139761 12.03334888 67.75595623 13.4200936 C73.28208471 14.55964327 78.80842735 15.69814929 84.3348999 16.83602905 C133.58681932 26.97713548 182.82762678 37.17145763 232.06248569 47.39503479 C239.08588095 48.85342674 246.10932306 50.31159294 253.1328125 51.76953125 C254.18401657 51.98774269 254.18401657 51.98774269 255.25645709 52.21036243 C278.89454002 57.11699795 302.53606021 62.00687273 326.1796875 66.88671875 C326.98451899 67.05282976 327.78935048 67.21894078 328.6185708 67.39008546 C340.08856723 69.75734296 351.55872195 72.12383308 363.02890301 74.49019575 C376.97771204 77.36793067 390.92645215 80.24599934 404.875 83.125 C405.68069726 83.29129654 406.48639453 83.45759307 407.31650686 83.6289289 C430.67169008 88.44962589 454.0247651 93.28039059 477.375 98.125 C478.06552051 98.26826587 478.75604101 98.41153175 479.46748638 98.55913901 C491.16981129 100.98716059 502.87189159 103.41636042 514.57392883 105.84576797 C524.13772747 107.83125475 533.70159677 109.81640068 543.265625 111.80078125 C544.29148193 112.01363057 544.29148193 112.01363057 545.33806324 112.23077989 C570.00884746 117.34931277 594.6834073 122.44948831 619.359375 127.54296875 C620.67166958 127.81385244 620.67166958 127.81385244 622.01047516 128.09020853 C638.42181567 131.4777957 654.83334467 134.86446928 671.24536133 138.2487793 C672.05640257 138.41602693 672.86744381 138.58327457 673.70306206 138.75559032 C678.53737447 139.75248702 678.53737447 139.75248702 683.3717041 140.74930024 C691.76546133 142.47999988 700.15895509 144.211952 708.55151367 145.94845581 C709.26939245 146.09697601 709.98727123 146.2454962 710.72690392 146.39851701 C716.71131511 147.63661951 716.71131511 147.63661951 719.19690704 148.15103889 C727.3178824 149.83147827 735.44103978 151.50054747 743.5682869 153.15045071 C747.67690968 153.98545759 751.78414227 154.8271562 755.89110565 155.67028236 C757.71380053 156.04258533 759.53717281 156.41159058 761.36127472 156.77693748 C763.78530037 157.26256268 766.2067668 157.75936376 768.62792969 158.2590332 C769.31451912 158.39330782 770.00110855 158.52758244 770.70850372 158.66592598 C776.58290233 159.90014033 780.49968323 162.24125389 784.6887207 166.46166992 C785.70921257 167.48238838 785.70921257 167.48238838 786.75032043 168.52372742 C787.4682225 169.25195206 788.18612457 169.9801767 788.92578125 170.73046875 C790.04716743 171.85609978 790.04716743 171.85609978 791.19120789 173.00447083 C793.56972071 175.39414753 795.94117123 177.79069633 798.3125 180.1875 C799.92727297 181.81230764 801.54250226 183.43666193 803.15820312 185.06054688 C807.11077201 189.03512584 811.05757065 193.01536468 815 197 C812.439747 198.2801265 811.44488201 197.85186902 808.66532898 197.27018738 C807.74969775 197.08201919 806.83406652 196.89385099 805.8906889 196.69998074 C804.37218193 196.37705595 804.37218193 196.37705595 802.82299805 196.04760742 C801.75271016 195.82558434 800.68242228 195.60356127 799.57970142 195.37481022 C795.97233583 194.62478639 792.36707853 193.86507135 788.76171875 193.10546875 C786.1950713 192.56985553 783.62829583 192.03485545 781.06140137 191.50042725 C775.52231109 190.34624302 769.98425935 189.18718269 764.4468689 188.02487183 C756.35279853 186.32596786 748.25712538 184.63480709 740.16099703 182.94574082 C727.91109017 180.3900241 715.66201446 177.83035526 703.4135536 175.2677182 C685.92412377 171.60870786 668.43174135 167.96405679 650.9375 164.328125 C649.65909052 164.06241007 648.38068104 163.79669514 647.06353188 163.52292824 C641.93420346 162.45684466 636.80485823 161.39084204 631.67548084 160.32499409 C618.77216589 157.64372054 605.86948574 154.95939822 592.96686745 152.27477455 C586.49274111 150.92772406 580.01858705 149.58080685 573.54443359 148.23388672 C572.26306046 147.96730035 570.98168734 147.70071398 569.66148472 147.42604923 C555.36425415 144.45158206 541.0669008 141.47770525 526.76953125 138.50390625 C525.47988653 138.23566481 524.19024181 137.96742336 522.86151695 137.69105339 C516.34685796 136.33603064 509.8321971 134.98101685 503.3175354 133.62600708 C491.59699147 131.18820119 479.87646403 128.75031597 468.15593529 126.31243706 C461.64562419 124.95828815 455.13531204 123.60414433 448.625 122.25 C446.02083333 121.70833336 443.41666666 121.16666669 440.8125 120.625 C439.5234375 120.356875 438.234375 120.08875 436.90625 119.8125 C431.046875 118.59375 431.046875 118.59375 425.1875 117.375 C423.89843435 117.10687437 422.60936871 116.83874874 421.28124046 116.56249809 C418.67710555 116.02083798 416.07297067 115.47917767 413.46883583 114.93751717 C406.95793374 113.58324864 400.44703095 112.22898351 393.93612671 110.87472534 C382.22317245 108.43844527 370.51022308 106.00214166 358.79730034 103.56571007 C352.29455791 102.21306065 345.7918113 100.86043129 339.2890625 99.5078125 C338.00121479 99.23993046 336.71336708 98.97204842 335.38649368 98.69604874 C320.99574163 95.70269637 306.60490412 92.70975585 292.21386719 89.71777344 C291.56169763 89.5821825 290.90952807 89.44659156 290.2375958 89.3068918 C284.30576363 88.07362122 278.37392867 86.84036402 272.44207382 85.60720253 C258.10471354 82.62662726 243.76758309 79.64495613 229.43115234 76.65991211 C225.58385482 75.85891155 221.73655342 75.05792963 217.88924789 74.25696754 C215.33039729 73.72424531 212.77155176 73.19149873 210.21271133 72.65872765 C194.23816627 69.3330542 178.26167815 66.01700549 162.28265953 62.71290588 C151.43730076 60.47027526 140.59291035 58.22300366 129.74920082 55.97241211 C122.09888781 54.38501222 114.44731896 52.80386302 106.79473877 51.2274313 C102.10690741 50.26011126 97.42037009 49.28663792 92.73418427 48.31138039 C90.56810604 47.86189726 88.4014953 47.4149716 86.23432159 46.9708004 C83.27730855 46.36439208 80.3223305 45.74888441 77.36767578 45.13110352 C76.51357054 44.9582527 75.65946529 44.78540188 74.77947807 44.60731316 C68.03263166 43.18028199 62.21395427 40.97429831 56.3828125 37.20703125 C55.54105469 36.66715576 54.69929687 36.12728027 53.83203125 35.57104492 C52.93871094 34.9907251 52.04539062 34.41040527 51.125 33.8125 C50.17753906 33.20317627 49.23007812 32.59385254 48.25390625 31.96606445 C46.22430408 30.66068229 44.19602195 29.35324584 42.16894531 28.04394531 C37.8645694 25.26765601 33.54807165 22.5105016 29.23168945 19.75292969 C26.06026713 17.72601778 22.89118903 15.69548773 19.72265625 13.6640625 C16.25638182 11.44239956 12.78629161 9.22717247 9.30859375 7.0234375 C8.64021484 6.59844971 7.97183594 6.17346191 7.28320312 5.7355957 C5.58477 4.65610216 3.88427819 3.57984947 2.18359375 2.50390625 C1.46300781 2.00761719 0.74242187 1.51132812 0 1 C0 0.67 0 0.34 0 0 Z " fill="#FFFFFF" transform="translate(544,763)"/>
<path d="M0 0 C33.99 0 67.98 0 103 0 C94.97153575 30.96693352 94.97153575 30.96693352 91.78515625 42.328125 C91.41307484 43.66243921 91.04124364 44.99682321 90.66963196 46.33126831 C89.88094785 49.16197976 89.09092428 51.99231199 88.29974365 54.82232666 C86.32586685 61.88372008 84.36040954 68.94746042 82.39424896 76.0110054 C81.92922699 77.68153734 81.46412326 79.35204652 80.99893951 81.02253342 C75.6744481 100.14352392 70.39589007 119.27711378 65.12260056 138.41227722 C62.84015658 146.69429056 60.55685347 154.9760671 58.2734375 163.2578125 C58.01779211 164.18505127 57.76214672 165.11229004 57.4987545 166.06762695 C53.5187092 180.5026185 49.53139931 194.93559083 45.5390625 209.3671875 C45.135151 210.82732741 45.135151 210.82732741 44.72307968 212.3169651 C42.00746728 222.13360112 39.29095944 231.94998857 36.57253838 241.76584721 C35.22507939 246.63155813 33.87803302 251.49738319 32.53125 256.36328125 C32.26481815 257.32588552 31.99838631 258.2884898 31.72388077 259.2802639 C27.78144321 273.52737784 23.86077405 287.7803698 19.95239258 302.03686142 C18.27575977 308.1508341 16.59649519 314.26408469 14.91738892 320.37737846 C13.32243058 326.18596756 11.73235349 331.99586501 10.14586639 337.80677319 C9.17282611 341.36647385 8.19534681 344.92494415 7.21662903 348.48308754 C6.76414327 350.13185322 6.31357293 351.78114591 5.86503601 353.43099022 C5.25419724 355.67699397 4.63673472 357.92107238 4.01757812 360.16479492 C3.67408325 361.42015549 3.33058838 362.67551605 2.97668457 363.96891785 C2 367 2 367 0 370 C0 247.9 0 125.8 0 0 Z " fill="#FFFFFF" transform="translate(537,255)"/>
<path d="M0 0 C0 108.24 0 216.48 0 328 C-2.31 326.02 -4.62 324.04 -7 322 C-8.33321826 320.98178928 -9.67847355 319.97879921 -11.04357529 319.00374985 C-25.99875835 307.99616086 -42.05861352 295.00749949 -45.70212817 275.93184257 C-47.77335639 260.79937912 -47.28197123 245.43553498 -46.72736646 230.20947476 C-46.46482703 222.799148 -46.41552038 215.39124154 -46.37471434 207.97692689 C-46.29662554 194.7654162 -46.05908138 181.56207388 -45.71582031 168.35498047 C-45.38347543 155.55427925 -45.12962344 142.75582543 -44.97753906 129.95166016 C-44.96808102 129.15761639 -44.95862297 128.36357263 -44.94887832 127.54546693 C-44.90188439 123.56050837 -44.85639392 119.57553434 -44.8116498 115.59054995 C-44.44065314 82.72109295 -43.808633 49.86165456 -43 17 C-37.03784581 14.5765194 -31.07460869 12.15571902 -25.1105957 9.73681641 C-23.08006906 8.91289587 -21.04979505 8.08835246 -19.01977539 7.26318359 C-16.10889152 6.08008222 -13.1971189 4.89919323 -10.28515625 3.71875 C-9.3716188 3.34689575 -8.45808136 2.9750415 -7.51686096 2.59191895 C-6.67606491 2.25156616 -5.83526886 1.91121338 -4.96899414 1.56054688 C-4.22508926 1.2585437 -3.48118439 0.95654053 -2.71473694 0.64538574 C-1 0 -1 0 0 0 Z " fill="#FFFFFF" transform="translate(1404,943)"/>
<path d="M0 0 C6.25380414 0.08308194 9.73405332 2.28900307 14.25 6.3125 C14.85618164 6.78896973 15.46236328 7.26543945 16.08691406 7.75634766 C18.13303278 9.78103785 18.88786866 11.10503435 19.75 13.875 C19.37501568 16.52770861 18.89372015 18.88961241 18.20410156 21.45874023 C18.01582668 22.20451765 17.8275518 22.95029507 17.63357162 23.7186718 C17.02347706 26.10915012 16.38981901 28.49231828 15.75 30.875 C15.44947723 32.00765824 15.44947723 32.00765824 15.1428833 33.16319847 C13.64272665 38.80035282 12.08265602 44.42020115 10.515625 50.0390625 C10.00430542 51.882225 9.49329758 53.72547401 8.98257446 55.56880188 C7.8937144 59.49649331 6.80286797 63.42362515 5.71038818 67.35031128 C3.96645479 73.61874985 2.22719089 79.88847813 0.48876953 86.15844727 C-1.3139012 92.65957034 -3.11672315 99.16065086 -4.92098999 105.66133118 C-10.51451677 125.81569644 -16.08029171 145.97766354 -21.63871002 166.14173508 C-22.87582859 170.62916935 -24.11346377 175.11646113 -25.35107422 179.60375977 C-28.31780344 190.36072387 -31.28394913 201.11784884 -34.25 211.875 C-38.20788397 226.22929061 -42.1660622 240.5835 -46.125 254.9375 C-46.3709214 255.82916241 -46.6168428 256.72082481 -46.87021637 257.63950729 C-52.80464326 279.15621506 -58.74460591 300.6713822 -64.6953125 322.18359375 C-64.9650526 323.15876701 -65.23479271 324.13394028 -65.51270676 325.13866425 C-68.23343006 334.97448472 -70.95487907 344.81010349 -73.67859459 354.64509583 C-79.24019524 374.72803684 -84.7879906 394.81458927 -90.29760742 414.91186142 C-91.97424023 421.0258341 -93.65350481 427.13908469 -95.33261108 433.25237846 C-96.92756942 439.06096756 -98.51764651 444.87086501 -100.10413361 450.68177319 C-101.07717389 454.24147385 -102.05465319 457.79994415 -103.03337097 461.35808754 C-103.48585673 463.00685322 -103.93642707 464.65614591 -104.38496399 466.30599022 C-104.99580276 468.55199397 -105.61326528 470.79607238 -106.23242188 473.03979492 C-106.57591675 474.29515549 -106.91941162 475.55051605 -107.27331543 476.84391785 C-108.25 479.875 -108.25 479.875 -110.25 482.875 C-112.82483559 431.81711958 -114.25451281 382.11598382 -99.375 332.75 C-99.09845833 331.83191936 -98.82191666 330.91383873 -98.53699493 329.96793747 C-95.98694743 321.55250934 -93.35600623 313.16365496 -90.6428833 304.7993927 C-86.30162882 291.40831883 -82.35136771 277.94730337 -78.64453125 264.3671875 C-78.37735039 263.38898922 -78.11016953 262.41079094 -77.83489227 261.40295029 C-76.48587424 256.45734189 -75.14267524 251.51017649 -73.80194092 246.56231689 C-71.39214251 237.68168281 -68.92701288 228.81636436 -66.46630096 219.94973373 C-65.11567323 215.08106427 -63.76851337 210.21143602 -62.42138672 205.34179688 C-62.15724724 204.38710447 -61.89310776 203.43241207 -61.62096405 202.4487896 C-56.82003022 185.09379087 -52.03604676 167.73410861 -47.25 150.375 C-37.64151539 115.52545125 -28.0105929 80.68213754 -18.36845684 45.84188461 C-17.29379961 41.95871421 -16.21927404 38.07550737 -15.14475441 34.19229889 C-14.4104447 31.53885909 -13.67589652 28.8854854 -12.94132996 26.2321167 C-12.71513883 25.41464085 -12.4889477 24.59716499 -12.25590229 23.75491714 C-11.82526253 22.19888933 -11.39425317 20.64296374 -10.96282482 19.08715439 C-9.54732625 13.97602544 -8.16726229 8.85624776 -6.82331848 3.72576904 C-5.70591341 0.11859645 -3.5355015 0.37946482 0 0 Z " fill="#FFFFFF" transform="translate(647.25,254.125)"/>
<path d="M0 0 C58.41 0 116.82 0 177 0 C165.39285714 30.17857143 165.39285714 30.17857143 160 43 C141.22313276 44.27664225 122.43812996 45.13825185 103.625 45.625 C102.94131316 45.64317449 102.25762632 45.66134898 101.5532217 45.68007421 C39.94625563 47.2730198 39.94625563 47.2730198 21.59555054 30.90234375 C12.79095827 22.49781874 5.15360006 12.0401867 0 1 C0 0.67 0 0.34 0 0 Z " fill="#FFFFFF" transform="translate(494,210)"/>
<path d="M0 0 C1.21679978 -0.0999837 1.21679978 -0.0999837 2.45818138 -0.20198727 C13.20244696 -1.04438014 23.95807902 -1.5562855 34.72875977 -1.9074707 C35.7603698 -1.94188641 36.79197983 -1.97630211 37.85485077 -2.01176071 C82.98841166 -3.34635021 82.98841166 -3.34635021 100.73149109 12.88084412 C109.78976824 21.61167335 118.0044467 31.878366 124.29125977 42.7800293 C124.29125977 43.1100293 124.29125977 43.4400293 124.29125977 43.7800293 C76.77125977 43.7800293 29.25125977 43.7800293 -19.70874023 43.7800293 C-18.58353796 35.90361337 -18.58353796 35.90361337 -17.69311523 32.78833008 C-17.49621094 32.09136017 -17.29930664 31.39439026 -17.09643555 30.67630005 C-16.88599609 29.94998383 -16.67555664 29.2236676 -16.45874023 28.4753418 C-16.24056641 27.71075653 -16.02239258 26.94617126 -15.79760742 26.15841675 C-15.33922397 24.55606247 -14.87857921 22.9543535 -14.41577148 21.35327148 C-13.70528159 18.89305302 -13.00339723 16.43049299 -12.30249023 13.9675293 C-11.85507841 12.40748859 -11.40717929 10.84758753 -10.95874023 9.2878418 C-10.74830078 8.54938019 -10.53786133 7.81091858 -10.32104492 7.05007935 C-8.33254985 0.2025249 -6.76004591 0.5453337 0 0 Z " fill="#FFFFFF" transform="translate(1277.708740234375,1229.219970703125)"/>
<path d="M0 0 C0.66 0.33 1.32 0.66 2 1 C2 38.29 2 75.58 2 114 C61.4 114 120.8 114 182 114 C182.33 114.66 182.66 115.32 183 116 C123.27 116 63.54 116 2 116 C2 355.91 2 595.82 2 843 C1.34 843 0.68 843 0 843 C0 603.09 0 363.18 0 116 C-239.91 116 -479.82 116 -727 116 C-727 115.34 -727 114.68 -727 114 C-487.09 114 -247.18 114 0 114 C0 79.02 0 44.04 0 8 C-5.94 8.99 -11.88 9.98 -18 11 C-19.98 11 -21.96 11 -24 11 C-24 10.01 -24 9.02 -24 8 C-155.01 8 -286.02 8 -421 8 C-421 7.34 -421 6.68 -421 6 C-289.99 6 -158.98 6 -24 6 C-24 5.34 -24 4.68 -24 4 C-15.89963866 4.54576903 -7.98651182 5.54147036 0 7 C0 4.69 0 2.38 0 0 Z " fill="#0080FF" transform="translate(1404,94)"/>
<path d="M0 0 C0.99 0.495 0.99 0.495 2 1 C2 2.98 2 4.96 2 7 C3.62808594 6.67515625 3.62808594 6.67515625 5.2890625 6.34375 C6.7343179 6.06220674 8.17963365 5.78097314 9.625 5.5 C10.33785156 5.35691406 11.05070312 5.21382813 11.78515625 5.06640625 C15.92144935 4.26950574 19.76433679 3.83965944 24 4 C24 4.66 24 5.32 24 6 C155.34 6 286.68 6 422 6 C422.33 6.66 422.66 7.32 423 8 C291.33 8 159.66 8 24 8 C24 8.99 24 9.98 24 11 C22.20779424 10.88298313 20.41624915 10.75584692 18.625 10.625 C17.12839844 10.52058594 17.12839844 10.52058594 15.6015625 10.4140625 C11.02698538 9.88813498 6.51528979 8.90305796 2 8 C2 41.66 2 75.32 2 110 C1.34 110 0.68 110 0 110 C0 73.7 0 37.4 0 0 Z " fill="#0080FF" transform="translate(490,94)"/>
<path d="M0 0 C0.66 0 1.32 0 2 0 C2.50400451 2.91602609 3.00334666 5.83272092 3.5 8.75 C3.64308594 9.575 3.78617188 10.4 3.93359375 11.25 C4.06894531 12.04921875 4.20429687 12.8484375 4.34375 13.671875 C4.46943359 14.4050293 4.59511719 15.13818359 4.72460938 15.89355469 C5 18 5 18 5 22 C4.34 22 3.68 22 3 22 C3 129.91 3 237.82 3 349 C2.34 349 1.68 349 1 349 C1 241.09 1 133.18 1 22 C-0.32 22 -1.64 22 -3 22 C-2.68905914 19.45813394 -2.37629464 16.91651402 -2.0625 14.375 C-1.97548828 13.66214844 -1.88847656 12.94929687 -1.79882812 12.21484375 C-1.29217395 8.12408039 -0.7110957 4.06157365 0 0 Z " fill="#0080FF" transform="translate(1578,212)"/>
<path d="M0 0 C0.66 0.33 1.32 0.66 2 1 C2 109.57 2 218.14 2 330 C2.66 330 3.32 330 4 330 C3.01 336.6 2.02 343.2 1 350 C0.34 350 -0.32 350 -1 350 C-2.485 340.1 -2.485 340.1 -4 330 C-2.68 330 -1.36 330 0 330 C0 221.1 0 112.2 0 0 Z " fill="#0080FF" transform="translate(1579,589)"/>
<path d="M0 0 C0.66 0 1.32 0 2 0 C2.50400451 2.91602609 3.00334666 5.83272092 3.5 8.75 C3.64308594 9.575 3.78617188 10.4 3.93359375 11.25 C4.06894531 12.04921875 4.20429688 12.8484375 4.34375 13.671875 C4.46943359 14.4050293 4.59511719 15.13818359 4.72460938 15.89355469 C5 18 5 18 5 22 C4.34 22 3.68 22 3 22 C3 103.84 3 185.68 3 270 C2.34 270 1.68 270 1 270 C1 188.16 1 106.32 1 22 C-0.32 22 -1.64 22 -3 22 C-2.68905914 19.45813394 -2.37629464 16.91651402 -2.0625 14.375 C-1.97548828 13.66214844 -1.88847656 12.94929687 -1.79882812 12.21484375 C-1.29217395 8.12408039 -0.7110957 4.06157365 0 0 Z " fill="#0080FF" transform="translate(237,212)"/>
<path d="M0 0 C0.66 0.33 1.32 0.66 2 1 C2 83.17 2 165.34 2 250 C2.66 250 3.32 250 4 250 C3.01 256.6 2.02 263.2 1 270 C0.34 270 -0.32 270 -1 270 C-2.485 260.1 -2.485 260.1 -4 250 C-2.68 250 -1.36 250 0 250 C0 167.5 0 85 0 0 Z " fill="#0080FF" transform="translate(238,510)"/>
<path d="M0 0 C0.99 0.495 0.99 0.495 2 1 C2 23.44 2 45.88 2 69 C7.28 68.01 12.56 67.02 18 66 C19.98 66 21.96 66 24 66 C24 66.66 24 67.32 24 68 C50.4 68 76.8 68 104 68 C104.33 68.66 104.66 69.32 105 70 C78.27 70 51.54 70 24 70 C24 70.99 24 71.98 24 73 C16.52165033 72.51172287 9.31074682 71.66594452 2 70 C2 71.98 2 73.96 2 76 C1.34 76 0.68 76 0 76 C0 50.92 0 25.84 0 0 Z " fill="#0080FF" transform="translate(1404,1279)"/>
<path d="M0 0 C0.66 0 1.32 0 2 0 C2.50400451 2.91602609 3.00334666 5.83272092 3.5 8.75 C3.64308594 9.575 3.78617188 10.4 3.93359375 11.25 C4.06894531 12.04921875 4.20429687 12.8484375 4.34375 13.671875 C4.46943359 14.4050293 4.59511719 15.13818359 4.72460938 15.89355469 C5 18 5 18 5 22 C4.34 22 3.68 22 3 22 C3 63.91 3 105.82 3 149 C2.34 149 1.68 149 1 149 C1 107.09 1 65.18 1 22 C-0.32 22 -1.64 22 -3 22 C-2.68905914 19.45813394 -2.37629464 16.91651402 -2.0625 14.375 C-1.97548828 13.66214844 -1.88847656 12.94929687 -1.79882812 12.21484375 C-1.29217395 8.12408039 -0.7110957 4.06157365 0 0 Z " fill="#0080FF" transform="translate(1579,945)"/>
<path d="M0 0 C0.66 0.33 1.32 0.66 2 1 C2 43.24 2 85.48 2 129 C2.66 129 3.32 129 4 129 C3.01 135.6 2.02 142.2 1 149 C0.34 149 -0.32 149 -1 149 C-1.99 142.4 -2.98 135.8 -4 129 C-2.68 129 -1.36 129 0 129 C0 86.43 0 43.86 0 0 Z " fill="#0080FF" transform="translate(1580,1122)"/>
<path d="M0 0 C1.25 6.625 1.25 6.625 -1 10 C-0.484375 10.53625 0.03125 11.0725 0.5625 11.625 C2 14 2 14 1.875 17.0625 C0.97811095 20.07348467 0.56724042 21.257944 -2 23 C-4.9842702 24.02093454 -6.62051343 24.09707796 -9.6875 23.3125 C-12.41767393 21.76294182 -13.16261583 21.01458301 -14 18 C-13.625 14.75 -13.625 14.75 -13 12 C-12.01 11.67 -11.02 11.34 -10 11 C-10.515625 10.484375 -11.03125 9.96875 -11.5625 9.4375 C-13.57265701 6.0289729 -12.79727396 3.76893143 -12 0 C-7.44729118 -2.48329572 -4.775353 -1.68541871 0 0 Z " fill="#0080FF" transform="translate(1558,1338)"/>
<path d="M0 0 C1.25 6.625 1.25 6.625 -1 10 C-0.484375 10.53625 0.03125 11.0725 0.5625 11.625 C2 14 2 14 1.875 17.0625 C0.97811095 20.07348467 0.56724042 21.257944 -2 23 C-4.9842702 24.02093454 -6.62051343 24.09707796 -9.6875 23.3125 C-12.41767393 21.76294182 -13.16261583 21.01458301 -14 18 C-13.625 14.75 -13.625 14.75 -13 12 C-12.01 11.67 -11.02 11.34 -10 11 C-10.515625 10.484375 -11.03125 9.96875 -11.5625 9.4375 C-13.57265701 6.0289729 -12.79727396 3.76893143 -12 0 C-7.44729118 -2.48329572 -4.775353 -1.68541871 0 0 Z " fill="#0080FF" transform="translate(262,486)"/>
<path d="M0 0 C0.66 0.33 1.32 0.66 2 1 C2 25.75 2 50.5 2 76 C1.34 76 0.68 76 0 76 C0 74.02 0 72.04 0 70 C-1.22976563 70.2165625 -2.45953125 70.433125 -3.7265625 70.65625 C-5.35932991 70.93776162 -6.99214497 71.21899704 -8.625 71.5 C-9.43324219 71.64308594 -10.24148438 71.78617188 -11.07421875 71.93359375 C-15.43877864 72.67876251 -19.55238129 73.17272306 -24 73 C-24 72.01 -24 71.02 -24 70 C-31.92 70 -39.84 70 -48 70 C-48 69.34 -48 68.68 -48 68 C-40.08 68 -32.16 68 -24 68 C-24 67.34 -24 66.68 -24 66 C-22.24951008 66.11794081 -20.4996282 66.24489944 -18.75 66.375 C-17.77546875 66.44460938 -16.8009375 66.51421875 -15.796875 66.5859375 C-10.50151399 67.16341514 -5.25427967 68.12428672 0 69 C0 46.23 0 23.46 0 0 Z " fill="#0080FF" transform="translate(1255,1279)"/>
<path d="M0 0 C2.98434804 2.21419371 3.2789459 4.85947134 3.8125 8.375 C4.24148619 13.94269312 3.2238005 17.39157648 -0.1875 21.875 C-3.68989619 24.5212549 -5.71126907 24.42046382 -10 24 C-10 23.01 -10 22.02 -10 21 C-6.535 20.505 -6.535 20.505 -3 20 C-2.34 18.35 -1.68 16.7 -1 15 C-2.093125 15.04125 -3.18625 15.0825 -4.3125 15.125 C-8 15 -8 15 -11 13 C-12.41584158 6.24752475 -12.41584158 6.24752475 -11.1875 2.5625 C-8.45962551 -1.02680854 -4.11645379 -0.57360422 0 0 Z " fill="#0080FF" transform="translate(224,485)"/>
<path d="M0 0 C0 4.29 0 8.58 0 13 C0.99 13 1.98 13 3 13 C3 13.99 3 14.98 3 16 C2.01 16 1.02 16 0 16 C0 18.64 0 21.28 0 24 C-0.99 24 -1.98 24 -3 24 C-3 21.36 -3 18.72 -3 16 C-6.3 16 -9.6 16 -13 16 C-13 10.31342799 -12.24801553 9.40204452 -8.75 5.1875 C-7.96109375 4.21167969 -7.1721875 3.23585938 -6.359375 2.23046875 C-4 0 -4 0 0 0 Z " fill="#0080FF" transform="translate(1539,1337)"/>
<path d="M0 0 C4.29 0 8.58 0 13 0 C13 0.99 13 1.98 13 3 C9.7 3 6.4 3 3 3 C3 4.98 3 6.96 3 9 C3.9075 8.938125 4.815 8.87625 5.75 8.8125 C9 9 9 9 11.375 10 C13.48274889 12.59415247 13.57081614 14.77225255 13.37109375 18.05859375 C13 20 13 20 11.5625 22.5 C7.78106272 24.71352426 4.2792407 24.32917236 0 24 C-0.33 22.68 -0.66 21.36 -1 20 C1.01822917 20.32552083 3.03645833 20.65104167 5.0546875 20.9765625 C6.01761719 20.98816406 6.01761719 20.98816406 7 21 C9.26839983 19.16734675 9.26839983 19.16734675 9.1875 16.4375 C9.27003323 14.05310277 9.27003323 14.05310277 8 13 C6.65252916 12.76924918 5.29622435 12.58846937 3.9375 12.4375 C2.638125 12.293125 1.33875 12.14875 0 12 C0 8.04 0 4.08 0 0 Z " fill="#0080FF" transform="translate(1574,1096)"/>
<path d="M0 0 C4.29 0 8.58 0 13 0 C13 0.99 13 1.98 13 3 C9.7 3 6.4 3 3 3 C3 4.98 3 6.96 3 9 C3.9075 8.938125 4.815 8.87625 5.75 8.8125 C9 9 9 9 11.375 10 C13.48274889 12.59415247 13.57081614 14.77225255 13.37109375 18.05859375 C13 20 13 20 11.5625 22.5 C7.78106272 24.71352426 4.2792407 24.32917236 0 24 C-0.33 22.68 -0.66 21.36 -1 20 C1.01822917 20.32552083 3.03645833 20.65104167 5.0546875 20.9765625 C6.01761719 20.98816406 6.01761719 20.98816406 7 21 C9.26839983 19.16734675 9.26839983 19.16734675 9.1875 16.4375 C9.27003323 14.05310277 9.27003323 14.05310277 8 13 C6.65252916 12.76924918 5.29622435 12.58846937 3.9375 12.4375 C2.638125 12.293125 1.33875 12.14875 0 12 C0 8.04 0 4.08 0 0 Z " fill="#0080FF" transform="translate(1556,1096)"/>
<path d="M0 0 C4.29 0 8.58 0 13 0 C13 0.99 13 1.98 13 3 C9.7 3 6.4 3 3 3 C3 4.98 3 6.96 3 9 C3.9075 8.938125 4.815 8.87625 5.75 8.8125 C9 9 9 9 11.375 10 C13.48274889 12.59415247 13.57081614 14.77225255 13.37109375 18.05859375 C13 20 13 20 11.5625 22.5 C7.78106272 24.71352426 4.2792407 24.32917236 0 24 C-0.33 22.68 -0.66 21.36 -1 20 C1.01822917 20.32552083 3.03645833 20.65104167 5.0546875 20.9765625 C6.01761719 20.98816406 6.01761719 20.98816406 7 21 C9.26839983 19.16734675 9.26839983 19.16734675 9.1875 16.4375 C9.27003323 14.05310277 9.27003323 14.05310277 8 13 C6.65252916 12.76924918 5.29622435 12.58846937 3.9375 12.4375 C2.638125 12.293125 1.33875 12.14875 0 12 C0 8.04 0 4.08 0 0 Z " fill="#0080FF" transform="translate(232,485)"/>
<path d="M0 0 C4.29 0 8.58 0 13 0 C13 0.99 13 1.98 13 3 C9.7 3 6.4 3 3 3 C3 4.98 3 6.96 3 9 C3.9075 8.938125 4.815 8.87625 5.75 8.8125 C9 9 9 9 11.375 10 C13.48274889 12.59415247 13.57081614 14.77225255 13.37109375 18.05859375 C13 20 13 20 11.5625 22.5 C7.78106272 24.71352426 4.2792407 24.32917236 0 24 C-0.33 22.68 -0.66 21.36 -1 20 C1.01822917 20.32552083 3.03645833 20.65104167 5.0546875 20.9765625 C6.01761719 20.98816406 6.01761719 20.98816406 7 21 C9.26839983 19.16734675 9.26839983 19.16734675 9.1875 16.4375 C9.27003323 14.05310277 9.27003323 14.05310277 8 13 C6.65252916 12.76924918 5.29622435 12.58846937 3.9375 12.4375 C2.638125 12.293125 1.33875 12.14875 0 12 C0 8.04 0 4.08 0 0 Z " fill="#0080FF" transform="translate(967,89)"/>
<path d="M0 0 C4.29 0 8.58 0 13 0 C13 0.99 13 1.98 13 3 C9.7 3 6.4 3 3 3 C3 4.98 3 6.96 3 9 C3.9075 8.938125 4.815 8.87625 5.75 8.8125 C9 9 9 9 11.375 10 C13.48274889 12.59415247 13.57081614 14.77225255 13.37109375 18.05859375 C13 20 13 20 11.5625 22.5 C7.78106272 24.71352426 4.2792407 24.32917236 0 24 C-0.33 22.68 -0.66 21.36 -1 20 C1.01822917 20.32552083 3.03645833 20.65104167 5.0546875 20.9765625 C6.01761719 20.98816406 6.01761719 20.98816406 7 21 C9.26839983 19.16734675 9.26839983 19.16734675 9.1875 16.4375 C9.27003323 14.05310277 9.27003323 14.05310277 8 13 C6.65252916 12.76924918 5.29622435 12.58846937 3.9375 12.4375 C2.638125 12.293125 1.33875 12.14875 0 12 C0 8.04 0 4.08 0 0 Z " fill="#0080FF" transform="translate(931,89)"/>
<path d="M0 0 C3.37938363 -0.28531381 6.62847568 -0.42211701 10 0 C12.25 2.0625 12.25 2.0625 13 5 C12.24214215 11.69441098 8.54112475 15.20659054 4 20 C7.3 20.33 10.6 20.66 14 21 C14 21.99 14 22.98 14 24 C9.05 24 4.1 24 -1 24 C-0.01282076 19.06410379 0.17072108 18.41352908 3.4375 15.1875 C7.09962473 11.24771417 8.15320399 8.26895295 9 3 C5.4780279 2.91995518 2.38018531 2.95994298 -1 4 C-0.67 2.68 -0.34 1.36 0 0 Z " fill="#0080FF" transform="translate(1510,1337)"/>
<path d="M0 0 C3.37938363 -0.28531381 6.62847568 -0.42211701 10 0 C12.25 2.0625 12.25 2.0625 13 5 C12.24214215 11.69441098 8.54112475 15.20659054 4 20 C7.3 20.33 10.6 20.66 14 21 C14 21.99 14 22.98 14 24 C9.05 24 4.1 24 -1 24 C-0.01282076 19.06410379 0.17072108 18.41352908 3.4375 15.1875 C7.09962473 11.24771417 8.15320399 8.26895295 9 3 C5.4780279 2.91995518 2.38018531 2.95994298 -1 4 C-0.67 2.68 -0.34 1.36 0 0 Z " fill="#0080FF" transform="translate(1599,564)"/>
<path d="M0 0 C3.37938363 -0.28531381 6.62847568 -0.42211701 10 0 C12.25 2.0625 12.25 2.0625 13 5 C12.24214215 11.69441098 8.54112475 15.20659054 4 20 C7.3 20.33 10.6 20.66 14 21 C14 21.99 14 22.98 14 24 C9.05 24 4.1 24 -1 24 C-0.01282076 19.06410379 0.17072108 18.41352908 3.4375 15.1875 C7.09962473 11.24771417 8.15320399 8.26895295 9 3 C5.4780279 2.91995518 2.38018531 2.95994298 -1 4 C-0.67 2.68 -0.34 1.36 0 0 Z " fill="#0080FF" transform="translate(1581,564)"/>
<path d="M0 0 C3.37938363 -0.28531381 6.62847568 -0.42211701 10 0 C12.25 2.0625 12.25 2.0625 13 5 C12.24214215 11.69441098 8.54112475 15.20659054 4 20 C7.3 20.33 10.6 20.66 14 21 C14 21.99 14 22.98 14 24 C9.05 24 4.1 24 -1 24 C-0.01282076 19.06410379 0.17072108 18.41352908 3.4375 15.1875 C7.09962473 11.24771417 8.15320399 8.26895295 9 3 C5.4780279 2.91995518 2.38018531 2.95994298 -1 4 C-0.67 2.68 -0.34 1.36 0 0 Z " fill="#0080FF" transform="translate(1563,564)"/>
<path d="M0 0 C3.37938363 -0.28531381 6.62847568 -0.42211701 10 0 C12.25 2.0625 12.25 2.0625 13 5 C12.24214215 11.69441098 8.54112475 15.20659054 4 20 C7.3 20.33 10.6 20.66 14 21 C14 21.99 14 22.98 14 24 C9.05 24 4.1 24 -1 24 C-0.01282076 19.06410379 0.17072108 18.41352908 3.4375 15.1875 C7.09962473 11.24771417 8.15320399 8.26895295 9 3 C5.4780279 2.91995518 2.38018531 2.95994298 -1 4 C-0.67 2.68 -0.34 1.36 0 0 Z " fill="#0080FF" transform="translate(949,89)"/>
<path d="M0 0 C1.60332791 -0.08121924 3.20784026 -0.13929134 4.8125 -0.1875 C6.15248047 -0.23970703 6.15248047 -0.23970703 7.51953125 -0.29296875 C10 0 10 0 11.8359375 1.35546875 C13 3 13 3 12.8125 5.5 C12 8 12 8 10 11 C10.99 11.66 11.98 12.32 13 13 C13.49337903 16.80606683 13.53195425 19.09799061 11.5625 22.4375 C7.78993176 24.73784649 4.30933841 24.33148757 0 24 C-0.33 22.68 -0.66 21.36 -1 20 C0.6396875 20.309375 0.6396875 20.309375 2.3125 20.625 C6.0838401 21.40346525 6.0838401 21.40346525 9 19 C9.25030977 16.41619823 9.25030977 16.41619823 9 14 C7.02 13.34 5.04 12.68 3 12 C3 11.34 3 10.68 3 10 C4.65 9.34 6.3 8.68 8 8 C8 6.35 8 4.7 8 3 C3.545 3.495 3.545 3.495 -1 4 C-0.67 2.68 -0.34 1.36 0 0 Z " fill="#0080FF" transform="translate(1592,1096)"/>
<path d="M0 0 C0 7.26 0 14.52 0 22 C1.32 22 2.64 22 4 22 C4 22.66 4 23.32 4 24 C0.37 24 -3.26 24 -7 24 C-7 23.34 -7 22.68 -7 22 C-5.68 22 -4.36 22 -3 22 C-3 16.39 -3 10.78 -3 5 C-4.32 5 -5.64 5 -7 5 C-7 4.34 -7 3.68 -7 3 C-2.61538462 0 -2.61538462 0 0 0 Z " fill="#0080FF" transform="translate(1553,564)"/>
<path d="M0 0 C0 7.26 0 14.52 0 22 C1.32 22 2.64 22 4 22 C4 22.66 4 23.32 4 24 C0.37 24 -3.26 24 -7 24 C-7 23.34 -7 22.68 -7 22 C-5.68 22 -4.36 22 -3 22 C-3 16.39 -3 10.78 -3 5 C-4.32 5 -5.64 5 -7 5 C-7 4.34 -7 3.68 -7 3 C-2.61538462 0 -2.61538462 0 0 0 Z " fill="#0080FF" transform="translate(921,89)"/>
<path d="M0 0 C2.5625 0.25 2.5625 0.25 5 1 C6.4783226 3.95664519 6.06032783 6.74229737 6 10 C4.02 10.33 2.04 10.66 0 11 C-1.5625 9.3125 -1.5625 9.3125 -3 7 C-2.75925978 3.62963689 -2.41201979 2.41201979 0 0 Z " fill="#FFFFFF" transform="translate(218,487)"/>
<path d="M0 0 C4.75 0.875 4.75 0.875 7 2 C7.75 3.8125 7.75 3.8125 8 6 C7.0625 8.25 7.0625 8.25 6 10 C3.6875 10.25 3.6875 10.25 1 10 C-0.9375 8.375 -0.9375 8.375 -2 6 C-1.1875 2.75 -1.1875 2.75 0 0 Z " fill="#FFFFFF" transform="translate(1549,1349)"/>
<path d="M0 0 C4.75 0.875 4.75 0.875 7 2 C7.75 3.8125 7.75 3.8125 8 6 C7.0625 8.25 7.0625 8.25 6 10 C3.6875 10.25 3.6875 10.25 1 10 C-0.9375 8.375 -0.9375 8.375 -2 6 C-1.1875 2.75 -1.1875 2.75 0 0 Z " fill="#FFFFFF" transform="translate(253,497)"/>
<path d="M0 0 C1.99954746 -0.04254356 4.00041636 -0.04080783 6 0 C7 1 7 1 7.0625 3.5625 C7.041875 4.366875 7.02125 5.17125 7 6 C5.02 6.99 5.02 6.99 3 8 C1.68 7.01 0.36 6.02 -1 5 C-0.67 3.35 -0.34 1.7 0 0 Z " fill="#FFFFFF" transform="translate(1549,1339)"/>
<path d="M0 0 C1.99954746 -0.04254356 4.00041636 -0.04080783 6 0 C7 1 7 1 7.0625 3.5625 C7.041875 4.366875 7.02125 5.17125 7 6 C5.02 6.99 5.02 6.99 3 8 C1.68 7.01 0.36 6.02 -1 5 C-0.67 3.35 -0.34 1.7 0 0 Z " fill="#FFFFFF" transform="translate(253,487)"/>
<path d="M0 0 C0.33 0 0.66 0 1 0 C1 2.97 1 5.94 1 9 C-1.64 9 -4.28 9 -7 9 C-6.02180976 7.68677212 -5.0424189 6.37443848 -4.0625 5.0625 C-3.51722656 4.33160156 -2.97195313 3.60070313 -2.41015625 2.84765625 C-1 1 -1 1 0 0 Z " fill="#FFFFFF" transform="translate(1535,1341)"/>
</svg>
