<?xml version="1.0" encoding="UTF-8"?>
<svg version="1.1" xmlns="http://www.w3.org/2000/svg" width="1920" height="1440">
<path d="M0 0 C633.6 0 1267.2 0 1920 0 C1920 475.2 1920 950.4 1920 1440 C1286.4 1440 652.8 1440 0 1440 C0 964.8 0 489.6 0 0 Z " fill="#FEFEFE" transform="translate(0,0)"/>
<path d="M0 0 C2.97 0 5.94 0 9 0 C14.66176258 5.66176258 10 15.99305857 10 24 C273.34 24 536.68 24 808 24 C808 16.08 808 8.16 808 0 C810.97 0 813.94 0 817 0 C818.89612645 1.89612645 818.12288039 4.67814727 818.12908131 7.20124394 C818.12616847 8.1010311 818.12325563 9.00081826 818.12025452 9.9278717 C818.12110894 10.87611028 818.12196337 11.82434885 818.12284368 12.80132192 C818.12450138 16.00436681 818.1189724 19.20736026 818.11352539 22.41040039 C818.11324356 24.6962331 818.11340118 26.9820659 818.1139679 29.26789856 C818.11425601 35.49492134 818.108357 41.72192505 818.10139394 47.94894338 C818.09516275 54.44858152 818.09455679 60.94822005 818.09336853 67.44786072 C818.09060881 78.36408836 818.08435325 89.28030892 818.07543945 100.1965332 C818.06626609 111.44230107 818.05918489 122.68806704 818.05493164 133.93383789 C818.05466892 134.62655814 818.05440619 135.31927839 818.05413551 136.03299017 C818.05283051 139.50802405 818.05156679 142.98305795 818.05032361 146.45809186 C818.03995008 175.30539936 818.02205654 204.15269918 818 233 C831.2 233 844.4 233 858 233 C858 233.33 858 233.66 858 234 C844.8 234 831.6 234 818 234 C818 310.56 818 387.12 818 466 C814.7 466 811.4 466 808 466 C808 458.08 808 450.16 808 442 C778.96 442 749.92 442 720 442 C720 521.86 720 601.72 720 684 C699.54 684 679.08 684 658 684 C658 604.14 658 524.28 658 442 C645.46 442 632.92 442 620 442 C620 452.56 620 463.12 620 474 C622.37058594 473.98839844 624.74117187 473.97679687 627.18359375 473.96484375 C629.47045762 473.95705304 631.75732004 473.95097636 634.04418945 473.94506836 C635.63794614 473.94002843 637.23169819 473.9331965 638.82543945 473.92456055 C641.11150253 473.91248001 643.39750467 473.90676845 645.68359375 473.90234375 C646.40026718 473.89718246 647.11694061 473.89202118 647.85533142 473.88670349 C649.57063672 473.88650737 651.28581266 473.93807993 653 474 C654 475 654 475 654 484 C597.9 484 541.8 484 484 484 C484 480.7 484 477.4 484 474 C495.22 474 506.44 474 518 474 C518 463.44 518 452.88 518 442 C482.03 442 446.06 442 409 442 C409 445.96 409 449.92 409 454 C408.67 454 408.34 454 408 454 C408 450.04 408 446.08 408 442 C326.16 442 244.32 442 160 442 C160 521.86 160 601.72 160 684 C139.54 684 119.08 684 98 684 C98 604.14 98 524.28 98 442 C68.96 442 39.92 442 10 442 C10 449.92 10 457.84 10 466 C6.7 466 3.4 466 0 466 C0 389.44 0 312.88 0 234 C-13.53 234 -27.06 234 -41 234 C-41 233.67 -41 233.34 -41 233 C-27.47 233 -13.94 233 0 233 C0 156.11 0 79.22 0 0 Z M10 26 C10 162.62 10 299.24 10 440 C39.04 440 68.08 440 98 440 C98 399.74 98 359.48 98 318 C128.195 318.495 128.195 318.495 159 319 C159.33 358.93 159.66 398.86 160 440 C205.7169218 440.06618459 251.43379827 440.12155855 297.1507543 440.15319599 C302.55281415 440.15694793 307.9548739 440.16083092 313.35693359 440.16479492 C314.43234856 440.16558185 315.50776353 440.16636878 316.61576682 440.16717956 C334.00962958 440.18021967 351.40346248 440.20386582 368.79730755 440.23145839 C386.65609893 440.25955143 404.5148747 440.2761845 422.37368727 440.28226548 C433.38609188 440.28637384 444.39841207 440.2993316 455.41079068 440.3237494 C462.97096062 440.33965474 470.53108716 440.34438953 478.09127259 440.34050413 C482.4476358 440.33859004 486.80385188 440.34144354 491.16018867 440.35761642 C495.15925053 440.37235344 499.15806811 440.37286424 503.15714186 440.36269668 C504.59349198 440.36144245 506.02985816 440.36513033 507.46617728 440.37464955 C516.44668096 440.4306408 524.73651979 439.54246275 533.49213076 437.71490175 C538.24579099 436.74610851 542.98255423 436.21376272 547.8125 435.8125 C548.740625 435.73354492 549.66875 435.65458984 550.625 435.57324219 C563.55544934 434.55450624 576.26720582 434.71337775 589.1875 435.8125 C590.45013672 435.91739746 590.45013672 435.91739746 591.73828125 436.02441406 C599.99921239 436.81703398 607.73924527 438.45110849 616 440 C629.86 440 643.72 440 658 440 C658 399.74 658 359.48 658 318 C688.195 318.495 688.195 318.495 719 319 C719.33 358.93 719.66 398.86 720 440 C749.04 440 778.08 440 808 440 C808 303.38 808 166.76 808 26 C544.66 26 281.32 26 10 26 Z " fill="#000000" transform="translate(190,294)"/>
<path d="M0 0 C4.63070013 1.37628362 8.84109039 3.30044432 13.18383789 5.37719727 C26.8999658 11.90388035 41.07911796 17.01582359 56 20 C56 24.95 56 29.9 56 35 C44.78 35 33.56 35 22 35 C22 38.3 22 41.6 22 45 C77.77 45 133.54 45 191 45 C190.67 42.03 190.34 39.06 190 36 C179.11 35.67 168.22 35.34 157 35 C156.67 30.05 156.34 25.1 156 20 C158.26875 19.46375 160.5375 18.9275 162.875 18.375 C179.23721939 14.31615488 194.07714018 8.41710456 209.13085938 0.82275391 C211 0 211 0 213 0 C211.59623211 10.3832193 209.88008319 20.68361 208.03491211 30.99536133 C207.7404833 32.65092079 207.44625391 34.30651572 207.15220642 35.96214294 C206.36119608 40.41206458 205.56714011 44.86143732 204.77227092 49.31067109 C204.10775468 53.03165056 203.44465128 56.75288129 202.78150469 60.47410506 C201.21882132 69.24266277 199.65353652 78.01075337 198.08666992 86.77856445 C196.46950942 95.82811138 194.85710492 104.87849695 193.2469272 113.92928869 C191.86204777 121.71262208 190.4741165 129.49540706 189.08373648 137.27775973 C188.25417627 141.92127655 187.42582782 146.5650015 186.60047722 151.20926857 C185.82669427 155.56266607 185.04912639 159.91537021 184.26856422 164.26755714 C183.98216563 165.86816952 183.69713971 167.46902817 183.41355133 169.07014084 C183.02792727 171.24610867 182.63746997 173.421153 182.24571228 175.59602356 C182.02800139 176.81580808 181.81029051 178.03559259 181.58598232 179.29234028 C181 182 181 182 180 183 C178.10171764 183.0965683 176.19979337 183.12187216 174.29905701 183.12025452 C173.0608017 183.12162918 171.82254639 183.12300385 170.54676819 183.12442017 C169.16195655 183.12088056 167.77714515 183.11724574 166.39233398 183.11352539 C164.94392906 183.11324352 163.49552399 183.11340124 162.04711914 183.1139679 C158.10307686 183.11425589 154.15906473 183.1083588 150.21502948 183.10139394 C146.09770531 183.09516078 141.98038052 183.09455663 137.86305237 183.09336853 C130.06094138 183.0902551 122.25884433 183.08204156 114.45673949 183.07201904 C105.57659696 183.06085826 96.69645378 183.05534754 87.81630599 183.05032361 C69.54419608 183.03985896 51.27209916 183.02225929 33 183 C31.56787614 178.22606199 30.46316755 173.52449458 29.58261108 168.61065674 C29.45431211 167.9003379 29.32601314 167.19001907 29.19382632 166.45817542 C28.76820804 164.09674175 28.34772148 161.7344247 27.92724609 159.37207031 C27.6218385 157.67143922 27.31612057 155.97086384 27.01011658 154.27033997 C26.18254266 149.66592176 25.35949452 145.06070524 24.53741026 140.45530415 C23.67620126 135.63432378 22.81130041 130.81400564 21.94692993 125.99359131 C20.49692657 117.9038926 19.04982759 109.81367846 17.60449219 101.72314453 C15.93248717 92.36397107 14.25606058 83.00559791 12.57723749 73.64764524 C10.9623147 64.64538132 9.35033532 55.64259284 7.73976517 46.63954926 C7.05409398 42.80690711 6.36741695 38.97444718 5.67994308 35.14212799 C4.87152162 30.63475041 4.06568191 26.12691878 3.26185799 21.6187191 C2.96605309 19.96210211 2.66935804 18.30564378 2.37172127 16.64935493 C1.96654753 14.39379464 1.56456815 12.13768816 1.16342163 9.88140869 C0.8244111 7.98555212 0.8244111 7.98555212 0.47855186 6.05139542 C0 3 0 3 0 0 Z " fill="#FFFFFF" transform="translate(1349,733)"/>
<path d="M0 0 C19.14 0 38.28 0 58 0 C58 119.46 58 238.92 58 362 C38.86 362 19.72 362 0 362 C0 242.54 0 123.08 0 0 Z " fill="#FFFFFF" transform="translate(850,614)"/>
<path d="M0 0 C19.14 0 38.28 0 58 0 C58 119.46 58 238.92 58 362 C38.86 362 19.72 362 0 362 C0 242.54 0 123.08 0 0 Z " fill="#FFFFFF" transform="translate(290,614)"/>
<path d="M0 0 C4.66253519 3.70883481 8.69701782 7.77259436 12.6875 12.1875 C29.22356311 30.37146017 49.12861718 44.86145428 71 56 C70.01 56.495 70.01 56.495 69 57 C69.21021286 58.0115918 69.42042572 59.02318359 69.63700867 60.06542969 C73.32847663 78.06758819 76.51665823 96.16479061 79.76953125 114.25 C80.09024084 116.03176257 80.41097251 117.81352116 80.73172569 119.59527588 C82.23468275 127.94560167 83.73571607 136.29627044 85.23436052 144.64737129 C86.95863344 154.2553557 88.68981428 163.86206337 90.42662698 173.4677887 C91.77517773 180.92872195 93.11738999 188.39077826 94.45481414 195.85371399 C95.25156917 200.29877283 96.05106797 204.74329661 96.85730934 209.18664551 C97.61234095 213.34862071 98.35953021 217.51192691 99.10063934 221.67640305 C99.37389405 223.20396866 99.65000296 224.73102683 99.92915154 226.2575264 C100.30919608 228.33820223 100.67898219 230.42044935 101.04621887 232.50341797 C101.36059261 234.25088821 101.36059261 234.25088821 101.68131733 236.03366089 C102.18627579 240.73387888 101.52849977 242.32650597 98.59375 246.06640625 C97.56904087 247.23752639 96.53737246 248.40258209 95.5 249.5625 C94.39350097 250.82461833 93.28804035 252.08764775 92.18359375 253.3515625 C91.63815918 253.97321289 91.09272461 254.59486328 90.53076172 255.23535156 C88.48615736 257.59235321 86.52091201 260.00863148 84.5625 262.4375 C79.41927305 268.76905376 74.04978452 274.89873831 68.69482422 281.05078125 C65.87169768 284.29766144 63.05781486 287.55237401 60.25 290.8125 C59.73655029 291.40522705 59.22310059 291.9979541 58.6940918 292.60864258 C56.07108533 295.61308044 56.07108533 295.61308044 54 299 C53.34 299 52.68 299 52 299 C51.85351643 298.16195139 51.70703285 297.32390278 51.55611038 296.46045876 C47.88967829 275.48454669 44.22286733 254.50870087 40.55565262 233.53292561 C40.37574445 232.50388475 40.19583628 231.47484389 40.01047635 230.41461998 C39.64387138 228.31770862 39.2772661 226.22079731 38.91066051 224.12388605 C37.62426939 216.76592556 36.33799499 209.40794467 35.05175781 202.04995728 C24.4404693 141.34363097 24.4404693 141.34363097 13.79243374 80.64374256 C13.30583831 77.87487396 12.81936436 75.10598403 12.33288646 72.33709478 C10.25690802 60.5215069 8.17983251 48.7061146 6.09819412 36.89152241 C5.32540967 32.5037792 4.55391496 28.11580992 3.78275299 23.7277813 C3.4324241 21.73625246 3.08148444 19.74483095 2.72988129 17.75352669 C2.26111213 15.0985626 1.79435939 12.44325198 1.328125 9.7878418 C1.12290159 8.63026587 1.12290159 8.63026587 0.91353226 7.44930458 C0 2.22808373 0 2.22808373 0 0 Z " fill="#FFFFFF" transform="translate(1278,676)"/>
<path d="M0 0 C0.33 0 0.66 0 1 0 C0.43247365 10.45633869 -1.36464548 20.62161423 -3.19604492 30.91113281 C-3.52861543 32.80269881 -3.86070937 34.69434865 -4.19236755 36.58607483 C-5.09337956 41.7174595 -6.00100948 46.84765384 -6.90979934 51.9776659 C-7.876138 57.43947226 -8.83619376 62.902383 -9.79695129 68.36517334 C-11.63175559 78.79231057 -13.47196963 89.21848531 -15.31420642 99.64431167 C-17.55434375 112.32330132 -19.78803955 125.00342379 -22.02148438 137.68359375 C-22.81962063 142.21448652 -23.61781543 146.74536898 -24.41604614 151.27624512 C-24.61266157 152.3922804 -24.809277 153.50831569 -25.01185048 154.65817022 C-26.39214352 162.49236848 -27.77357006 170.32636637 -29.15548706 178.16027832 C-34.18263486 206.66058854 -39.19063375 235.1641878 -44.17578125 263.671875 C-44.32823358 264.54367558 -44.48068592 265.41547617 -44.63775802 266.31369495 C-46.42632703 276.54226159 -48.21382378 286.77101523 -50 297 C-50.66 297 -51.32 297 -52 297 C-53.3327188 295.53309441 -54.58913869 293.99677499 -55.8125 292.4375 C-59.60452546 287.69288843 -63.50211674 283.07224834 -67.5 278.5 C-71.96940264 273.37606891 -76.3276489 268.18420378 -80.60546875 262.8984375 C-84.15436327 258.60271199 -87.81682391 254.40743796 -91.484375 250.21289062 C-92.01160156 249.60896484 -92.53882813 249.00503906 -93.08203125 248.3828125 C-93.78162964 247.58447998 -93.78162964 247.58447998 -94.49536133 246.77001953 C-94.99189209 246.18591309 -95.48842285 245.60180664 -96 245 C-97.05401961 243.90116973 -97.05401961 243.90116973 -98.12933254 242.78014088 C-100.50824826 239.24465369 -100.21431478 237.87767833 -99.43531799 233.74772644 C-99.21515581 232.50625036 -98.99499363 231.26477428 -98.76815987 229.98567772 C-98.6416068 229.33186048 -98.51505373 228.67804325 -98.38466573 228.00441337 C-98.00463945 226.02417523 -97.6585666 224.04105535 -97.32346916 222.05275917 C-96.58851141 217.70888007 -95.81246773 213.37280122 -95.03491211 209.03637695 C-94.74047683 207.38406375 -94.44624764 205.73171382 -94.15220642 204.07933044 C-93.36113827 199.63754838 -92.5670589 195.19630981 -91.77227092 190.75519204 C-90.93846173 186.09374733 -90.1070647 181.43187229 -89.27528381 176.77006531 C-87.88080729 168.95683365 -86.48432557 161.14396238 -85.08666992 153.33129883 C-83.47058849 144.29750665 -81.85788909 135.26311552 -80.2469272 126.22840911 C-78.69415866 117.52059526 -77.13886281 108.81323459 -75.5824604 100.10606956 C-74.92093895 96.40492989 -74.26033684 92.70362785 -73.60047722 89.00219154 C-72.82521051 84.65398091 -72.04774683 80.30616879 -71.26856422 75.95865822 C-70.98277491 74.3620025 -70.69775505 72.76520883 -70.41355133 71.16827011 C-70.02634745 68.99329748 -69.63639025 66.81883634 -69.24571228 64.64448547 C-69.02800139 63.42654454 -68.81029051 62.20860361 -68.58598232 60.95375538 C-68 58 -68 58 -67 55 C-67.99 54.505 -67.99 54.505 -69 54 C-67.89785156 53.41734375 -66.79570313 52.8346875 -65.66015625 52.234375 C-50.71021016 44.20779247 -36.98491692 35.24936963 -24.69140625 23.5078125 C-22.22000804 21.20500023 -19.69015743 19.16286886 -17 17.125 C-12.07316245 13.29568561 -7.98641021 8.85775056 -3.84570312 4.21533203 C-2.5794824 2.7960747 -1.29176761 1.39604539 0 0 Z " fill="#FFFFFF" transform="translate(1631,678)"/>
<path d="M0 0 C1.4498873 -0.01985148 2.89971756 -0.04431802 4.34945679 -0.07301331 C8.2658057 -0.1356733 12.17909827 -0.12895079 16.09576821 -0.10542798 C19.37593268 -0.09205913 22.65552986 -0.11284293 25.93562955 -0.13341087 C33.68105987 -0.18137128 41.4250015 -0.1728495 49.17041016 -0.12792969 C57.13525413 -0.08263897 65.09584692 -0.12829886 73.06019908 -0.21977192 C79.92112171 -0.29556762 86.78072482 -0.31644882 93.64202756 -0.29366535 C97.73003302 -0.28049641 101.81543786 -0.28691693 105.90310097 -0.34549141 C132.65423158 -0.69130735 132.65423158 -0.69130735 139.10063171 4.56321716 C142.28088057 7.86488417 144.36233794 11.43051048 146.4909668 15.47094727 C147.60811273 16.85446628 148.75602727 18.21587033 149.97143555 19.51391602 C155.08675883 25.45303849 160.12110704 31.44053227 165.0534668 37.53344727 C166.96266522 39.83427613 168.89699824 42.09694763 170.8659668 44.34594727 C171.45450439 45.01827393 172.04304199 45.69060059 172.64941406 46.38330078 C173.81270401 47.70750691 174.97971541 49.02845545 176.15087891 50.34570312 C176.68463135 50.95293213 177.21838379 51.56016113 177.76831055 52.18579102 C178.24518311 52.72324951 178.72205566 53.26070801 179.21337891 53.81445312 C180.4909668 55.47094727 180.4909668 55.47094727 182.4909668 59.47094727 C101.6409668 59.47094727 20.7909668 59.47094727 -62.5090332 59.47094727 C-59.13600343 53.84923098 -59.13600343 53.84923098 -56.7590332 51.15844727 C-56.23881592 50.56475342 -55.71859863 49.97105957 -55.18261719 49.359375 C-54.63033447 48.73619385 -54.07805176 48.1130127 -53.5090332 47.47094727 C-52.33260772 46.12906387 -51.15683698 44.78660621 -49.98168945 43.44360352 C-49.39532715 42.77474121 -48.80896484 42.10587891 -48.20483398 41.41674805 C-45.75516568 38.60594235 -43.3474995 35.76086223 -40.9465332 32.90844727 C-38.13587483 29.57239383 -35.31866932 26.24282829 -32.47387695 22.93579102 C-31.95833252 22.33645752 -31.44278809 21.73712402 -30.91162109 21.11962891 C-29.94451628 19.99672393 -28.97638293 18.87470326 -28.00683594 17.75390625 C-27.55123291 17.22482666 -27.09562988 16.69574707 -26.6262207 16.15063477 C-26.16153728 15.62670356 -25.69685385 15.10277235 -25.2180891 14.56296444 C-23.41306334 12.43078575 -23.41306334 12.43078575 -21.74595356 9.75706577 C-15.59084452 0.86858419 -10.39918616 -0.1444125 0 0 Z " fill="#FFFFFF" transform="translate(1395.509033203125,916.529052734375)"/>
<path d="M0 0 C0.33 0 0.66 0 1 0 C1 9.9 1 19.8 1 30 C5.95 30 10.9 30 16 30 C20.68891618 30.51346108 25.28602222 31.08493102 29.9375 31.8125 C31.16114258 31.99844727 32.38478516 32.18439453 33.64550781 32.37597656 C36.04504129 32.74479257 38.4436998 33.11936069 40.84130859 33.50048828 C43.39853807 33.90488552 45.95681642 34.28520817 48.51953125 34.65234375 C87.17693692 40.84562445 125.72809771 62.45810139 154 89 C155.4107431 90.23596077 156.82691535 91.46576958 158.25 92.6875 C163.98708362 97.68846088 169.16555385 103.08008606 174.125 108.84765625 C176.16545303 111.18992629 178.2698577 113.46577442 180.375 115.75 C215.22611693 154.6631559 233 210.34682248 233 262 C242.57 262 252.14 262 262 262 C262 262.33 262 262.66 262 263 C252.43 263 242.86 263 233 263 C233 266.63 233 270.26 233 274 C230.4360046 314.99018967 217.75901469 367.75910634 188.77734375 398.53125 C188.23263428 399.11583984 187.6879248 399.70042969 187.12670898 400.30273438 C186.09562386 401.37854164 185.03369691 402.42625118 183.93383789 403.43164062 C180.18518499 407.28461365 179.58494185 410.75347851 179.05255127 416.0435791 C178.38135987 422.12380906 177.53781473 428.14191032 176.48699951 434.16833496 C176.27690931 435.37348503 176.27690931 435.37348503 176.06257486 436.60298157 C175.6081438 439.19092834 175.14932614 441.778076 174.69042969 444.36523438 C174.35783558 446.25741215 174.0255911 448.14965141 173.69366455 450.04194641 C172.79555216 455.15633365 171.89261372 460.26985813 170.98880672 465.38324165 C170.02618383 470.83453093 169.06819331 476.28663434 168.10968018 481.73864746 C166.28084093 492.13711372 164.44805715 502.53488055 162.61377454 512.93238783 C160.38258412 525.58067089 158.15599107 538.22976226 155.9296875 550.87890625 C155.13377863 555.40088423 154.33784176 559.92285728 153.54187012 564.44482422 C153.34582042 565.55860947 153.14977073 566.67239471 152.94778013 567.81993103 C151.57171593 575.63680707 150.19435202 583.45345346 148.81652832 591.27001953 C145.28135273 611.32828045 141.7521646 631.38752141 138.25332594 651.45215702 C137.74805099 654.34970612 137.24252721 657.2472117 136.73694229 660.14470673 C135.3365714 668.17138624 133.93711822 676.19821761 132.54336643 684.22604942 C131.99216136 687.39845384 131.43915545 690.57054242 130.88568211 693.7425518 C130.63227962 695.19735229 130.37969983 696.65229636 130.12800503 698.10739326 C129.78780215 700.07387015 129.44455645 702.03981991 129.10113525 704.0057373 C128.91120121 705.09904106 128.72126717 706.19234482 128.52557755 707.31877899 C128 710 128 710 127 713 C43.51 713 -39.98 713 -126 713 C-128.37883011 701.10584944 -130.73033542 689.24552284 -132.79882812 677.30029297 C-133.05283948 675.84467685 -133.30707242 674.38909939 -133.56150341 672.93355656 C-134.2447011 669.02161615 -134.92489632 665.10915927 -135.60454345 661.19660068 C-136.33544903 656.99243678 -137.0693613 652.78879767 -137.80293274 648.58509827 C-139.21739793 640.47707552 -140.62941681 632.36862882 -142.04051632 624.26001972 C-144.81373815 608.32504371 -147.5925683 592.3910443 -150.37073708 576.45693016 C-151.0281162 572.68645882 -151.68534336 568.91596103 -152.34244347 565.14544106 C-156.53823973 541.07003063 -160.75143755 516.99779775 -164.99593782 492.93092537 C-165.59743576 489.51972488 -166.19839724 486.10842991 -166.79940796 482.69714355 C-168.77572006 471.48122287 -170.75372301 460.26561552 -172.74070454 449.05157948 C-173.52942385 444.59539311 -174.31476917 440.13861712 -175.09917259 435.68166924 C-175.45748324 433.65028313 -175.8173017 431.6191623 -176.17876625 429.58833504 C-176.66446687 426.85895328 -177.14501121 424.12871284 -177.62426758 421.39819336 C-177.76579002 420.61059065 -177.90731247 419.82298794 -178.05312347 419.01151848 C-178.57537703 416.01043957 -179.00082647 413.1584265 -178.98490906 410.10719299 C-178.78973927 407.83541249 -178.78973927 407.83541249 -180.6171875 405.88671875 C-181.36226562 405.16097656 -182.10734375 404.43523437 -182.875 403.6875 C-198.33777342 387.23568803 -208.86102268 364.07236225 -216.29589844 342.9921875 C-216.94933554 341.14335022 -217.63357163 339.30547707 -218.3203125 337.46875 C-224.70041001 319.65262866 -229.38446913 299.84410932 -230.625 280.9375 C-230.69976563 279.87402344 -230.77453125 278.81054688 -230.8515625 277.71484375 C-231.0474078 272.8135575 -231 267.90519747 -231 263 C-241.23 263 -251.46 263 -262 263 C-262 262.67 -262 262.34 -262 262 C-251.77 262 -241.54 262 -231 262 C-231 258.37 -231 254.74 -231 251 C-228.00437691 203.10944659 -211.28233395 153.09205038 -179 117 C-177.85346224 115.66727235 -176.70753383 114.33401999 -175.5625 113 C-171.906775 108.83973184 -168.13003845 104.78923038 -164.34985352 100.7421875 C-161.94321091 98.15523493 -159.60112834 95.54750492 -157.36328125 92.8125 C-154.23259226 89.08672137 -150.72941266 86.10673985 -147 83 C-146.30519531 82.40574219 -145.61039063 81.81148438 -144.89453125 81.19921875 C-124.48565408 64.23280279 -99.98317726 50.86191209 -75 42 C-74.29584961 41.7431543 -73.59169922 41.48630859 -72.86621094 41.22167969 C-57.77908523 35.83389504 -42.08001458 33.64191285 -26.27929688 31.45458984 C-24.45004716 31.2010116 -22.62175911 30.93866591 -20.79882812 30.64306641 C-13.79498748 29.56308775 -7.29566136 30 0 30 C0 20.1 0 10.2 0 0 Z M-40.09912109 35.50048828 C-42.54861001 35.9222737 -44.99672525 36.30120094 -47.45703125 36.65234375 C-88.54033128 43.12581945 -128.99667692 66.85542697 -158 96 C-158.58523438 96.57363281 -159.17046875 97.14726562 -159.7734375 97.73828125 C-163.40033815 101.30325921 -166.80965051 104.9920824 -170.125 108.84765625 C-172.16545303 111.18992629 -174.2698577 113.46577442 -176.375 115.75 C-214.66943635 158.50780815 -231.7490598 220.15192899 -228.86376953 276.66845703 C-225.72421489 323.19256558 -208.81647607 372.67016516 -177.29541016 407.56201172 C-175.66677108 409.36990546 -174.08447061 411.21587853 -172.5 413.0625 C-171.33824209 414.37934696 -170.17086498 415.69124389 -169 417 C-168.36674805 417.70890381 -168.36674805 417.70890381 -167.72070312 418.43212891 C-157.43585899 429.89853093 -146.58022408 440.04065222 -134 449 C-132.96230469 449.75667969 -131.92460938 450.51335937 -130.85546875 451.29296875 C-114.02357958 463.24080228 -94.44698486 473.10185937 -75 480 C-74.29584961 480.2568457 -73.59169922 480.51369141 -72.86621094 480.77832031 C-56.7437723 486.53582702 -39.87970617 488.66843095 -23 491 C-22.26491211 491.1141626 -21.52982422 491.2283252 -20.77246094 491.34594727 C-0.4553872 494.34917623 21.04632821 491.98947187 41.09912109 488.49951172 C43.54861001 488.0777263 45.99672525 487.69879906 48.45703125 487.34765625 C85.52571909 481.50676105 124.28895142 460.88923155 151.4609375 435.3203125 C153.86612467 433.12234145 156.34338033 431.15573683 158.9375 429.1875 C165.34605719 424.13771917 170.63776917 418.11634884 176 412 C176.49209961 411.44054687 176.98419922 410.88109375 177.49121094 410.3046875 C215.85675308 366.45835363 233.80964758 306.03485314 230.86376953 248.33154297 C227.72421489 201.80743442 210.81647607 152.32983484 179.29541016 117.43798828 C177.66677108 115.63009454 176.08447061 113.78412147 174.5 111.9375 C173.33805577 110.62081744 172.17072313 109.308883 171 108 C170.58314941 107.53271484 170.16629883 107.06542969 169.73681641 106.58398438 C159.12357403 94.73492823 148.01810151 84.22925107 135 75 C133.96359375 74.24460937 132.9271875 73.48921875 131.859375 72.7109375 C115.02907947 60.75923808 95.44769429 50.89839228 76 44 C74.94377441 43.61473145 74.94377441 43.61473145 73.86621094 43.22167969 C57.7437723 37.46417298 40.87970617 35.33156905 24 33 C23.26491211 32.8858374 22.52982422 32.7716748 21.77246094 32.65405273 C1.4553872 29.65082377 -20.04632821 32.01052813 -40.09912109 35.50048828 Z M-177 411 C-173.01966889 435.99675758 -168.79513469 460.9428027 -164.39094734 485.86814523 C-163.55214245 490.61880779 -162.71638226 495.37000615 -161.88024902 500.12113953 C-160.29119892 509.14810124 -158.69971943 518.17463268 -157.10722876 527.20098799 C-155.17378893 538.16035645 -153.24300141 549.12019174 -151.3125 560.08007812 C-151.14043596 561.05691173 -150.96837193 562.03374534 -150.79109383 563.04017997 C-150.09715687 566.97977999 -149.40322109 570.91938022 -148.70932102 574.85898674 C-147.67772636 580.71574312 -146.64583697 586.57244749 -145.61373615 592.4291147 C-138.70866486 631.61349292 -131.84755882 670.80553491 -125 710 C-124.34 710 -123.68 710 -123 710 C-121.6672812 708.53309441 -120.41086131 706.99677499 -119.1875 705.4375 C-115.39547454 700.69288843 -111.49788326 696.07224834 -107.5 691.5 C-103.03059736 686.37606891 -98.6723511 681.18420378 -94.39453125 675.8984375 C-90.84563673 671.60271199 -87.18317609 667.40743796 -83.515625 663.21289062 C-82.98839844 662.60896484 -82.46117187 662.00503906 -81.91796875 661.3828125 C-81.21837036 660.58447998 -81.21837036 660.58447998 -80.50463867 659.77001953 C-80.00810791 659.18591309 -79.51157715 658.60180664 -79 658 C-78.29732026 657.26744649 -77.59464052 656.53489298 -76.87066746 655.78014088 C-74.49175174 652.24465369 -74.78568522 650.87767833 -75.56468201 646.74772644 C-75.89492528 644.88551232 -75.89492528 644.88551232 -76.23184013 642.98567772 C-76.3583932 642.33186048 -76.48494627 641.67804325 -76.61533427 641.00441337 C-76.99536055 639.02417523 -77.3414334 637.04105535 -77.67653084 635.05275917 C-78.41148859 630.70888007 -79.18753227 626.37280122 -79.96508789 622.03637695 C-80.25952317 620.38406375 -80.55375236 618.73171382 -80.84779358 617.07933044 C-81.63886173 612.63754838 -82.4329411 608.19630981 -83.22772908 603.75519204 C-84.06153827 599.09374733 -84.8929353 594.43187229 -85.72471619 589.77006531 C-87.11919271 581.95683365 -88.51567443 574.14396238 -89.91333008 566.33129883 C-91.52941151 557.29750665 -93.14211091 548.26311552 -94.7530728 539.22840911 C-96.30584134 530.52059526 -97.86113719 521.81323459 -99.4175396 513.10606956 C-100.07906105 509.40492989 -100.73966316 505.70362785 -101.39952278 502.00219154 C-102.17478949 497.65398091 -102.95225317 493.30616879 -103.73143578 488.95865822 C-104.01722509 487.3620025 -104.30224495 485.76520883 -104.58644867 484.16827011 C-104.97365255 481.99329748 -105.36360975 479.81883634 -105.75428772 477.64448547 C-106.08085405 475.81757408 -106.08085405 475.81757408 -106.41401768 473.95375538 C-106.94384914 470.95916017 -106.94384914 470.95916017 -108 468 C-107.34 467.67 -106.68 467.34 -106 467 C-107.10214844 466.41734375 -108.20429687 465.8346875 -109.33984375 465.234375 C-124.19548004 457.25842713 -137.98683238 448.36477431 -150.19140625 436.66796875 C-152.36635905 434.60191484 -154.56518003 432.64893557 -156.84375 430.703125 C-161.18542297 426.92974189 -165.06021393 422.80461579 -168.9375 418.5625 C-170.25674746 417.12412741 -171.57823229 415.68780248 -172.90234375 414.25390625 C-173.47460693 413.62814697 -174.04687012 413.0023877 -174.63647461 412.35766602 C-175.79740839 410.8824029 -175.79740839 410.8824029 -177 411 Z M174.6171875 414.25 C171.51983839 417.36123857 168.55710317 420.49833966 165.75 423.875 C162.16756433 428.03447229 158.0807303 431.33491667 153.78515625 434.734375 C151.2644253 436.78489948 148.96003945 438.93182682 146.625 441.1875 C135.08874241 451.69010891 120.95841618 460.11143097 107 467 C107.66 467.33 108.32 467.66 109 468 C108.78978714 469.0115918 108.57957428 470.02318359 108.36299133 471.06542969 C104.67152337 489.06758819 101.48334177 507.16479061 98.23046875 525.25 C97.90975916 527.03176257 97.58902749 528.81352116 97.26827431 530.59527588 C95.76531725 538.94560167 94.26428393 547.29627044 92.76563948 555.64737129 C91.04136656 565.2553557 89.31018572 574.86206337 87.57337302 584.4677887 C86.22482227 591.92872195 84.88261001 599.39077826 83.54518586 606.85371399 C82.74843083 611.29877283 81.94893203 615.74329661 81.14269066 620.18664551 C80.38765905 624.34862071 79.64046979 628.51192691 78.89936066 632.67640305 C78.62610595 634.20396866 78.34999704 635.73102683 78.07084846 637.2575264 C77.69080392 639.33820223 77.32101781 641.42044935 76.95378113 643.50341797 C76.74419864 644.66839813 76.53461615 645.8333783 76.31868267 647.03366089 C75.81372421 651.73387888 76.47150023 653.32650597 79.40625 657.06640625 C80.43095913 658.23752639 81.46262754 659.40258209 82.5 660.5625 C83.60649903 661.82461833 84.71195965 663.08764775 85.81640625 664.3515625 C86.63455811 665.28403809 86.63455811 665.28403809 87.46923828 666.23535156 C89.51384264 668.59235321 91.47908799 671.00863148 93.4375 673.4375 C98.58072695 679.76905376 103.95021548 685.89873831 109.30517578 692.05078125 C112.12830232 695.29766144 114.94218514 698.55237401 117.75 701.8125 C118.52017456 702.70159058 118.52017456 702.70159058 119.3059082 703.60864258 C122.88509374 707.77018747 122.88509374 707.77018747 124 710 C124.66 710 125.32 710 126 710 C126.22110805 708.73463095 126.22110805 708.73463095 126.44668293 707.44369888 C130.12988358 686.36553783 133.81381498 665.2875046 137.49842548 644.20958996 C139.33784926 633.68699974 141.17701974 623.16436535 143.015625 612.64163208 C145.21415541 600.05914478 147.41329123 587.47676343 149.61328125 574.89453125 C149.88564252 573.33683136 149.88564252 573.33683136 150.16350603 571.74766278 C154.75339223 545.49876578 159.35713583 519.25241902 164.00131774 493.01307154 C164.57895651 489.74876074 165.15599816 486.48434445 165.73310852 483.21994019 C167.58105944 472.76946736 169.43092921 462.31936437 171.29324055 451.87143993 C172.02167088 447.77943157 172.74612202 443.68672621 173.46949196 439.59382057 C173.79621476 437.7506711 174.12474527 435.90784093 174.45529747 434.06537437 C174.89606872 431.60810084 175.33063734 429.14980891 175.76367188 426.69116211 C175.89113706 425.98992847 176.01860224 425.28869484 176.14993 424.5662117 C176.82933375 420.66456099 177.12141484 416.95856972 177 413 C175.81296447 412.888236 175.81296447 412.888236 174.6171875 414.25 Z M-106 468 C-104.59623211 478.3832193 -102.88008319 488.68361 -101.03491211 498.99536133 C-100.7404833 500.65092079 -100.44625391 502.30651572 -100.15220642 503.96214294 C-99.36119608 508.41206458 -98.56714011 512.86143732 -97.77227092 517.31067109 C-97.10775468 521.03165056 -96.44465128 524.75288129 -95.78150469 528.47410506 C-94.21882132 537.24266277 -92.65353652 546.01075337 -91.08666992 554.77856445 C-89.46950942 563.82811138 -87.85710492 572.87849695 -86.2469272 581.92928869 C-84.86204777 589.71262208 -83.4741165 597.49540706 -82.08373648 605.27775973 C-81.25417627 609.92127655 -80.42582782 614.5650015 -79.60047722 619.20926857 C-78.82669427 623.56266607 -78.04912639 627.91537021 -77.26856422 632.26755714 C-76.98216563 633.86816952 -76.69713971 635.46902817 -76.41355133 637.07014084 C-76.02792727 639.24610867 -75.63746997 641.421153 -75.24571228 643.59602356 C-75.02800139 644.81580808 -74.81029051 646.03559259 -74.58598232 647.29234028 C-74.27663227 649.90388122 -74.27663227 649.90388122 -73 651 C-71.10171764 651.0965683 -69.19979337 651.12187216 -67.29905701 651.12025452 C-66.0608017 651.12162918 -64.82254639 651.12300385 -63.54676819 651.12442017 C-62.16195655 651.12088056 -60.77714515 651.11724574 -59.39233398 651.11352539 C-57.94392906 651.11324352 -56.49552399 651.11340124 -55.04711914 651.1139679 C-51.10307686 651.11425589 -47.15906473 651.1083588 -43.21502948 651.10139394 C-39.09770531 651.09516078 -34.98038052 651.09455663 -30.86305237 651.09336853 C-23.06094138 651.0902551 -15.25884433 651.08204156 -7.45673949 651.07201904 C1.42340304 651.06085826 10.30354622 651.05534754 19.18369401 651.05032361 C37.45580392 651.03985896 55.72790084 651.02225929 74 651 C75.43212386 646.22606199 76.53683245 641.52449458 77.41738892 636.61065674 C77.54568789 635.9003379 77.67398686 635.19001907 77.80617368 634.45817542 C78.23179196 632.09674175 78.65227852 629.7344247 79.07275391 627.37207031 C79.3781615 625.67143922 79.68387943 623.97086384 79.98988342 622.27033997 C80.81745734 617.66592176 81.64050548 613.06070524 82.46258974 608.45530415 C83.32379874 603.63432378 84.18869959 598.81400564 85.05307007 593.99359131 C86.50307343 585.9038926 87.95017241 577.81367846 89.39550781 569.72314453 C91.06751283 560.36397107 92.74393942 551.00559791 94.42276251 541.64764524 C96.0376853 532.64538132 97.64966468 523.64259284 99.26023483 514.63954926 C99.94590602 510.80690711 100.63258305 506.97444718 101.32005692 503.14212799 C102.12847838 498.63475041 102.93431809 494.12691878 103.73814201 489.6187191 C104.03394691 487.96210211 104.33064196 486.30564378 104.62827873 484.64935493 C105.03345247 482.39379464 105.43543185 480.13768816 105.83657837 477.88140869 C106.06258539 476.61750431 106.28859241 475.35359993 106.52144814 474.05139542 C107.07746834 471.02082 107.07746834 471.02082 107 468 C102.36936587 469.376264 98.15901987 471.30031287 93.81640625 473.37719727 C79.83195169 480.03097099 65.32146246 485.44642292 50 488 C50.33 492.95 50.66 497.9 51 503 C67.335 503.495 67.335 503.495 84 504 C84.33 506.97 84.66 509.94 85 513 C29.23 513 -26.54 513 -84 513 C-84 509.7 -84 506.4 -84 503 C-72.78 503 -61.56 503 -50 503 C-50 498.05 -50 493.1 -50 488 C-51.1859375 487.70867187 -52.371875 487.41734375 -53.59375 487.1171875 C-69.18945123 483.2052874 -83.4441499 477.97427581 -97.8828125 470.89550781 C-98.65109375 470.52006836 -99.419375 470.14462891 -100.2109375 469.7578125 C-100.89462402 469.4189502 -101.57831055 469.08008789 -102.28271484 468.73095703 C-103.99564252 467.86945176 -103.99564252 467.86945176 -106 468 Z M-84.89370728 664.24920654 C-85.24481693 664.88675117 -85.59592659 665.52429581 -85.95767593 666.18115997 C-87.5019138 668.87583213 -89.4808893 671.15096848 -91.5 673.5 C-92.55767578 674.80517578 -92.55767578 674.80517578 -93.63671875 676.13671875 C-96.47550959 679.57611327 -99.38654802 682.9472262 -102.3125 686.3125 C-102.8580957 686.9405957 -103.40369141 687.56869141 -103.96582031 688.21582031 C-106.22018756 690.80907072 -108.47619722 693.40084262 -110.73779297 695.98779297 C-112.41259544 697.90503221 -114.0817023 699.82710062 -115.75 701.75 C-116.26344971 702.33434814 -116.77689941 702.91869629 -117.3059082 703.52075195 C-119.45806932 706.00837212 -120.94854644 707.84563933 -122 711 C-41.15 711 39.7 711 123 711 C120.3656157 706.60228848 120.3656157 706.60228848 117.28515625 702.72265625 C116.76985352 702.13387695 116.25455078 701.54509766 115.72363281 700.93847656 C115.17545898 700.3194043 114.62728516 699.70033203 114.0625 699.0625 C112.89159729 697.72554918 111.7210321 696.38830269 110.55078125 695.05078125 C109.95861816 694.37611816 109.36645508 693.70145508 108.75634766 693.00634766 C102.54285603 685.90842241 96.3962175 678.75095257 90.4375 671.4375 C89.38570053 670.21634491 89.38570053 670.21634491 88.31265259 668.97052002 C86 666 86 666 84.32797241 662.68841553 C81.75732713 658.36191443 79.49306663 655.38410532 75 653 C65.07604004 650.53657777 54.39129727 651.10002409 44.22534227 651.18790531 C40.95256473 651.20835069 37.68056605 651.18754737 34.4078306 651.16679454 C26.67934583 651.11815957 18.95295949 651.13500313 11.22460938 651.1953125 C3.28216733 651.25633398 -4.65505623 651.21591313 -12.59708059 651.12373471 C-19.44456996 651.04735704 -26.29046304 651.02999601 -33.13831294 651.05995822 C-37.21578477 651.07751098 -41.29037435 651.07467396 -45.36753464 651.01670074 C-68.38736184 650.1053989 -68.38736184 650.1053989 -84.89370728 664.24920654 Z " fill="#000000" transform="translate(1455,265)"/>
<path d="M0 0 C7.79244649 7.79244649 2 21.9798165 2 33 C-30.34 33 -62.68 33 -96 33 C-96 22.44 -96 11.88 -96 1 C-92.48534218 -0.40586313 -90.18975971 -1.28003508 -86.62890625 -1.81640625 C-85.81478271 -1.94039795 -85.00065918 -2.06438965 -84.16186523 -2.19213867 C-83.30407471 -2.31435791 -82.44628418 -2.43657715 -81.5625 -2.5625 C-80.66797119 -2.69180908 -79.77344238 -2.82111816 -78.85180664 -2.9543457 C-53.26633867 -6.54508706 -25.14045743 -6.72204744 0 0 Z " fill="#FFFFFF" transform="translate(806,735)"/>
<path d="M0 0 C0.33 0 0.66 0 1 0 C1 9.9 1 19.8 1 30 C5.95 30 10.9 30 16 30 C20.68891618 30.51346108 25.28602222 31.08493102 29.9375 31.8125 C31.16114258 31.99844727 32.38478516 32.18439453 33.64550781 32.37597656 C36.04504129 32.74479257 38.4436998 33.11936069 40.84130859 33.50048828 C43.39853807 33.90488552 45.95681642 34.28520817 48.51953125 34.65234375 C87.17693692 40.84562445 125.72809771 62.45810139 154 89 C155.4107431 90.23596077 156.82691535 91.46576958 158.25 92.6875 C163.98708362 97.68846088 169.16555385 103.08008606 174.125 108.84765625 C176.16545303 111.18992629 178.2698577 113.46577442 180.375 115.75 C215.22611693 154.6631559 233 210.34682248 233 262 C242.57 262 252.14 262 262 262 C262 262.33 262 262.66 262 263 C252.43 263 242.86 263 233 263 C233 266.63 233 270.26 233 274 C230.4360046 314.99018967 217.75901469 367.75910634 188.77734375 398.53125 C188.23263428 399.11583984 187.6879248 399.70042969 187.12670898 400.30273438 C186.09562386 401.37854164 185.03369691 402.42625118 183.93383789 403.43164062 C180.17219293 407.29796726 179.57998208 410.78789799 179.04348755 416.09619141 C178.38610373 422.0458051 177.57348287 427.93648505 176.54464722 433.83349609 C176.41103169 434.59952085 176.27741616 435.36554562 176.13975167 436.15478325 C175.70794449 438.61153342 175.27174286 441.06748045 174.83544922 443.5234375 C174.51954782 445.31881848 174.20399624 447.11426103 173.88876343 448.90975952 C173.04119845 453.73159948 172.18881013 458.55257507 171.33548117 463.37339783 C170.44110298 468.43104578 169.55126308 473.48949215 168.66091919 478.54785156 C166.97835773 488.10310797 165.29177996 497.65765077 163.60371888 507.21193695 C161.68036985 518.0990921 159.76155922 528.9870456 157.84310889 539.87506485 C153.90041638 562.2509283 149.95209223 584.62579499 146 607 C145.34 607 144.68 607 144 607 C144.61344983 597.40682103 146.27642412 588.03026639 147.95922852 578.58251953 C148.2651921 576.84526003 148.57074304 575.10792782 148.87591553 573.37052917 C149.53028836 569.64992953 150.18744761 565.92983706 150.84680367 562.21011734 C151.88937166 556.32786413 152.92503526 550.44440798 153.95970154 544.5607605 C156.15528668 532.08122868 158.35862767 519.6030705 160.5625 507.125 C162.94559289 493.63128576 165.32718141 480.137313 167.70064873 466.64190185 C168.72961148 460.79275717 169.76274895 454.94436996 170.799101 449.0965302 C171.44200652 445.46394152 172.0814031 441.83074164 172.71984863 438.19736671 C173.01666749 436.51245682 173.31495688 434.82780521 173.61482048 433.14343452 C174.02375656 430.84524658 174.42744221 428.54619545 174.82984924 426.24685669 C175.05715508 424.96049379 175.28446093 423.6741309 175.51865482 422.34878731 C175.92862017 419.49659969 176.1026257 416.87254796 176 414 C175.59797363 414.44279297 175.19594727 414.88558594 174.78173828 415.34179688 C160.98490433 430.47304643 160.98490433 430.47304643 153.28125 436.23828125 C150.91557979 438.06519437 148.83587352 440.04849108 146.6875 442.125 C134.74653664 452.91636751 120.50062616 461.00869077 106.3125 468.4375 C105.21929443 469.01145508 104.12608887 469.58541016 102.99975586 470.17675781 C97.19793305 473.13872406 97.19793305 473.13872406 95 474 C94.34 473.67 93.68 473.34 93 473 C97.90965472 469.78964458 102.90512542 466.97545346 108.15454102 464.36132812 C124.02688386 456.41843809 138.61031479 446.77449333 151.41015625 434.44140625 C153.86081621 432.13120644 156.38288964 430.09833501 159.0625 428.0625 C165.07033607 423.34068635 170.00745484 417.74359008 175 412 C175.47646973 411.45617676 175.95293945 410.91235352 176.44384766 410.35205078 C212.40330643 369.18809275 227.32241147 316.56299529 231 263 C227.37 263 223.74 263 220 263 C220 262.67 220 262.34 220 262 C223.63 262 227.26 262 231 262 C227.73715607 210.3955473 213.72608354 156.65752555 178.29541016 117.43798828 C176.66677108 115.63009454 175.08447061 113.78412147 173.5 111.9375 C172.33824209 110.62065304 171.17086498 109.30875611 170 108 C169.57783203 107.52739746 169.15566406 107.05479492 168.72070312 106.56787109 C158.43585899 95.10146907 147.58022408 84.95934778 135 76 C133.96230469 75.24332031 132.92460938 74.48664063 131.85546875 73.70703125 C115.02357958 61.75919772 95.44698486 51.89814063 76 45 C75.29584961 44.7431543 74.59169922 44.48630859 73.86621094 44.22167969 C50.765349 35.97209843 25.33269567 33.63029061 1 32 C1 35.3 1 38.6 1 42 C0.67 42 0.34 42 0 42 C0 38.7 0 35.4 0 32 C-73.15370092 36.40136375 -129.94442816 64.24380918 -178.5402832 119.01904297 C-194.07077456 136.97839295 -205.44254667 159.74112869 -213.29589844 182.0078125 C-213.94933554 183.85664978 -214.63357163 185.69452293 -215.3203125 187.53125 C-221.78509455 205.58384893 -226.47494784 225.58246397 -227.625 244.75 C-227.73714844 246.53664063 -227.73714844 246.53664063 -227.8515625 248.359375 C-227.90054687 249.23078125 -227.94953125 250.1021875 -228 251 C-228.66 251 -229.32 251 -230 251 C-232.66052852 207.69250795 -211.15967939 153.83479552 -182.89233398 121.36889648 C-181.6000858 119.90798459 -180.30029919 118.45375065 -179 117 C-177.85346224 115.66727235 -176.70753383 114.33401999 -175.5625 113 C-171.906775 108.83973184 -168.13003845 104.78923038 -164.34985352 100.7421875 C-161.94321091 98.15523493 -159.60112834 95.54750492 -157.36328125 92.8125 C-154.23259226 89.08672137 -150.72941266 86.10673985 -147 83 C-146.30519531 82.40574219 -145.61039063 81.81148438 -144.89453125 81.19921875 C-124.48565408 64.23280279 -99.98317726 50.86191209 -75 42 C-74.29584961 41.7431543 -73.59169922 41.48630859 -72.86621094 41.22167969 C-57.77908523 35.83389504 -42.08001458 33.64191285 -26.27929688 31.45458984 C-24.45004716 31.2010116 -22.62175911 30.93866591 -20.79882812 30.64306641 C-13.79498748 29.56308775 -7.29566136 30 0 30 C0 20.1 0 10.2 0 0 Z " fill="#000000" transform="translate(1455,265)"/>
<path d="M0 0 C1.98 0 3.96 0 6 0 C6 76.23 6 152.46 6 231 C4.02 231 2.04 231 0 231 C0 154.77 0 78.54 0 0 Z " fill="#FFFFFF" transform="translate(1000,296)"/>
<path d="M0 0 C1.98 0 3.96 0 6 0 C6 76.23 6 152.46 6 231 C4.02 231 2.04 231 0 231 C0 154.77 0 78.54 0 0 Z " fill="#FFFFFF" transform="translate(192,296)"/>
<path d="M0 0 C1.98 0 3.96 0 6 0 C6 75.9 6 151.8 6 230 C4.02 230 2.04 230 0 230 C0 154.1 0 78.2 0 0 Z " fill="#FFFFFF" transform="translate(1000,528)"/>
<path d="M0 0 C1.98 0 3.96 0 6 0 C6 75.9 6 151.8 6 230 C4.02 230 2.04 230 0 230 C0 154.1 0 78.2 0 0 Z " fill="#FFFFFF" transform="translate(192,528)"/>
<path d="M0 0 C0.99 0.495 0.99 0.495 2 1 C2 2.98 2 4.96 2 7 C3.62808594 6.67515625 3.62808594 6.67515625 5.2890625 6.34375 C6.7343179 6.06220674 8.17963365 5.78097314 9.625 5.5 C10.33785156 5.35691406 11.05070313 5.21382812 11.78515625 5.06640625 C15.92144935 4.26950574 19.76433679 3.83965944 24 4 C24 4.66 24 5.32 24 6 C136.53 6 249.06 6 365 6 C365.33 6.66 365.66 7.32 366 8 C253.14 8 140.28 8 24 8 C24 8.99 24 9.98 24 11 C22.20779424 10.88298313 20.41624915 10.75584692 18.625 10.625 C17.12839844 10.52058594 17.12839844 10.52058594 15.6015625 10.4140625 C11.02698538 9.88813498 6.51528979 8.90305796 2 8 C2 46.61 2 85.22 2 125 C1.34 125 0.68 125 0 125 C0 83.75 0 42.5 0 0 Z " fill="#0080FF" transform="translate(198,165)"/>
<path d="M0 0 C0.66 0.33 1.32 0.66 2 1 C2 41.92 2 82.84 2 125 C1.34 125 0.68 125 0 125 C0 86.39 0 47.78 0 8 C-8.91 9.485 -8.91 9.485 -18 11 C-19.98 11 -21.96 11 -24 11 C-24 10.01 -24 9.02 -24 8 C-136.2 8 -248.4 8 -364 8 C-364 7.34 -364 6.68 -364 6 C-251.8 6 -139.6 6 -24 6 C-24 5.34 -24 4.68 -24 4 C-15.89963866 4.54576903 -7.98651182 5.54147036 0 7 C0 4.69 0 2.38 0 0 Z " fill="#0080FF" transform="translate(998,165)"/>
<path d="M0 0 C54.78 0 109.56 0 166 0 C166 1.98 166 3.96 166 6 C111.22 6 56.44 6 0 6 C0 4.02 0 2.04 0 0 Z " fill="#FFFFFF" transform="translate(676,770)"/>
<path d="M0 0 C0.66 0.33 1.32 0.66 2 1 C2 25.42 2 49.84 2 75 C1.34 75 0.68 75 0 75 C0 73.02 0 71.04 0 69 C-1.22976563 69.2165625 -2.45953125 69.433125 -3.7265625 69.65625 C-5.35932991 69.93776162 -6.99214497 70.21899704 -8.625 70.5 C-9.43324219 70.64308594 -10.24148438 70.78617188 -11.07421875 70.93359375 C-15.43877864 71.67876251 -19.55238129 72.17272306 -24 72 C-24 71.01 -24 70.02 -24 69 C-60.96 69 -97.92 69 -136 69 C-136 69.99 -136 70.98 -136 72 C-137.87524747 71.85738409 -139.75018964 71.71075143 -141.625 71.5625 C-142.66914062 71.48128906 -143.71328125 71.40007812 -144.7890625 71.31640625 C-148 71 -148 71 -150.85187721 70.49011326 C-153.81811053 70.02831733 -156.58292027 69.86239642 -159.5809021 69.84178162 C-160.6661618 69.8319928 -161.75142151 69.82220398 -162.86956787 69.81211853 C-164.04489075 69.80636307 -165.22021362 69.8006076 -166.43115234 69.79467773 C-167.68048553 69.78477814 -168.92981873 69.77487854 -170.2170105 69.76467896 C-173.62976431 69.73856575 -177.04249566 69.71667318 -180.45528746 69.69667697 C-184.02674542 69.67474649 -187.59816181 69.64739249 -191.16958618 69.62062073 C-197.92673013 69.57078902 -204.68389727 69.52581504 -211.44108641 69.48259836 C-219.13639073 69.43314439 -226.83165331 69.37825663 -234.52691722 69.32291877 C-250.35123954 69.20924499 -266.1756003 69.10237439 -282 69 C-282 68.34 -282 67.68 -282 67 C-241.74 67 -201.48 67 -160 67 C-160 61.39 -160 55.78 -160 50 C-159.67 50 -159.34 50 -159 50 C-159 55.94 -159 61.88 -159 68 C-153.67444145 67.01857554 -153.67444145 67.01857554 -148.35107422 66.02539062 C-144.17735378 65.27250763 -140.26173904 64.83661064 -136 65 C-136 65.66 -136 66.32 -136 67 C-99.04 67 -62.08 67 -24 67 C-24 66.34 -24 65.68 -24 65 C-22.24951008 65.11794081 -20.4996282 65.24489944 -18.75 65.375 C-17.77546875 65.44460938 -16.8009375 65.51421875 -15.796875 65.5859375 C-10.50151399 66.16341514 -5.25427967 67.12428672 0 68 C0 45.56 0 23.12 0 0 Z " fill="#007DF9" transform="translate(758,782)"/>
<path d="M0 0 C4.29 0 8.58 0 13 0 C13 0.99 13 1.98 13 3 C9.7 3 6.4 3 3 3 C3 4.98 3 6.96 3 9 C4.423125 8.9690625 4.423125 8.9690625 5.875 8.9375 C9 9 9 9 11 10 C13.54615009 10.23172827 16.07396225 10.41894529 18.625 10.5625 C19.33140625 10.60568359 20.0378125 10.64886719 20.765625 10.69335938 C22.51018537 10.79944751 24.25506697 10.90022889 26 11 C26.33 8.36 26.66 5.72 27 3 C23.4780279 2.91995518 20.38018531 2.95994298 17 4 C17.33 2.68 17.66 1.36 18 0 C21.37916971 -0.28529575 24.62923194 -0.42812006 28 0 C30.1875 2.125 30.1875 2.125 31 5 C30.6875 8.3125 30.6875 8.3125 30 11 C31.32 11 32.64 11 34 11 C34.18175781 10.06027344 34.18175781 10.06027344 34.3671875 9.1015625 C34.61855469 7.87566406 34.61855469 7.87566406 34.875 6.625 C35.03742188 5.81289063 35.19984375 5.00078125 35.3671875 4.1640625 C36 2 36 2 38 0 C45.15502555 -0.68143101 45.15502555 -0.68143101 47.9375 1.5625 C49 4 49 4 50 11 C59.57 11 69.14 11 79 11 C79 11.33 79 11.66 79 12 C69.43 12 59.86 12 50 12 C49.67 14.64 49.34 17.28 49 20 C47.9375 22.5 47.9375 22.5 46 24 C43.2220123 24.55675745 40.7779877 24.55675745 38 24 C35.05696499 21.72152128 34.7877534 19.27688053 34.3125 15.75 C34.1578125 13.89375 34.1578125 13.89375 34 12 C27.85169289 13.20555041 25.64751781 14.91558124 22 20 C25.3 20.33 28.6 20.66 32 21 C32 21.99 32 22.98 32 24 C27.05 24 22.1 24 17 24 C18.20854214 17.95728928 19.93341088 16.41268181 24 12 C20.37 12 16.74 12 13 12 C13.12375 13.85625 13.12375 13.85625 13.25 15.75 C13.22369097 18.71765842 13.08046497 19.86006093 11.5625 22.5 C7.78106272 24.71352426 4.2792407 24.32917236 0 24 C-0.33 22.68 -0.66 21.36 -1 20 C1.01822917 20.32552083 3.03645833 20.65104167 5.0546875 20.9765625 C6.01761719 20.98816406 6.01761719 20.98816406 7 21 C9.26839983 19.16734675 9.26839983 19.16734675 9.1875 16.4375 C9.27003323 14.05310277 9.27003323 14.05310277 8 13 C6.29436222 12.84259395 4.58272756 12.74906608 2.87109375 12.68359375 C1.83662109 12.64169922 0.80214844 12.59980469 -0.26367188 12.55664062 C-1.35228516 12.51732422 -2.44089844 12.47800781 -3.5625 12.4375 C-4.65498047 12.39431641 -5.74746094 12.35113281 -6.87304688 12.30664062 C-9.58189564 12.20017932 -12.29083992 12.09816484 -15 12 C-15 11.67 -15 11.34 -15 11 C-10.05 11 -5.1 11 0 11 C0 7.37 0 3.74 0 0 Z " fill="#0069D2" transform="translate(452,516)"/>
<path d="M0 0 C0.99 0.495 0.99 0.495 2 1 C2 45.88 2 90.76 2 137 C7.28 136.01 12.56 135.02 18 134 C19.98 134 21.96 134 24 134 C24 134.66 24 135.32 24 136 C53.37 136 82.74 136 113 136 C113.33 136.66 113.66 137.32 114 138 C84.3 138 54.6 138 24 138 C24 138.99 24 139.98 24 141 C16.52165033 140.51172287 9.31074682 139.66594452 2 138 C2 139.98 2 141.96 2 144 C1.34 144 0.68 144 0 144 C0 96.48 0 48.96 0 0 Z " fill="#0080FF" transform="translate(318,982)"/>
<path d="M0 0 C0 4.62 0 9.24 0 14 C-15.84 14 -31.68 14 -48 14 C-48 11.03 -48 8.06 -48 5 C-46.57171875 4.89042969 -45.1434375 4.78085937 -43.671875 4.66796875 C-32.83879835 3.80080045 -22.11284432 2.72992987 -11.38574219 0.96557617 C-10.61649414 0.84029541 -9.84724609 0.71501465 -9.0546875 0.5859375 C-8.38937012 0.4729834 -7.72405273 0.3600293 -7.03857422 0.24365234 C-4.70756797 -0.03495176 -2.34759673 0 0 0 Z " fill="#FFFFFF" transform="translate(1504,754)"/>
<path d="M0 0 C7.29572792 0.61388002 14.50656187 1.44580596 21.75 2.5 C30.49856152 3.73882018 39.17267997 4.60125813 48 5 C48 7.97 48 10.94 48 14 C32.16 14 16.32 14 0 14 C0 9.38 0 4.76 0 0 Z " fill="#FFFFFF" transform="translate(1407,754)"/>
<path d="M0 0 C0.99 0.495 0.99 0.495 2 1 C2 43.57 2 86.14 2 130 C7.28 129.01 12.56 128.02 18 127 C19.98 127 21.96 127 24 127 C24 127.66 24 128.32 24 129 C48.75 129 73.5 129 99 129 C99.33 129.66 99.66 130.32 100 131 C74.92 131 49.84 131 24 131 C24 131.99 24 132.98 24 134 C16.52165033 133.51172287 9.31074682 132.66594452 2 131 C2 132.98 2 134.96 2 137 C1.34 137 0.68 137 0 137 C0 91.79 0 46.58 0 0 Z " fill="#0080FF" transform="translate(1329,982)"/>
<path d="M0 0 C0.99 0.495 0.99 0.495 2 1 C2 45.88 2 90.76 2 137 C1.34 137 0.68 137 0 137 C0 135.02 0 133.04 0 131 C-1.22976563 131.2165625 -2.45953125 131.433125 -3.7265625 131.65625 C-5.35932991 131.93776162 -6.99214497 132.21899704 -8.625 132.5 C-9.43324219 132.64308594 -10.24148438 132.78617188 -11.07421875 132.93359375 C-15.43877864 133.67876251 -19.55238129 134.17272306 -24 134 C-24 133.01 -24 132.02 -24 131 C-48.42 131 -72.84 131 -98 131 C-98 130.34 -98 129.68 -98 129 C-73.58 129 -49.16 129 -24 129 C-24 128.34 -24 127.68 -24 127 C-22.24951008 127.11794081 -20.4996282 127.24489944 -18.75 127.375 C-17.28820313 127.47941406 -17.28820313 127.47941406 -15.796875 127.5859375 C-10.50151399 128.16341514 -5.25427967 129.12428672 0 130 C0 87.1 0 44.2 0 0 Z " fill="#0080FF" transform="translate(1580,982)"/>
<path d="M0 0 C27.06 0 54.12 0 82 0 C82 1.98 82 3.96 82 6 C54.94 6 27.88 6 0 6 C0 4.02 0 2.04 0 0 Z " fill="#FFFFFF" transform="translate(1456,770)"/>
<path d="M0 0 C27.06 0 54.12 0 82 0 C82 1.98 82 3.96 82 6 C54.94 6 27.88 6 0 6 C0 4.02 0 2.04 0 0 Z " fill="#FFFFFF" transform="translate(1373,770)"/>
<path d="M0 0 C0.99 0.495 0.99 0.495 2 1 C2 36.97 2 72.94 2 110 C1.34 110 0.68 110 0 110 C0 108.02 0 106.04 0 104 C-1.22976563 104.2165625 -2.45953125 104.433125 -3.7265625 104.65625 C-5.35932991 104.93776162 -6.99214497 105.21899704 -8.625 105.5 C-9.43324219 105.64308594 -10.24148438 105.78617188 -11.07421875 105.93359375 C-15.43877864 106.67876251 -19.55238129 107.17272306 -24 107 C-24 106.01 -24 105.02 -24 104 C-53.04 104 -82.08 104 -112 104 C-112 103.34 -112 102.68 -112 102 C-82.96 102 -53.92 102 -24 102 C-24 101.34 -24 100.68 -24 100 C-22.24951008 100.11794081 -20.4996282 100.24489944 -18.75 100.375 C-17.28820312 100.47941406 -17.28820312 100.47941406 -15.796875 100.5859375 C-10.50151399 101.16341514 -5.25427967 102.12428672 0 103 C0 69.01 0 35.02 0 0 Z " fill="#0080FF" transform="translate(598,1016)"/>
<path d="M0 0 C0.66 0.33 1.32 0.66 2 1 C2 64.03 2 127.06 2 192 C2.66 192 3.32 192 4 192 C3.01 198.6 2.02 205.2 1 212 C0.34 212 -0.32 212 -1 212 C-1.99 205.4 -2.98 198.8 -4 192 C-2.68 192 -1.36 192 0 192 C0 128.64 0 65.28 0 0 Z " fill="#0080FF" transform="translate(1785,762)"/>
<path d="M0 0 C0.66 0 1.32 0 2 0 C2.50400451 2.91602609 3.00334666 5.83272092 3.5 8.75 C3.64308594 9.575 3.78617188 10.4 3.93359375 11.25 C4.06894531 12.04921875 4.20429687 12.8484375 4.34375 13.671875 C4.46943359 14.4050293 4.59511719 15.13818359 4.72460938 15.89355469 C5 18 5 18 5 22 C4.34 22 3.68 22 3 22 C3 82.06 3 142.12 3 204 C2.34 204 1.68 204 1 204 C1 143.94 1 83.88 1 22 C-0.32 22 -1.64 22 -3 22 C-2.68905914 19.45813394 -2.37629464 16.91651402 -2.0625 14.375 C-1.97548828 13.66214844 -1.88847656 12.94929687 -1.79882812 12.21484375 C-1.29217395 8.12408039 -0.7110957 4.06157365 0 0 Z " fill="#0080FF" transform="translate(1784,530)"/>
<path d="M0 0 C0.66 0 1.32 0 2 0 C2.50400451 2.91602609 3.00334666 5.83272092 3.5 8.75 C3.64308594 9.575 3.78617187 10.4 3.93359375 11.25 C4.06894531 12.04921875 4.20429688 12.8484375 4.34375 13.671875 C4.46943359 14.4050293 4.59511719 15.13818359 4.72460938 15.89355469 C5 18 5 18 5 22 C4.34 22 3.68 22 3 22 C3 77.77 3 133.54 3 191 C2.34 191 1.68 191 1 191 C1 135.23 1 79.46 1 22 C-0.32 22 -1.64 22 -3 22 C-2.68905914 19.45813394 -2.37629464 16.91651402 -2.0625 14.375 C-1.97548828 13.66214844 -1.88847656 12.94929688 -1.79882812 12.21484375 C-1.29217395 8.12408039 -0.7110957 4.06157365 0 0 Z " fill="#0080FF" transform="translate(475,322)"/>
<path d="M0 0 C0.66 0.33 1.32 0.66 2 1 C2 57.1 2 113.2 2 171 C2.66 171 3.32 171 4 171 C3.01 177.6 2.02 184.2 1 191 C0.34 191 -0.32 191 -1 191 C-1.99 184.4 -2.98 177.8 -4 171 C-2.68 171 -1.36 171 0 171 C0 114.57 0 58.14 0 0 Z " fill="#0080FF" transform="translate(476,541)"/>
<path d="M0 0 C4.29 0 8.58 0 13 0 C13 0.99 13 1.98 13 3 C9.7 3 6.4 3 3 3 C3 4.98 3 6.96 3 9 C4.423125 8.9690625 4.423125 8.9690625 5.875 8.9375 C9 9 9 9 11 10 C13.54615009 10.23172827 16.07396225 10.41894529 18.625 10.5625 C19.33140625 10.60568359 20.0378125 10.64886719 20.765625 10.69335938 C22.51018537 10.79944751 24.25506697 10.90022889 26 11 C26.33 8.36 26.66 5.72 27 3 C23.4780279 2.91995518 20.38018531 2.95994298 17 4 C17.33 2.68 17.66 1.36 18 0 C21.37916971 -0.28529575 24.62923194 -0.42812006 28 0 C30.1875 2.125 30.1875 2.125 31 5 C30.6875 8.3125 30.6875 8.3125 30 11 C31.32 11.33 32.64 11.66 34 12 C32.948125 12.20625 31.89625 12.4125 30.8125 12.625 C26.35592764 13.85689805 24.64156418 16.31781963 22 20 C25.3 20.33 28.6 20.66 32 21 C32 21.99 32 22.98 32 24 C27.05 24 22.1 24 17 24 C18.20854214 17.95728928 19.93341088 16.41268181 24 12 C20.37 12 16.74 12 13 12 C13.12375 13.85625 13.12375 13.85625 13.25 15.75 C13.22369097 18.71765842 13.08046497 19.86006093 11.5625 22.5 C7.78106272 24.71352426 4.2792407 24.32917236 0 24 C-0.33 22.68 -0.66 21.36 -1 20 C1.01822917 20.32552083 3.03645833 20.65104167 5.0546875 20.9765625 C6.01761719 20.98816406 6.01761719 20.98816406 7 21 C9.26839983 19.16734675 9.26839983 19.16734675 9.1875 16.4375 C9.27003323 14.05310277 9.27003323 14.05310277 8 13 C6.29436222 12.84259395 4.58272756 12.74906608 2.87109375 12.68359375 C1.83662109 12.64169922 0.80214844 12.59980469 -0.26367188 12.55664062 C-1.35228516 12.51732422 -2.44089844 12.47800781 -3.5625 12.4375 C-4.65498047 12.39431641 -5.74746094 12.35113281 -6.87304688 12.30664062 C-9.58189564 12.20017932 -12.29083992 12.09816484 -15 12 C-15 11.67 -15 11.34 -15 11 C-10.05 11 -5.1 11 0 11 C0 7.37 0 3.74 0 0 Z " fill="#0073E5" transform="translate(452,516)"/>
<path d="M0 0 C3.83214691 0.04798753 3.83214691 0.04798753 6.0625 2.0625 C8.6267413 7.49265804 8.82074335 12.72831043 7.25 18.5625 C6.125 21.3125 6.125 21.3125 4.125 24.3125 C1.11905881 24.64649347 -0.9775013 24.84687476 -3.875 24.3125 C-7.69902028 20.98190169 -7.76842346 16.75128323 -8.125 11.9375 C-7.71135358 5.93962692 -6.5737672 0.53014252 0 0 Z " fill="#0080FF" transform="translate(475.875,1107.6875)"/>
<path d="M0 0 C3.83214691 0.04798753 3.83214691 0.04798753 6.0625 2.0625 C8.6267413 7.49265804 8.82074335 12.72831043 7.25 18.5625 C6.125 21.3125 6.125 21.3125 4.125 24.3125 C1.11905881 24.64649347 -0.9775013 24.84687476 -3.875 24.3125 C-7.69902028 20.98190169 -7.76842346 16.75128323 -8.125 11.9375 C-7.71135358 5.93962692 -6.5737672 0.53014252 0 0 Z " fill="#0080FF" transform="translate(465.875,838.6875)"/>
<path d="M0 0 C3.83214691 0.04798753 3.83214691 0.04798753 6.0625 2.0625 C8.6267413 7.49265804 8.82074335 12.72831043 7.25 18.5625 C6.125 21.3125 6.125 21.3125 4.125 24.3125 C1.11905881 24.64649347 -0.9775013 24.84687476 -3.875 24.3125 C-7.69902028 20.98190169 -7.76842346 16.75128323 -8.125 11.9375 C-7.71135358 5.93962692 -6.5737672 0.53014252 0 0 Z " fill="#0080FF" transform="translate(447.875,838.6875)"/>
<path d="M0 0 C3.83214691 0.04798753 3.83214691 0.04798753 6.0625 2.0625 C8.6267413 7.49265804 8.82074335 12.72831043 7.25 18.5625 C6.125 21.3125 6.125 21.3125 4.125 24.3125 C1.11905881 24.64649347 -0.9775013 24.84687476 -3.875 24.3125 C-7.69902028 20.98190169 -7.76842346 16.75128323 -8.125 11.9375 C-7.71135358 5.93962692 -6.5737672 0.53014252 0 0 Z " fill="#0080FF" transform="translate(623.875,160.6875)"/>
<path d="M0 0 C3.83214691 0.04798753 3.83214691 0.04798753 6.0625 2.0625 C8.6267413 7.49265804 8.82074335 12.72831043 7.25 18.5625 C6.125 21.3125 6.125 21.3125 4.125 24.3125 C1.11905881 24.64649347 -0.9775013 24.84687476 -3.875 24.3125 C-7.69902028 20.98190169 -7.76842346 16.75128323 -8.125 11.9375 C-7.71135358 5.93962692 -6.5737672 0.53014252 0 0 Z " fill="#0080FF" transform="translate(605.875,160.6875)"/>
<path d="M0 0 C3.83214691 0.04798753 3.83214691 0.04798753 6.0625 2.0625 C8.6267413 7.49265804 8.82074335 12.72831043 7.25 18.5625 C6.125 21.3125 6.125 21.3125 4.125 24.3125 C1.11905881 24.64649347 -0.9775013 24.84687476 -3.875 24.3125 C-7.69902028 20.98190169 -7.76842346 16.75128323 -8.125 11.9375 C-7.71135358 5.93962692 -6.5737672 0.53014252 0 0 Z " fill="#0080FF" transform="translate(587.875,160.6875)"/>
<path d="M0 0 C1.8871875 0.061875 1.8871875 0.061875 3.8125 0.125 C3.8125 1.115 3.8125 2.105 3.8125 3.125 C2.69875 3.24875 1.585 3.3725 0.4375 3.5 C-3.21853677 3.7715813 -3.21853677 3.7715813 -5.1875 6.125 C-5.1875 7.115 -5.1875 8.105 -5.1875 9.125 C-3.3003125 9.00125 -3.3003125 9.00125 -1.375 8.875 C2.52178484 8.88879393 2.52178484 8.88879393 4.8125 10.75 C6.11585189 13.84546073 6.28882194 15.79074641 5.8125 19.125 C4.25 22 4.25 22 1.8125 24.125 C-2.06360916 24.74794612 -4.18226989 24.73342875 -7.5625 22.6875 C-10.38736305 18.23290827 -10.72033343 13.74442541 -9.67578125 8.609375 C-7.97426016 3.02766562 -6.42315533 -0.21059526 0 0 Z " fill="#0080FF" transform="translate(1787.1875,736.875)"/>
<path d="M0 0 C4.29 0 8.58 0 13 0 C13 0.99 13 1.98 13 3 C9.7 3 6.4 3 3 3 C3 4.98 3 6.96 3 9 C3.9075 8.938125 4.815 8.87625 5.75 8.8125 C9 9 9 9 11.375 10 C13.48274889 12.59415247 13.57081614 14.77225255 13.37109375 18.05859375 C13 20 13 20 11.5625 22.5 C7.78106272 24.71352426 4.2792407 24.32917236 0 24 C-0.33 22.68 -0.66 21.36 -1 20 C1.01822917 20.32552083 3.03645833 20.65104167 5.0546875 20.9765625 C6.01761719 20.98816406 6.01761719 20.98816406 7 21 C9.26839983 19.16734675 9.26839983 19.16734675 9.1875 16.4375 C9.27003323 14.05310277 9.27003323 14.05310277 8 13 C6.65252916 12.76924918 5.29622435 12.58846937 3.9375 12.4375 C2.638125 12.293125 1.33875 12.14875 0 12 C0 8.04 0 4.08 0 0 Z " fill="#0080FF" transform="translate(452,1108)"/>
<path d="M0 0 C4.29 0 8.58 0 13 0 C13 0.99 13 1.98 13 3 C9.7 3 6.4 3 3 3 C3 4.98 3 6.96 3 9 C3.9075 8.938125 4.815 8.87625 5.75 8.8125 C9 9 9 9 11.375 10 C13.48274889 12.59415247 13.57081614 14.77225255 13.37109375 18.05859375 C13 20 13 20 11.5625 22.5 C7.78106272 24.71352426 4.2792407 24.32917236 0 24 C-0.33 22.68 -0.66 21.36 -1 20 C1.01822917 20.32552083 3.03645833 20.65104167 5.0546875 20.9765625 C6.01761719 20.98816406 6.01761719 20.98816406 7 21 C9.26839983 19.16734675 9.26839983 19.16734675 9.1875 16.4375 C9.27003323 14.05310277 9.27003323 14.05310277 8 13 C6.65252916 12.76924918 5.29622435 12.58846937 3.9375 12.4375 C2.638125 12.293125 1.33875 12.14875 0 12 C0 8.04 0 4.08 0 0 Z " fill="#0080FF" transform="translate(1761,737)"/>
<path d="M0 0 C4.55555556 0.55555556 4.55555556 0.55555556 6 2 C6.15349136 4.47357237 6.23159885 6.90004519 6.25 9.375 C6.270625 10.06078125 6.29125 10.7465625 6.3125 11.453125 C6.35173065 16.494263 6.35173065 16.494263 4.6171875 18.98828125 C3 20 3 20 0.875 19.8125 C-1 19 -1 19 -2 17 C-2.12393466 14.4867203 -2.18515112 12.01329886 -2.1875 9.5 C-2.19974609 8.81035156 -2.21199219 8.12070313 -2.22460938 7.41015625 C-2.22988695 5.60522506 -2.12184458 3.80082158 -2 2 C-1.34 1.34 -0.68 0.68 0 0 Z " fill="#FFFFFF" transform="translate(474,1110)"/>
<path d="M0 0 C4.55555556 0.55555556 4.55555556 0.55555556 6 2 C6.15349136 4.47357237 6.23159885 6.90004519 6.25 9.375 C6.270625 10.06078125 6.29125 10.7465625 6.3125 11.453125 C6.35173065 16.494263 6.35173065 16.494263 4.6171875 18.98828125 C3 20 3 20 0.875 19.8125 C-1 19 -1 19 -2 17 C-2.12393466 14.4867203 -2.18515112 12.01329886 -2.1875 9.5 C-2.19974609 8.81035156 -2.21199219 8.12070312 -2.22460938 7.41015625 C-2.22988695 5.60522506 -2.12184458 3.80082158 -2 2 C-1.34 1.34 -0.68 0.68 0 0 Z " fill="#FFFFFF" transform="translate(464,841)"/>
<path d="M0 0 C4.55555556 0.55555556 4.55555556 0.55555556 6 2 C6.15349136 4.47357237 6.23159885 6.90004519 6.25 9.375 C6.270625 10.06078125 6.29125 10.7465625 6.3125 11.453125 C6.35173065 16.494263 6.35173065 16.494263 4.6171875 18.98828125 C3 20 3 20 0.875 19.8125 C-1 19 -1 19 -2 17 C-2.12393466 14.4867203 -2.18515112 12.01329886 -2.1875 9.5 C-2.19974609 8.81035156 -2.21199219 8.12070312 -2.22460938 7.41015625 C-2.22988695 5.60522506 -2.12184458 3.80082158 -2 2 C-1.34 1.34 -0.68 0.68 0 0 Z " fill="#FFFFFF" transform="translate(446,841)"/>
<path d="M0 0 C4.55555556 0.55555556 4.55555556 0.55555556 6 2 C6.15349136 4.47357237 6.23159885 6.90004519 6.25 9.375 C6.270625 10.06078125 6.29125 10.7465625 6.3125 11.453125 C6.35173065 16.494263 6.35173065 16.494263 4.6171875 18.98828125 C3 20 3 20 0.875 19.8125 C-1 19 -1 19 -2 17 C-2.12393466 14.4867203 -2.18515112 12.01329886 -2.1875 9.5 C-2.19974609 8.81035156 -2.21199219 8.12070313 -2.22460938 7.41015625 C-2.22988695 5.60522506 -2.12184458 3.80082158 -2 2 C-1.34 1.34 -0.68 0.68 0 0 Z " fill="#FFFFFF" transform="translate(622,163)"/>
<path d="M0 0 C4.55555556 0.55555556 4.55555556 0.55555556 6 2 C6.15349136 4.47357237 6.23159885 6.90004519 6.25 9.375 C6.270625 10.06078125 6.29125 10.7465625 6.3125 11.453125 C6.35173065 16.494263 6.35173065 16.494263 4.6171875 18.98828125 C3 20 3 20 0.875 19.8125 C-1 19 -1 19 -2 17 C-2.12393466 14.4867203 -2.18515112 12.01329886 -2.1875 9.5 C-2.19974609 8.81035156 -2.21199219 8.12070313 -2.22460938 7.41015625 C-2.22988695 5.60522506 -2.12184458 3.80082158 -2 2 C-1.34 1.34 -0.68 0.68 0 0 Z " fill="#FFFFFF" transform="translate(604,163)"/>
<path d="M0 0 C4.55555556 0.55555556 4.55555556 0.55555556 6 2 C6.15349136 4.47357237 6.23159885 6.90004519 6.25 9.375 C6.270625 10.06078125 6.29125 10.7465625 6.3125 11.453125 C6.35173065 16.494263 6.35173065 16.494263 4.6171875 18.98828125 C3 20 3 20 0.875 19.8125 C-1 19 -1 19 -2 17 C-2.12393466 14.4867203 -2.18515112 12.01329886 -2.1875 9.5 C-2.19974609 8.81035156 -2.21199219 8.12070313 -2.22460938 7.41015625 C-2.22988695 5.60522506 -2.12184458 3.80082158 -2 2 C-1.34 1.34 -0.68 0.68 0 0 Z " fill="#FFFFFF" transform="translate(586,163)"/>
<path d="M0 0 C3.37938363 -0.28531381 6.62847568 -0.42211701 10 0 C12.25 2.0625 12.25 2.0625 13 5 C12.24214215 11.69441098 8.54112475 15.20659054 4 20 C7.3 20.33 10.6 20.66 14 21 C14 21.99 14 22.98 14 24 C9.05 24 4.1 24 -1 24 C-0.01282076 19.06410379 0.17072108 18.41352908 3.4375 15.1875 C7.09962473 11.24771417 8.15320399 8.26895295 9 3 C5.4780279 2.91995518 2.38018531 2.95994298 -1 4 C-0.67 2.68 -0.34 1.36 0 0 Z " fill="#0080FF" transform="translate(424,839)"/>
<path d="M0 0 C1.60332791 -0.08121924 3.20784026 -0.13929134 4.8125 -0.1875 C6.15248047 -0.23970703 6.15248047 -0.23970703 7.51953125 -0.29296875 C10 0 10 0 11.8359375 1.35546875 C13 3 13 3 12.8125 5.5 C12 8 12 8 10 11 C10.99 11.66 11.98 12.32 13 13 C13.49337903 16.80606683 13.53195425 19.09799061 11.5625 22.4375 C7.78993176 24.73784649 4.30933841 24.33148757 0 24 C-0.33 22.68 -0.66 21.36 -1 20 C0.6396875 20.309375 0.6396875 20.309375 2.3125 20.625 C6.0838401 21.40346525 6.0838401 21.40346525 9 19 C9.25030977 16.41619823 9.25030977 16.41619823 9 14 C7.02 13.34 5.04 12.68 3 12 C3 11.34 3 10.68 3 10 C4.65 9.34 6.3 8.68 8 8 C8 6.35 8 4.7 8 3 C3.545 3.495 3.545 3.495 -1 4 C-0.67 2.68 -0.34 1.36 0 0 Z " fill="#0080FF" transform="translate(434,1108)"/>
<path d="M0 0 C1.60332791 -0.08121924 3.20784026 -0.13929134 4.8125 -0.1875 C6.15248047 -0.23970703 6.15248047 -0.23970703 7.51953125 -0.29296875 C10 0 10 0 11.8359375 1.35546875 C13 3 13 3 12.8125 5.5 C12 8 12 8 10 11 C10.99 11.66 11.98 12.32 13 13 C13.49337903 16.80606683 13.53195425 19.09799061 11.5625 22.4375 C7.78993176 24.73784649 4.30933841 24.33148757 0 24 C-0.33 22.68 -0.66 21.36 -1 20 C0.6396875 20.309375 0.6396875 20.309375 2.3125 20.625 C6.0838401 21.40346525 6.0838401 21.40346525 9 19 C9.25030977 16.41619823 9.25030977 16.41619823 9 14 C7.02 13.34 5.04 12.68 3 12 C3 11.34 3 10.68 3 10 C4.65 9.34 6.3 8.68 8 8 C8 6.35 8 4.7 8 3 C3.545 3.495 3.545 3.495 -1 4 C-0.67 2.68 -0.34 1.36 0 0 Z " fill="#0080FF" transform="translate(1467,1101)"/>
<path d="M0 0 C1.60332791 -0.08121924 3.20784026 -0.13929134 4.8125 -0.1875 C6.15248047 -0.23970703 6.15248047 -0.23970703 7.51953125 -0.29296875 C10 0 10 0 11.8359375 1.35546875 C13 3 13 3 12.8125 5.5 C12 8 12 8 10 11 C10.99 11.66 11.98 12.32 13 13 C13.49337903 16.80606683 13.53195425 19.09799061 11.5625 22.4375 C7.78993176 24.73784649 4.30933841 24.33148757 0 24 C-0.33 22.68 -0.66 21.36 -1 20 C0.6396875 20.309375 0.6396875 20.309375 2.3125 20.625 C6.0838401 21.40346525 6.0838401 21.40346525 9 19 C9.25030977 16.41619823 9.25030977 16.41619823 9 14 C7.02 13.34 5.04 12.68 3 12 C3 11.34 3 10.68 3 10 C4.65 9.34 6.3 8.68 8 8 C8 6.35 8 4.7 8 3 C3.545 3.495 3.545 3.495 -1 4 C-0.67 2.68 -0.34 1.36 0 0 Z " fill="#0080FF" transform="translate(1431,1101)"/>
<path d="M0 0 C1.60332791 -0.08121924 3.20784026 -0.13929134 4.8125 -0.1875 C6.15248047 -0.23970703 6.15248047 -0.23970703 7.51953125 -0.29296875 C10 0 10 0 11.8359375 1.35546875 C13 3 13 3 12.8125 5.5 C12 8 12 8 10 11 C10.99 11.66 11.98 12.32 13 13 C13.49337903 16.80606683 13.53195425 19.09799061 11.5625 22.4375 C7.78993176 24.73784649 4.30933841 24.33148757 0 24 C-0.33 22.68 -0.66 21.36 -1 20 C0.6396875 20.309375 0.6396875 20.309375 2.3125 20.625 C6.0838401 21.40346525 6.0838401 21.40346525 9 19 C9.25030977 16.41619823 9.25030977 16.41619823 9 14 C7.02 13.34 5.04 12.68 3 12 C3 11.34 3 10.68 3 10 C4.65 9.34 6.3 8.68 8 8 C8 6.35 8 4.7 8 3 C3.545 3.495 3.545 3.495 -1 4 C-0.67 2.68 -0.34 1.36 0 0 Z " fill="#0080FF" transform="translate(1797,737)"/>
<path d="M0 0 C0 7.26 0 14.52 0 22 C1.32 22 2.64 22 4 22 C4 22.66 4 23.32 4 24 C0.37 24 -3.26 24 -7 24 C-7 23.34 -7 22.68 -7 22 C-5.68 22 -4.36 22 -3 22 C-3 16.39 -3 10.78 -3 5 C-4.32 5 -5.64 5 -7 5 C-7 4.34 -7 3.68 -7 3 C-2.61538462 0 -2.61538462 0 0 0 Z " fill="#0080FF" transform="translate(1457,1101)"/>
<path d="M0 0 C0 7.26 0 14.52 0 22 C1.32 22 2.64 22 4 22 C4 22.66 4 23.32 4 24 C0.37 24 -3.26 24 -7 24 C-7 23.34 -7 22.68 -7 22 C-5.68 22 -4.36 22 -3 22 C-3 16.39 -3 10.78 -3 5 C-4.32 5 -5.64 5 -7 5 C-7 4.34 -7 3.68 -7 3 C-2.61538462 0 -2.61538462 0 0 0 Z " fill="#0080FF" transform="translate(572,161)"/>
<path d="M0 0 C0 0.33 0 0.66 0 1 C-11.22 1 -22.44 1 -34 1 C-34 6.28 -34 11.56 -34 17 C-34.33 17 -34.66 17 -35 17 C-35 11.72 -35 6.44 -35 1 C-46.22 1 -57.44 1 -69 1 C-69 0.67 -69 0.34 -69 0 C-45.93943661 -0.96771419 -23.06161913 -0.92878302 0 0 Z " fill="#000000" transform="translate(633,527)"/>
<path d="M0 0 C0.6875 2.75 0.6875 2.75 1 6 C-0.4375 8.375 -0.4375 8.375 -2 10 C-4.4375 9.625 -4.4375 9.625 -7 9 C-8.4783226 6.04335481 -8.06032783 3.25770263 -8 0 C-5.13822943 -1.43088528 -3.06624227 -0.59991697 0 0 Z " fill="#FFFFFF" transform="translate(1789,749)"/>
<path d="M0 0 C2.64 0 5.28 0 8 0 C8.3633218 6.41868512 8.3633218 6.41868512 6.75 9 C5 10 5 10 2.875 9.8125 C1 9 1 9 0 7 C-0.04022391 4.6670134 -0.04320247 2.33293334 0 0 Z " fill="#FFFFFF" transform="translate(490,528)"/>
<path d="M0 0 C4.55555556 0.55555556 4.55555556 0.55555556 6 2 C6.04092937 4.33297433 6.04241723 6.66705225 6 9 C3.36 9 0.72 9 -2 9 C-2.125 5.625 -2.125 5.625 -2 2 C-1.34 1.34 -0.68 0.68 0 0 Z " fill="#FFFFFF" transform="translate(492,518)"/>
<path d="M0 0 C0.33 0 0.66 0 1 0 C1 2.97 1 5.94 1 9 C3.64 9 6.28 9 9 9 C9 9.33 9 9.66 9 10 C6.36 10 3.72 10 1 10 C1 12.64 1 15.28 1 18 C0.67 18 0.34 18 0 18 C0 15.36 0 12.72 0 10 C-2.97 10 -5.94 10 -9 10 C-9 9.67 -9 9.34 -9 9 C-6.03 9 -3.06 9 0 9 C0 6.03 0 3.06 0 0 Z " fill="#000000" transform="translate(1455,518)"/>
<path d="M0 0 C0.66 0.33 1.32 0.66 2 1 C2 1.99 2 2.98 2 4 C1.278125 4.226875 0.55625 4.45375 -0.1875 4.6875 C-3.53209313 6.24831013 -5.51603959 8.3031287 -8 11 C-8.66 10.67 -9.32 10.34 -10 10 C-6.7 6.7 -3.4 3.4 0 0 Z " fill="#080808" transform="translate(1633,674)"/>
</svg>
